<svg viewBox="0 0 330 200" xmlns="http://www.w3.org/2000/svg"><g><g><g><g><g><line x1="41.171875" y1="177" x2="36.171875" y2="177" style="visibility: inherit;" fill="rgb(0, 0, 0)" stroke="rgb(204, 204, 204)" stroke-width="1px"></line><line x1="41.171875" y1="159.3" x2="36.171875" y2="159.3" style="visibility: inherit;" fill="rgb(0, 0, 0)" stroke="rgb(204, 204, 204)" stroke-width="1px"></line><line x1="41.171875" y1="141.6" x2="36.171875" y2="141.6" style="visibility: inherit;" fill="rgb(0, 0, 0)" stroke="rgb(204, 204, 204)" stroke-width="1px"></line><line x1="41.171875" y1="123.89999999999999" x2="36.171875" y2="123.89999999999999" style="visibility: inherit;" fill="rgb(0, 0, 0)" stroke="rgb(204, 204, 204)" stroke-width="1px"></line><line x1="41.171875" y1="106.2" x2="36.171875" y2="106.2" style="visibility: inherit;" fill="rgb(0, 0, 0)" stroke="rgb(204, 204, 204)" stroke-width="1px"></line><line x1="41.171875" y1="88.5" x2="36.171875" y2="88.5" style="visibility: inherit;" fill="rgb(0, 0, 0)" stroke="rgb(204, 204, 204)" stroke-width="1px"></line><line x1="41.171875" y1="70.8" x2="36.171875" y2="70.8" style="visibility: inherit;" fill="rgb(0, 0, 0)" stroke="rgb(204, 204, 204)" stroke-width="1px"></line><line x1="41.171875" y1="53.10000000000001" x2="36.171875" y2="53.10000000000001" style="visibility: inherit;" fill="rgb(0, 0, 0)" stroke="rgb(204, 204, 204)" stroke-width="1px"></line><line x1="41.171875" y1="35.39999999999999" x2="36.171875" y2="35.39999999999999" style="visibility: inherit;" fill="rgb(0, 0, 0)" stroke="rgb(204, 204, 204)" stroke-width="1px"></line><line x1="41.171875" y1="17.699999999999996" x2="36.171875" y2="17.699999999999996" style="visibility: inherit;" fill="rgb(0, 0, 0)" stroke="rgb(204, 204, 204)" stroke-width="1px"></line><line x1="41.171875" y1="0" x2="36.171875" y2="0" style="visibility: inherit;" fill="rgb(0, 0, 0)" stroke="rgb(204, 204, 204)" stroke-width="1px"></line></g><g transform="translate(31.171875, 0)"><text x="0" y="177" dx="0em" dy="0.3em" style="text-anchor: end; visibility: hidden; font-family: Roboto, sans-serif; font-size: 12px; font-weight: 200;" fill="rgb(33, 33, 33)" stroke="none" stroke-width="1px">-18</text><text x="0" y="159.3" dx="0em" dy="0.3em" style="text-anchor: end; visibility: inherit; font-family: Roboto, sans-serif; font-size: 12px; font-weight: 200;" fill="rgb(33, 33, 33)" stroke="none" stroke-width="1px">-16</text><text x="0" y="141.6" dx="0em" dy="0.3em" style="text-anchor: end; visibility: hidden; font-family: Roboto, sans-serif; font-size: 12px; font-weight: 200;" fill="rgb(33, 33, 33)" stroke="none" stroke-width="1px">-14</text><text x="0" y="123.89999999999999" dx="0em" dy="0.3em" style="text-anchor: end; visibility: inherit; font-family: Roboto, sans-serif; font-size: 12px; font-weight: 200;" fill="rgb(33, 33, 33)" stroke="none" stroke-width="1px">-12</text><text x="0" y="106.2" dx="0em" dy="0.3em" style="text-anchor: end; visibility: hidden; font-family: Roboto, sans-serif; font-size: 12px; font-weight: 200;" fill="rgb(33, 33, 33)" stroke="none" stroke-width="1px">-10</text><text x="0" y="88.5" dx="0em" dy="0.3em" style="text-anchor: end; visibility: inherit; font-family: Roboto, sans-serif; font-size: 12px; font-weight: 200;" fill="rgb(33, 33, 33)" stroke="none" stroke-width="1px">-8</text><text x="0" y="70.8" dx="0em" dy="0.3em" style="text-anchor: end; visibility: hidden; font-family: Roboto, sans-serif; font-size: 12px; font-weight: 200;" fill="rgb(33, 33, 33)" stroke="none" stroke-width="1px">-6</text><text x="0" y="53.10000000000001" dx="0em" dy="0.3em" style="text-anchor: end; visibility: inherit; font-family: Roboto, sans-serif; font-size: 12px; font-weight: 200;" fill="rgb(33, 33, 33)" stroke="none" stroke-width="1px">-4</text><text x="0" y="35.39999999999999" dx="0em" dy="0.3em" style="text-anchor: end; visibility: hidden; font-family: Roboto, sans-serif; font-size: 12px; font-weight: 200;" fill="rgb(33, 33, 33)" stroke="none" stroke-width="1px">-2</text><text x="0" y="17.699999999999996" dx="0em" dy="0.3em" style="text-anchor: end; visibility: inherit; font-family: Roboto, sans-serif; font-size: 12px; font-weight: 200;" fill="rgb(33, 33, 33)" stroke="none" stroke-width="1px">0</text><text x="0" y="0" dx="0em" dy="0.3em" style="text-anchor: end; visibility: hidden; font-family: Roboto, sans-serif; font-size: 12px; font-weight: 200;" fill="rgb(33, 33, 33)" stroke="none" stroke-width="1px">2</text></g><line x1="41.171875" y1="0" x2="41.171875" y2="177" fill="rgb(0, 0, 0)" stroke="rgb(204, 204, 204)" stroke-width="1px"></line></g></g><g transform="translate(41, 0)" clip-path="url(#clip_0)"><clipPath id="clip_0"><rect width="288" height="177"></rect></clipPath><g><g><g><line x1="0" y1="0" x2="0" y2="177" fill="rgb(0, 0, 0)" stroke="rgb(66, 66, 66)" stroke-width="1px" opacity="0.25"></line><line x1="28.8828125" y1="0" x2="28.8828125" y2="177" fill="rgb(0, 0, 0)" stroke="rgb(66, 66, 66)" stroke-width="1px" opacity="0.25"></line><line x1="57.765625" y1="0" x2="57.765625" y2="177" fill="rgb(0, 0, 0)" stroke="rgb(66, 66, 66)" stroke-width="1px" opacity="0.25"></line><line x1="86.6484375" y1="0" x2="86.6484375" y2="177" fill="rgb(0, 0, 0)" stroke="rgb(66, 66, 66)" stroke-width="1px" opacity="0.25"></line><line x1="115.53125" y1="0" x2="115.53125" y2="177" fill="rgb(0, 0, 0)" stroke="rgb(66, 66, 66)" stroke-width="1px" opacity="0.25"></line><line x1="144.4140625" y1="0" x2="144.4140625" y2="177" fill="rgb(0, 0, 0)" stroke="rgb(66, 66, 66)" stroke-width="1px" opacity="0.25"></line><line x1="173.296875" y1="0" x2="173.296875" y2="177" fill="rgb(0, 0, 0)" stroke="rgb(66, 66, 66)" stroke-width="1px" opacity="0.25"></line><line x1="202.1796875" y1="0" x2="202.1796875" y2="177" fill="rgb(0, 0, 0)" stroke="rgb(66, 66, 66)" stroke-width="1px" opacity="0.25"></line><line x1="231.0625" y1="0" x2="231.0625" y2="177" fill="rgb(0, 0, 0)" stroke="rgb(66, 66, 66)" stroke-width="1px" opacity="0.25"></line><line x1="259.9453125" y1="0" x2="259.9453125" y2="177" fill="rgb(0, 0, 0)" stroke="rgb(66, 66, 66)" stroke-width="1px" opacity="0.25"></line><line x1="288.828125" y1="0" x2="288.828125" y2="177" fill="rgb(0, 0, 0)" stroke="rgb(66, 66, 66)" stroke-width="1px" opacity="0.25"></line></g><g><line x1="0" y1="177" x2="288.828125" y2="177" fill="rgb(0, 0, 0)" stroke="rgb(66, 66, 66)" stroke-width="1px" opacity="0.25"></line><line x1="0" y1="159.3" x2="288.828125" y2="159.3" fill="rgb(0, 0, 0)" stroke="rgb(66, 66, 66)" stroke-width="1px" opacity="0.25"></line><line x1="0" y1="141.6" x2="288.828125" y2="141.6" fill="rgb(0, 0, 0)" stroke="rgb(66, 66, 66)" stroke-width="1px" opacity="0.25"></line><line x1="0" y1="123.89999999999999" x2="288.828125" y2="123.89999999999999" fill="rgb(0, 0, 0)" stroke="rgb(66, 66, 66)" stroke-width="1px" opacity="0.25"></line><line x1="0" y1="106.2" x2="288.828125" y2="106.2" fill="rgb(0, 0, 0)" stroke="rgb(66, 66, 66)" stroke-width="1px" opacity="0.25"></line><line x1="0" y1="88.5" x2="288.828125" y2="88.5" fill="rgb(0, 0, 0)" stroke="rgb(66, 66, 66)" stroke-width="1px" opacity="0.25"></line><line x1="0" y1="70.8" x2="288.828125" y2="70.8" fill="rgb(0, 0, 0)" stroke="rgb(66, 66, 66)" stroke-width="1px" opacity="0.25"></line><line x1="0" y1="53.10000000000001" x2="288.828125" y2="53.10000000000001" fill="rgb(0, 0, 0)" stroke="rgb(66, 66, 66)" stroke-width="1px" opacity="0.25"></line><line x1="0" y1="35.39999999999999" x2="288.828125" y2="35.39999999999999" fill="rgb(0, 0, 0)" stroke="rgb(66, 66, 66)" stroke-width="1px" opacity="0.25"></line><line x1="0" y1="17.699999999999996" x2="288.828125" y2="17.699999999999996" fill="rgb(0, 0, 0)" stroke="rgb(66, 66, 66)" stroke-width="1px" opacity="0.25"></line><line x1="0" y1="0" x2="288.828125" y2="0" fill="rgb(0, 0, 0)" stroke="rgb(66, 66, 66)" stroke-width="1px" opacity="0.25"></line></g></g></g><g><g><line x1="0" y1="17.699999999999996" x2="288.828125" y2="17.699999999999996" fill="rgb(0, 0, 0)" stroke="rgb(153, 153, 153)" stroke-width="1.5px"></line></g></g><g><g><line x1="28.8828125" y1="0" x2="28.8828125" y2="177" fill="rgb(0, 0, 0)" stroke="rgb(153, 153, 153)" stroke-width="1.5px"></line></g></g><g><g><g><g><g><path stroke="rgb(51, 187, 238)" stroke-width="2px" d="M34.9495028515625,177.38927690294986L35.04467171875,176.17156809478763L35.1398405859375,175.37014164190404L35.423325390625,173.01308311365543L35.802845546875,170.35984681545082L35.898158828125,169.33430476668426L35.946104296875,168.43577984621803L36.089363046875,167.22406976357783L36.4202156640625,166.53244454706285L36.562896757812496,166.93166781267774L36.65734355468749,166.8172004168177L36.75222359375,165.6865226766173L37.085242421875,164.1585168435329L37.1327546484375,163.45411145558097L37.3713266796875,164.3766652536051L37.7036234375,162.5583972607241L37.7508468359375,161.4674364655555L38.0362090234375,160.63586268943095L38.0821326953125,159.53511815370527L38.606355742187496,159.93666873160367L38.701380195312495,159.43420231926567L38.9858758984375,160.69032436247383L39.0811891796875,160.98379380724654L39.1759248046875,161.0890738536237L39.6031016015625,158.70964336688067L39.838352109375,156.18458696540304L40.548580468749996,157.07675082884057L40.59594828125,157.18724955202248L41.211296601562495,153.00554946113027L41.258953242187495,150.67353008179816L41.306898710937496,148.8495188593202L41.8280890625,149.73751023526998L41.9706257421875,149.81010465571887L42.1606746484375,148.543861713109L42.3521676953125,147.43011797314733L42.4948487890625,147.50527186421064L42.6369522265625,148.04596203820412L42.731399023437504,148.05177560243908L42.970404296874996,145.78966590162457L43.065717578124996,145.63600062129703L43.1135186328125,145.96860104797963L43.589651796874996,147.65496157406974L43.7786898046875,147.71097626924043L43.969171953125,146.54098454618173L44.063907578125,146.54699221315215L44.112141875,146.26739370740788L44.254534140625,145.39163527916276L44.9657733984375,143.3793799521351L45.347748593750005,142.73842959176446L45.395260820312494,141.99985802513925L45.9656963671875,142.76031562532526L46.2504808984375,142.65019072559798L46.297993125,142.2301144353588L46.3460830078125,142.15506933641666L46.918107109375,141.2604430872931L47.2977716796875,141.04226450197302L47.4886870703125,141.9733580259824L47.584578007812496,142.3904142754283L47.820983828125,143.2778491054181L48.059267031249995,143.38551040853287L48.154869140625,142.81290611007944L48.6798142578125,141.1949447463699L48.9657541015625,138.94976576749968L49.01355515625,137.99206054082208L49.678437499999994,137.55903726977525L49.725516484375,137.086821821704L49.8198188671875,137.36989201270015L50.010012187499996,137.07953372217696L50.0581020703125,137.18852185378958L50.1537041796875,137.7495125721126L50.4405105078125,137.69670821846898L50.6317147265625,137.73582385075912L50.870431171875005,135.2104956608583L51.0617798046875,132.4916982067567L51.2041720703125,132.02861946421515L51.2994853515625,131.92777289389164L51.49054515624999,132.32746535681838L51.53618,132.85048056449386L51.775474101562494,131.53588955405885L51.823419570312495,131.59673413755615L52.109648242187504,130.9606389970906L52.20452828125,130.01258245297237L52.44136734375,129.97475055210572L53.204740078125006,131.7574488458203L53.300631015625,132.2960691724519L53.3487208984375,132.83164285387397L53.396810781250004,133.18838449696185L53.539491875,133.9688323186605L53.635238398437494,132.98569817583373L54.30430875,133.59941823029882L54.3523986328125,133.93224945273616L54.44814515624999,134.4151512921251L54.5438916796875,134.49249091031535L54.6394937890625,134.22029414106836L54.831275664062495,132.7825772948827L54.9270221875,132.34474678205046L55.1189484765625,132.40064901451225L55.212673203125,132.25718967878794L55.404166249999996,132.52511542775616L55.6902505078125,131.6238702019357L55.7855637890625,131.57872090579886L55.9773456640625,132.18883240843903L56.741584882812504,130.67870025530513L56.789241523437504,129.9142208283845L56.93206703125,129.10153182182927L57.027669140625,129.959118823017L57.07532578125,131.35867102372964L57.218295703125,132.76480180399608L57.3114427734375,133.53768202767964L57.8847666015625,130.74460989180918L58.1227609765625,129.24576728548834L58.17056203125,127.21365942601102L58.5516707421875,127.02099457528435L58.598605312500005,127.64879579988862L58.8365996875,127.2820763996109L58.88454515625,127.3098470551291L59.0753161328125,127.04330971852058L59.2647873828125,126.03378475079008L59.5504383984375,124.29527085047404L59.59852828125,123.42916318548585L59.836233828124996,122.8740977762512L59.931547109374996,122.47026028623414L60.2649991796875,121.27215617174049L60.3600236328125,121.22589221760116L60.69491984375,120.63173438527872L61.0745844140625,122.3638402260464L61.1219522265625,123.68630346042642L61.5043606640625,124.26738329161839L61.8867691015625,123.05842929976961L61.98193796875,122.65165744482148L62.745888359374995,120.21279473697345L63.2683784375,120.76727603194237L63.3641249609375,121.91416656444741L63.45958265625,123.41649926346703L63.507528125,124.3887005033622L63.602696992187504,125.46761908665478L63.65049804687499,126.53976983150946L63.744078359375,125.44846108866399L63.7921682421875,124.65207597799697L63.839969296875005,124.03264504663704L64.0789745703125,124.47518824334477L64.3654920703125,124.59911429640968L65.320502265625,123.96546722744299L65.7018998046875,122.87727966126438L65.8460250390625,122.47216941724203L65.89440375000001,122.29990151530494L65.9889949609375,122.05494090918296L66.0845970703125,123.00536603095291L66.180054765625,122.86761840320919L66.4662834375,122.11237131200608L67.22821203125,121.4468215718411L67.2754354296875,120.62269213286295L67.37147078125,119.88041554979834L67.51444070312499,117.98365014012069L67.895116171875,112.31438846358904L67.943061640625,109.05443469863681L68.3721158203125,110.31986189950435L68.56346445312501,111.61011686962205L68.94269578125,109.83546890641068L69.08638777343751,107.31928066864498L69.182711953125,105.49096718582443L69.75444722656249,108.14638058157524L69.8974171484375,109.95202672846175L69.9927304296875,110.82301630715762L70.1830681640625,110.38980843389173L70.4210625390625,110.34228519537533L71.04146535156251,111.87136976682235L71.1362009765625,111.76222064473086L71.422862890625,113.60833103643569L71.5659772265625,114.32659848682113L71.662012578125,115.43015747160929L71.8536500390625,115.17189542824755L71.90130667968751,115.79573577150542L72.1878241796875,114.64784227314495L73.1429787890625,113.35730590404809L73.238436484375,112.7245839475497L73.3341830078125,111.60155063861039L73.812915625,110.8923298430051L74.1468009375,110.3605983109239L74.430718984375,109.0857577711918L74.812549765625,108.0730545276748L75.572745390625,106.65123420204799L75.7152820703125,104.8423403861885L75.9050421484375,102.5534035565117L76.1915596484375,104.01204213390702L76.28586203125,105.59522460514277L76.5244340625,106.19113611348851L76.668559296875,107.46908045273055L76.715927109375,108.80224989212171L76.763294921875,109.84995047543417L77.2870847265625,109.66436906989793L77.6206812109375,109.5530202265762L77.8110189453125,108.70741335130826L77.90618781250001,107.2442476056641L78.28700769531251,105.26895004884159L78.33480875000001,104.4731702993855L79.2404293359375,106.33210190955076L79.4313447265625,108.26166263117355L79.90776671875001,107.75559811886527L79.95585660156249,106.81475833115805L80.05174753906249,105.64845418845312L80.2406411328125,103.56807386347471L80.6698397265625,105.15184296768199L81.238397890625,106.88090537548835L81.428446796875,106.32534349537356L81.52404890625,104.50520609722415L81.6665855859375,102.45732203785109L81.7618988671875,100.94539187230782L81.85620125,100.25063525842496L82.3308902734375,100.1877826404981L82.3785469140625,99.68987066462113L82.52108359375,100.55932320901438L82.5680181640625,101.29339284508636L82.71055484375,102.90203435664898L82.854102421875,103.12381912854627L82.94984894531251,103.36309242240975L83.18683242187501,100.60385410304303L83.5202844921875,96.25791367718836L83.75799003906249,92.30514901655471L83.806079921875,90.14589001761411L84.28177984375,92.07173239008506L84.3775263671875,94.50163997421217L84.8520709765625,97.80038276916476L84.946951015625,100.06282817605575L84.994896484375,101.20789731075429L85.32676000000001,101.68253730613031L85.564465546875,100.48052103327535L85.752781484375,98.3433126199652L85.8002937109375,96.99018595149573L86.3707292578125,97.6651102204946L86.7511158984375,98.03466734765932L86.9411648046875,98.68120121883729L87.1794480078125,97.65311951593982L87.274905703125,97.07167130444303L87.464376953125,96.05020386298807L88.178937734375,96.9595211024303L88.2732401171875,98.39011144609563L88.46401109375,98.25726659757682L88.51080125,98.00055901326412L88.5583134765625,97.17393594811959L88.65377117187501,96.39476237911346L88.7961634375,95.53785607706526L88.9863567578125,94.31571297103773L89.272441015625,91.95402697238094L89.4614790234375,90.07681665606955L89.69976222656251,88.915089656041L89.98411351562501,86.58965332098363L90.12679460937501,85.40679131738877L90.364788984375,85.47587506051383L90.5064591796875,83.95972510382842L90.74358707031251,84.04123587253876L90.79066605468749,84.30254213120453L90.93305832031251,86.15852595392413L91.1231072265625,88.0863146270725L91.54985078124999,88.39338864120322L91.88286960937499,87.97583277960108L92.0262727734375,89.07049966776066L92.0736405859375,89.37329845025354L92.4990844140625,90.47537852999102L92.97449550781249,90.03922846839743L93.1170321875,90.45013694599817L93.40369410156251,89.06828189751833L93.68862304687501,84.55756900347072L93.8788163671875,82.66534133456227L94.40246175781249,83.68940520585821L94.45040722656249,83.94984386623649L94.6407449609375,85.55750652230232L94.9262515625,88.46910310313969L95.116878125,89.50806172684352L95.2605701171875,89.45883838650896L96.40302976562499,88.8275024242241L97.3037402734375,86.96190226477616L97.39818707031249,85.3115418315067L97.44613253906249,82.79912449122273L97.4937891796875,81.78727530241491L97.92067714843749,81.92356592417052L98.3016414453125,78.25293881178075L98.3494425,75.97976261186703L98.4443225390625,75.43005695943894L98.4914015234375,74.92323458078421L99.11194875000001,75.4333412211115L99.2076952734375,75.10220412498563L99.7293188671875,75.71772193483025L99.873010859375,75.9454327557773L100.0646483203125,77.07325999106709L100.25455281250001,76.7941563997611L100.4459014453125,76.41429444753794L100.77805378906251,75.37217720868391L100.82585484375001,74.03890585256934L100.87394472656251,73.52214276882006L100.9692580078125,73.88468512113089L101.1119391015625,72.82781174787996L101.6820858203125,76.01688745384882L101.967014765625,77.29313179710788L102.1099846875,76.67827887570431L102.1574969140625,76.2385671903823L102.63521863281251,74.59414065183007L102.77818855468749,71.48348506629948L103.2999565625,69.90029144490053L103.4424932421875,69.69377540710144L103.58560757812499,70.31326591946228L103.8237463671875,72.87975982175794L103.9672939453125,75.02145643321592L104.39577046875,73.47447372488925L104.92085999999999,69.46648450501412L105.1598652734375,68.72549023036747L105.2557562109375,69.62609407070035L106.397638203125,70.5912559697792L106.7781692578125,68.2675541895488L106.8720383984375,66.660933323971L107.0150083203125,64.45795945422145L107.30080375,64.26897574005301L107.3488936328125,64.12018470131024L107.6816236328125,63.42911149598756L108.06316558593751,61.59846723519324L108.2543698046875,60.64168054367637L108.44470753906249,59.46580825868567L108.63316789062499,59.5744849552114L108.7757045703125,60.70169164832826L108.871162265625,61.1302150565171L109.1584018359375,62.732529506551245L109.2534262890625,65.74711790649117L109.58658953125,66.98947148661627L109.966976171875,69.00928241932878L110.061711796875,70.22116897895627L110.20410406250001,67.76230057713207L110.299995,66.28697953603753L110.3475072265625,65.22478792418295L110.39559710937499,64.48127221434862L110.72919359375,64.35376332860919L110.91967574218751,64.1002573219641L110.967476796875,64.0543544606986L111.300784453125,65.12421254137888L111.68117109375001,65.55372759234749L111.72911656250001,64.53703615028763L111.91858781250001,62.54642175769273L112.0133234375,62.945052446934355L112.4415111328125,60.98943126560019L112.96429003906249,62.435659434561536L113.439845546875,66.98499620089807L113.53573648437501,69.0773971803777L113.86918855468751,68.56283776806549L113.91713402343751,68.18330218819828L114.10747175781249,65.65458050267728L114.248564296875,64.70374863920706L114.43846878906251,61.195049791205506L114.6270735546875,59.231430347364316L115.527495234375,61.41625800585815L115.716966484375,61.48815493855516L115.90730421875,62.062293435774095L116.0495520703125,63.3625764665853L116.3349142578125,63.57634513722962L116.429794296875,63.598407284898194L116.858415234375,62.58504470853962L117.0481753125,60.17162635248279L117.477085078125,56.10397614909037L117.71536828125,53.30938552065386L117.763024921875,51.17243158247289L117.8106815625,49.96105915204416L118.57217691406251,54.79203630146819L118.81147101562499,58.04462225352191L119.14492308593749,57.48277368971386L119.3367049609375,55.481864450148805L119.47938605468751,53.21931907521013L119.7650370703125,50.97679185024691L119.81226046875001,49.949875211428385L119.86006152343751,49.156725396937595L120.0011540625,50.026035069362194L120.237993125,53.62742131169789L120.52508828124999,55.15105197677704L120.5726005078125,56.879430443344646L121.04902249999999,55.0136586036075L121.09639031249999,53.363195162164516L121.28643921875,52.19591726609906L121.3339514453125,51.84955019085907L121.52457800781251,51.71252987819494L121.62032453125,52.65691839955795L121.90482023437501,53.89615171493619L122.04807898437501,54.88749062384086L122.23870554687501,57.14609491446566L122.28636218749999,57.72245654355853L122.38167546874999,57.714273858614995L122.42875445312501,57.957164855330106L122.5242121484375,58.31529925079878L123.04525808593749,59.45057901031812L123.13970488281251,62.22034740619089L123.51850296875,63.669808646274944L123.56587078125,64.25628566040596L123.70840746093751,62.69657200392486L125.37277953125,65.72554340491533L125.79836777343749,67.7199252327075L125.84573558593749,67.64215554474536L126.36865890625,64.76349305676663L126.7018221484375,60.168895766539855L126.75005644531251,57.30593749368399L127.32063640625,55.83596229364996L127.46346191406249,55.90977710610941L127.8912163671875,52.69726656750629L128.3657609765625,52.61056017682427L128.746580859375,52.41693647745534L128.7942375,52.33616222407391L128.8902728515625,54.23469665924292L129.0332427734375,53.46221829938639L129.317882890625,53.104931182192274L129.5548663671875,53.84635884435565L129.6028118359375,53.26461557669397L129.7925719140625,51.81816897465559L129.840084140625,51.41050141855344L130.1744026953125,51.41370064857162L130.6015794921875,53.00862119938468L130.7454158984375,53.045172719630806L131.2211158203125,52.57150326041771L131.6921944921875,55.40250114600894L132.165728203125,62.65890048504494L133.0234033203125,64.60554069614781L133.35483359375002,66.80012468776924L133.68958539062498,67.37347494770184L133.78460984375,66.54928537374194L134.0695387890625,62.3377709541646L134.1645632421875,59.456862640018905L134.3081108203125,56.772517719051635L134.35533421875,55.374310563910825L134.640985234375,53.86278606826593L134.831611796875,54.230271843519986L135.3522244921875,51.7603633424325L135.49447234375,48.791617971699424L135.73289996093752,48.178570479179015L136.350270078125,50.43034201742684L137.48868613281252,50.96720487285539L138.39199609375,52.882323598914645L138.6298460546875,54.45619442942935L138.677647109375,55.789917400379174L139.1503143359375,55.28034990006637L139.29429515625,54.47900987251969L139.5324339453125,53.25480572095139L139.91412031250002,51.175083668891325L140.05680140625,49.785650572695566L140.3879428515625,49.553790141056915L140.4355994921875,48.742073679513304L140.4829673046875,47.75944427522811L140.576980859375,47.0282667676973L140.860032421875,47.085159790537816L141.1917515234375,48.110495502961896L141.8549008984375,51.27449703169659L142.3782574609375,52.64189761133668L142.6156741796875,52.400338971922864L142.803556875,51.795203383153705L142.8507802734375,52.35252284013392L142.9928837109375,53.18251404168105L143.0408291796875,52.72470883012949L144.46735128906252,51.706625568158266L144.6093103125,51.66217507081439L144.8000812890625,51.49390490744834L144.84788234375,51.14514304574922L145.0851546484375,50.82968603000997L145.13194480468752,50.18021141544555L145.7022359375,51.06492711934789L146.0830558203125,51.77275637288895L146.17836910156248,51.94965416133408L146.2255925,52.44519330704215L146.794295078125,50.33531571414473L147.17511496093752,49.458789631047274L147.553335390625,46.915073373507504L147.7914741796875,46.486244260424996L147.88693187500002,47.043146860095625L148.0288908984375,47.94368787973689L148.12391535156252,47.422012660322L148.17171640625,46.86120776499355L148.5034355078125,48.82572432139542L148.6931955859375,48.942434424036904L148.7411410546875,49.36646099202285L148.7887976953125,49.5854769665745L148.883677734375,49.57528584234399L148.9788466015625,50.59577187676718L149.21496359375,49.86286309230023L149.3109989453125,50.16651795666035L149.69153,50.77351047015558L150.9762375,50.71290638337356L151.0236053125,49.96854376250398L151.11891859374998,50.47772612246212L151.5485504296875,52.16383506579599L151.59620707031252,53.140101309558155L151.9286482421875,52.06206095453525L152.07002960937498,49.57443680904164L152.1175418359375,47.72786181534442L152.260078515625,45.55791698792645L152.5926641015625,46.91095009147565L152.68812179687498,47.616570054885386L152.92640500000002,50.163941695330514L153.49828468750002,47.86916494967817L153.5449304296875,45.5364989698069L153.9250282421875,44.34929917932373L153.97254046875,46.07957950759422L154.3035375,47.011547805836734L154.44607417968749,47.46452888606248L154.49358640625,48.26731702779685L154.541243046875,48.288790351718404L154.68421296875,47.45207431231126L155.5883894140625,43.65784445234647L155.96776515624998,44.70890673892803L156.015999453125,46.507743840796394L156.158969375,48.401246169437556L156.490255234375,49.714347397821896L156.63206984374997,50.39600823613273L156.727671953125,49.672204975439705L156.87020863281248,47.7157227827034L157.059246640625,45.58603353458176L157.4859901953125,41.72401991818864L157.77005265625,42.16801164707254L157.9611124609375,43.81500705576366L158.0086246875,45.01560409841792L158.198384765625,45.771362290250394L158.2458969921875,46.86201744167038L158.2935536328125,48.15361076884285L158.53227007812498,47.33556659634599L158.7698312109375,46.915540025327736L158.8166213671875,46.16792371135602L159.007681171875,43.949353922972975L159.2466864453125,43.50321204994315L159.29506515625,43.23552692612524L159.3417108984375,42.508516391995656L159.4846808203125,43.55910949759668L159.9109911328125,45.28686600239864L159.95778128906252,45.686319668959335L160.0057267578125,45.288791632575254L160.24242140625,43.17407491202499L160.4805601953125,41.19724471089451L160.623385703125,40.365147096617264L160.766644453125,40.21988819045023L160.86210214843751,41.513333218110766L160.9569821875,40.69640006590674L161.0983635546875,42.57804044466491L161.4334041796875,43.70702467191979L162.0035508984375,42.649815174512675L162.0991530078125,41.98008950982844L162.70973566406252,38.60465357085678L162.7568146484375,35.62359207499393L163.280604453125,34.40135505931598L163.754860234375,36.99561263046872L163.849595859375,36.95916784836179L163.94404265625,38.601101080377866L164.2288271875,39.40926034438608L164.5596798046875,37.73475627415178L164.607480859375,36.022053663210876L164.8447531640625,35.17143234984683L165.0342244140625,34.20085957870845L165.08216988281248,33.61851591602542L165.272074375,33.446109549615244L165.8888668359375,40.03326610112994L165.9838912890625,43.10056003203874L166.03125910156248,45.29493605298333L166.4581470703125,47.00096129418929L166.5540380078125,47.670576776513556L166.649206875,46.86874636974877L167.02872703124999,45.644247990649625L167.40766953124998,42.28994892943006L167.5504950390625,40.702169087577474L167.5981516796875,39.71410121622598L167.7402551171875,39.758460729735596L167.8349907421875,39.21867613400071L167.8819253125,39.85060530903965L168.02402875,38.742963387984226L168.3098241796875,40.06077803279052L168.49915101562502,39.08146681967432L168.54680765625,38.38768019308481L169.20880171874998,37.01560828465125L169.35018308593752,37.82076527463138L169.4919976953125,37.91445899597846L169.8235723828125,36.41307544822719L169.965820234375,34.733445218296204L170.0612779296875,33.40706696217737L170.3460624609375,32.540440076026215L170.5830459375,33.11786416377597L170.86855253906248,35.44671883586629L170.96314375,36.98563150408021L171.2925522265625,38.86477903748841L171.434800078125,39.3196673549729L171.52924687499998,40.37140044674381L171.5766146875,41.498040673167125L171.71915136718752,40.86422437014021L172.0989603515625,42.112334723364334L172.5261371484375,43.56920110409918L172.764564765625,46.28412086501993L172.9998152734375,46.35547251901197L173.2372319921875,49.08868432164887L173.8550353515625,49.348010187868475L173.95078187500002,49.46820574136031L174.42503765625003,46.956123849937036L174.7561791015625,47.25427468132299L174.89784929687502,47.2915644711931L175.1359880859375,46.53513908783672L175.562731640625,45.23168382406281L175.6102438671875,45.5116104969981L175.89228453125,46.17516602811831L176.1754805078125,49.01589954935085L176.31729511718748,52.06554006721122L176.507199609375,51.381924242887166L176.5547118359375,50.75935495085314L176.6020796484375,50.385813375632736L176.69739292968748,50.26788832922026L176.88614210937502,49.27673333513287L177.0275234765625,49.49624040620058L177.07489128906252,47.78714387235957L177.26494019531248,45.66428615461538L177.31245242187498,44.744572030369945L177.359242578125,43.09534291438132L177.5947819140625,41.7872057486288L177.6900951953125,41.25012321285677L178.16391773437502,40.18447355635329L178.4962144921875,42.90808393125155L178.82908890625,46.206050257470714L178.970903515625,46.59182988440186L179.82395738281252,41.90269813320154L180.060940859375,37.81481903184124L180.486673515625,37.23829104774397L180.62906578125,38.520774392325876L180.7245234765625,40.2460643315549L181.05609816406252,44.644238463892655L181.2464358984375,46.752143449696376L181.2940925390625,47.41508617109803L181.672890625,43.06925210777969L181.86250628906248,39.15195123090772L181.9097296875,37.12017082294481L182.051544296875,34.237302476886846L182.14714640625002,32.755381654932485L182.4756883984375,33.21142914487977L182.6648708203125,33.874457689488324L182.85535296875003,34.59087451241277L183.04554628906251,35.233124403607036L183.1394154296875,34.09627452400398L183.4241999609375,33.272564731282394L184.1820849609375,35.397938467408686L184.3241883984375,36.00056335052575L184.46643625000002,34.98153790903526L184.6083952734375,33.237322880461434L184.6559075,32.19079386331714L184.8926021484375,30.005276250470125L185.2692340234375,27.63196585156232L185.5531520703125,26.207979612217578L185.696555234375,24.46858776311056L185.7437786328125,23.56655262410627L186.12142140625002,25.998931658863924L186.5007971484375,28.661959197878765L187.11643429687498,30.15357540056704L187.4478645703125,30.234345054659837L187.731349375,30.6722068977556L187.969054921875,31.46592434121377L188.48649050781248,31.942154807288706L188.86543300781253,29.325092901253253L188.91265640625002,28.073455664791798L189.150361953125,25.12767341153509L189.24480875,22.758404053251084L189.33911113281252,21.12444242984064L189.479048359375,20.53346545368438L189.5745060546875,19.541679269045623L189.8122116015625,18.80500756142738L189.859146171875,18.7878045273614L190.238088671875,22.282082767056952L190.28516765625,25.47604950831385L190.426982265625,27.604829772508435L190.7589901953125,30.475097677824692L190.9003715625,31.1706585560547L190.947450546875,30.384394964832474L190.995396015625,30.868437164579866L191.4227172265625,31.194262450668248L191.6116108203125,30.894157672961345L191.8002155859375,33.6876945024966L192.13294558593748,33.98321665085785L192.1803133984375,34.797729754194236L192.417296875,35.782037987556805L193.1268031640625,32.76182299509451L193.17417097656252,31.091293864576844L193.364653125,29.911976133065707L193.45823343749998,29.45218567983943L193.7874975,30.273711205343226L193.97740199218748,32.28882675696602L194.4048676171875,34.06429639178033L194.452091015625,35.41277790258833L194.4996032421875,36.25726677531306L194.5465378125,36.97635989638749L194.594194453125,37.72641630919327L194.78424335937498,39.06145015687675L194.87897898437498,39.65006982404547L194.973136953125,40.18024229954813L195.115240390625,38.86994564980944L195.2574882421875,36.98636744052577L195.3048560546875,36.316420498075544L195.4466706640625,35.737452501405755L195.9675721875,34.859071365803146L196.2513458203125,33.270042853241975L196.53483062499998,33.945025880745526L196.962007421875,34.59781546092716L197.00908640625,35.41428964791709L197.24736960937497,35.93957412635096L197.3884621484375,35.652944543330726L197.6732466796875,35.693366590958156L197.8630067578125,36.67341975201447L198.052044765625,35.91625166552829L198.43084285156252,34.54155084739668L198.56976917968748,33.64593042403783L198.8531095703125,33.462558254422696L198.90062179687501,33.281735020173734L199.0896598046875,34.97864104586433L199.2794198828125,38.47478483007902L199.4197903515625,39.616671168127965L199.4668693359375,39.947802464556304L199.6083951171875,39.1552813436935L200.033405703125,34.3963689581364L200.64947609375002,33.91282137488183L200.6964106640625,33.905892976849444L200.7434896484375,34.468135819869715L200.79042421875,35.58428162696211L200.9331053125,36.961969280017904L201.45285152343752,41.04538129793019L202.58751281250002,41.6900285424376L202.729327421875,42.32461749682334L202.8239186328125,42.74077083569472L202.918798671875,42.494862467656745L203.05902472656248,40.43571758187428L203.15390476562501,38.527630447844345L203.2487848046875,37.41817813366633L203.3914658984375,39.12430701524008L203.43825605468749,40.57278393906349L204.28986578125,36.02567019463774L204.762677421875,34.39480216742274L205.091363828125,34.76148133421373L205.280835078125,36.89308869924801L205.32849171875,39.127853050748456L205.5640310546875,39.79611145908831L205.6119765234375,40.65726690921305L205.7537911328125,39.0499605168886L206.2739705859375,34.12077624261303L206.321771640625,31.163265678047654L206.8897521484375,32.71635954186888L206.9371199609375,33.57741592768175L207.03026703125002,35.545449219008354L207.07763484375,37.1156696664453L207.219449453125,39.22600166482689L207.2675393359375,40.52760083009577L207.31432949218748,41.41476022797689L207.6456153515625,41.451456339346564L207.7406398046875,39.27867356728744L207.835231015625,38.22280451173324L208.40277828125,34.89888269015991L208.545170546875,30.922129588775896L208.59282718749998,28.890077812345684L208.6397617578125,28.02484661988725L208.68611867187502,27.93050792129223L208.8754455078125,25.36050477809542L209.0175489453125,21.62370287529727L209.72878820312502,20.65602173150839L209.8236682421875,19.756813032575014L210.1078751171875,22.792687937705242L210.2028995703125,23.977012855463357L210.3906378515625,22.77600773015802L210.58054234375,21.772204608554773L210.6277657421875,21.913322765132847L211.3348169921875,28.05139379411998L211.7593943359375,29.96423641151227L211.8544187890625,31.430541678106994L211.949298828125,33.05372497310414L212.091402265625,32.68243496698244L212.18584906249998,31.539260997069512L212.3275192578125,29.189556513841524L212.7544072265625,27.213333942064992L212.897232734375,26.6294004580792L213.03904734374998,27.659640106047174L214.079695078125,20.525184114268384L214.315378828125,15.182510266000614L214.59987453125,13.499106193360436L214.74327769531249,13.232463673816179L214.93144921875,16.895678103009498L215.215944921875,23.05840677740552L215.35775953125,27.711843914523L215.4514842578125,31.84910617991344L215.5453533984375,33.623463370347345L215.687312421875,33.909278005328375L215.782625703125,33.762166668156745L215.9245847265625,33.49690003465412L216.72680484375,29.372940037672493L216.77417265625002,28.066763980403408L216.916564921875,27.460058388242043L217.29521859374998,27.87483513422544L217.34273082031248,29.32730087797484L217.7667305078125,28.924380695585267L217.8145315625,27.83302834139098L218.05180386718752,27.42601690355439L218.0991716796875,25.801210091492536L218.14668390625,25.46352602957546L218.287920859375,23.2785155839852L218.571550078125,23.38350944323132L218.80752265625,24.29610558153861L218.94904843749998,25.09146345020338L219.32741328125,26.205877985721852L219.5161624609375,25.63552683363321L219.6111869140625,24.549916007339714L220.0360530859375,26.164149671923987L220.27245890625002,27.876090005714797L220.5547883984375,31.027253868388602L220.60172296874998,32.24535240543335L220.792060703125,33.401011544540225L220.8391396875,33.56340711240452L221.171003203125,32.31564447000314L221.5018558203125,30.575786563841643L221.7860626953125,27.407871946745L221.928310546875,25.507123176487017L222.0214576171875,24.82687389745219L222.0668036328125,24.52492443975152L222.39678976562502,24.272954621650836L222.6807078125,25.785572621070184L222.77486578125,26.05594360640219L222.82107828124998,27.138566163841322L222.9153806640625,27.11553949574437L223.10355218750001,26.78312379872683L223.2923013671875,26.689874279236093L223.5294292578125,25.678124635061803L224.096254453125,26.734874949837444L224.190990078125,26.6963249361424L224.37988367187498,25.85899486040523L224.6645237890625,25.78139683184295L224.80604957031252,25.345438175065933L225.089534375,26.88926273623921L225.6552042578125,29.51475754046333L225.8449643359375,30.983854524278L226.17610578125,29.95371284960707L226.3169094921875,28.202827659124154L226.69484109375,25.20529660813451L226.836078046875,22.026177962243217L227.3101894140625,24.826906676065725L227.35683515625,27.17994410691962L227.49908300781252,28.874966295351424L227.7798239453125,30.422979946011203L228.0152188671875,31.599587900086597L228.7216924609375,26.32295273372194L228.768915859375,23.333971623353126L229.147280703125,19.98298296557186L229.3838309375,21.441589838423248L229.6647162890625,23.591153801773743L229.75872984375002,24.739292314824308L229.8059532421875,25.3573754901748L230.090593359375,25.834425294104868L230.5609499609375,25.094055100502764L230.7024757421875,23.34003307296168L230.79735578125,22.039819881757083L230.84472359375,21.224291895294204L230.89209140625,20.345575158276553L231.08040734375,20.38474510340594L231.5513416015625,17.64704706626356L231.598565,15.827428307278266L231.69344503906248,15.514456942166873L232.1653901953125,18.123274199060198L232.2121803515625,19.476164544756173L233.0162778515625,21.774698811253874L233.3453975,23.720219252992248L233.532558125,23.896331619315482L233.95713546875,20.70979896103927L234.192530390625,19.966079359743524L234.42864738281247,17.749847598966078L234.7093883203125,15.78290851717958L235.132954765625,13.22214511874775L235.32155953125,11.57948696996844L235.510164296875,12.328492219961127L235.65082359375,13.308895285556613L235.93315308593748,16.906137103813816L236.1685480078125,17.86088228760833L236.4530437109375,18.646129353574953L236.68829421875,20.53327756150486L236.83083089843748,20.532766511582878L236.87776546875,20.426259877409677L237.2076071875,22.38015597708592L237.49051433593752,22.56129352717141L237.585394375,23.059376107862814L237.96318156249998,20.38462564361764L238.1499089453125,19.4523753830056L238.2912903125,18.255825227693347L238.43397140624998,16.05109512817601L238.48047273437498,15.613257068465588L238.85797109375,17.474554211539285L238.9521290625,19.68873261132375L239.46682078125,25.54843954991422L239.84157527343748,29.028863746828563L240.1246268359375,27.718718340937343L240.3568446484375,28.06543107208255L240.53938402343752,27.494658609489466L240.91413851562498,28.143395030653398L241.243402578125,29.41763688335173L241.9950777734375,29.58038214689109L242.27697402343748,30.032029389414866L242.465434375,27.32941761676888L243.169886171875,27.01765057006132L243.4527933203125,28.70679024075659L243.5951855859375,28.906073975653605L243.68833265625,29.131844537312485L243.96979566406247,26.9309067814676L244.01658582031249,25.25634404356051L244.1572451171875,25.455206518976514L244.344838984375,24.583323894505863L244.5327216796875,21.794594337494768L244.57922300781252,19.448756591946836L244.623846953125,17.474853904527997L244.7172828515625,14.555912258316603L244.9994679296875,12.94614734654995L245.3304649609375,13.537888391049941L245.4234676171875,16.016933049399984L245.51762558593748,17.327359854960065L245.7056526953125,21.866015946736102L245.84645640625,24.660009534281592L245.89382421875,26.761205703688923L245.987115703125,29.083923236532947L246.3647584765625,25.840153958799796L246.74153476562498,23.32749235206984L246.83598156250002,21.713695436561945L247.493643203125,22.798617228177115L247.634591328125,23.307970438186473L247.775539453125,22.480782284011923L248.24344101562502,22.940269429487284L248.43161253906248,23.923961674572407L248.57284949218752,25.222177190423817L249.27600156250003,25.96570611169386L249.51067441406252,26.97822376829655L249.55789781250002,27.408734109057605L249.74621375,28.021040397914405L249.933663203125,26.512224272508703L249.9800201171875,25.677734529745166L250.027821171875,25.460240625006904L250.121979140625,24.72794443408428L250.3554966796875,24.182366609810447L250.4022868359375,23.50102004184642L250.448932578125,23.375412041987875L250.8733655078125,23.477047284272846L251.2502862109375,21.449428364233718L251.43773566406253,20.268257031200243L251.53174921875,20.267554189180085L251.81480078125,20.30253255570813L252.1921547265625,20.571319550304917L252.239666953125,21.01579168798287L252.52185203125,19.972675006459685L252.6626557421875,18.95740500624957L253.03654375,19.799642986869703L253.0834783203125,19.63238578368182L253.318728828125,18.859431470209095L253.460254609375,17.864658861025394L253.50704476562498,16.63059527019514L253.64813730468748,16.244157147347057L253.78922984374998,15.97689430739827L253.92974472656252,15.285536635079074L254.4955590234375,14.304321938847353L254.6851746875,14.317393180188452L255.0140055078125,16.20143592921313L255.29705707031252,19.45586155752786L255.4394493359375,22.85991681635648L255.486095078125,25.999750191094098L255.53288523437502,27.77745031721689L255.67513308593752,29.162670089049936L255.72221207031248,30.135402239110338L256.0500319921875,31.533241174665854L256.14245699218753,32.26574463727938L256.2348819921875,32.49284691740789L256.512590234375,31.460908133564697L256.744808046875,33.001144913898905L256.79188703125,32.863287150899765L256.9321130859375,30.408772223019717L257.0720503125,27.732463359131874L257.1651973828125,25.949677998599082L257.2593553515625,25.127806756959387L257.634398671875,23.7142840457356L258.0088643359375,20.56517045065141L258.1033111328125,18.35710222819076L258.1971802734375,16.819861286274364L258.2446925,16.00371672534452L258.290905,15.301630085846814L258.61843609375,13.216578000867997L258.666092734375,11.115946716120602L259.371988671875,16.3337680971925" style="fill: none;" fill="none"></path></g></g></g></g><g opacity="0.2"><g><g><g><path stroke="rgb(51, 187, 238)" stroke-width="2px" d="M34.0518250390625,178.59300270080567L34.7138191015625,176.1149966239929L34.90256828125,177.5309952735901L34.9495028515625,176.4690047264099L35.04467171875,174.34500675201417L35.1398405859375,174.16800270080566L35.423325390625,169.47749662399292L35.802845546875,166.37999324798585L35.898158828125,167.795991897583L35.946104296875,167.08799257278443L36.089363046875,165.4065047264099L36.4202156640625,165.49500675201415L36.562896757812496,167.53050270080567L36.65734355468749,166.64549932479858L36.75222359375,163.99050607681275L37.085242421875,161.866508102417L37.1327546484375,162.39750337600708L37.3713266796875,165.76049594879152L37.7036234375,159.83099527359008L37.7508468359375,159.83099527359008L38.0362090234375,159.38850202560425L38.0821326953125,157.88400135040283L38.606355742187496,160.53899459838868L38.701380195312495,158.68050270080568L38.9858758984375,162.57450742721556L39.0811891796875,161.42399797439575L39.1759248046875,161.24699392318726L39.6031016015625,155.14049763679503L39.838352109375,152.39700236320496L40.548580468749996,158.41499662399292L40.59594828125,157.35299763679504L41.211296601562495,146.73299932479858L41.258953242187495,147.17550101280213L41.306898710937496,146.11350202560425L41.8280890625,151.06949729919432L41.9706257421875,149.9189962863922L42.1606746484375,146.64449729919434L42.3521676953125,145.75950236320494L42.4948487890625,147.61800270080568L42.6369522265625,148.85699729919435L42.731399023437504,148.0604959487915L42.970404296874996,142.39650135040284L43.065717578124996,145.40550270080567L43.1135186328125,146.46750168800355L43.589651796874996,150.18450236320496L43.7786898046875,147.79499831199647L43.969171953125,144.78599696159364L44.063907578125,146.5560037136078L44.112141875,145.8479959487915L44.254534140625,144.07799763679503L44.9657733984375,140.36099696159363L45.347748593750005,141.7770040512085L45.395260820312494,140.89200067520142L45.9656963671875,143.90100202560424L46.2504808984375,142.48500337600709L46.297993125,141.6L46.3460830078125,142.04250168800354L46.918107109375,139.91850371360778L47.2977716796875,140.71499662399293L47.4886870703125,143.36999831199645L47.584578007812496,143.01599864959718L47.820983828125,144.60900135040282L48.059267031249995,143.54700236320497L48.154869140625,141.9539996623993L48.6798142578125,138.76800270080565L48.9657541015625,135.58199729919434L49.01355515625,136.55550270080568L49.678437499999994,136.90950236320495L49.725516484375,136.37849864959716L49.8198188671875,137.79449729919435L50.010012187499996,136.64399628639222L50.0581020703125,137.3520040512085L50.1537041796875,138.59099864959717L50.4405105078125,137.61750168800353L50.6317147265625,137.79449729919435L50.870431171875005,131.42250337600709L51.0617798046875,128.41350202560426L51.2041720703125,131.33400135040284L51.2994853515625,131.77650303840636L51.49054515624999,132.92700405120848L51.53618,133.6350033760071L51.775474101562494,129.56400303840638L51.823419570312495,131.68800101280212L52.109648242187504,130.0064962863922L52.20452828125,128.59049763679505L52.44136734375,129.91800270080566L53.204740078125006,134.43149628639222L53.300631015625,133.1039996623993L53.3487208984375,133.6350033760071L53.396810781250004,133.72349696159364L53.539491875,135.1395040512085L53.635238398437494,131.51099696159363L54.30430875,134.51999831199646L54.3523986328125,134.43149628639222L54.44814515624999,135.1395040512085L54.5438916796875,134.6085003376007L54.6394937890625,133.81199898719788L54.831275664062495,130.62600202560424L54.9270221875,131.68800101280212L55.1189484765625,132.48450236320497L55.212673203125,132.04200067520142L55.404166249999996,132.92700405120848L55.6902505078125,130.27200236320496L55.7855637890625,131.51099696159363L55.9773456640625,133.1039996623993L56.741584882812504,128.41350202560426L56.789241523437504,128.76750168800353L56.93206703125,127.88249831199646L57.027669140625,131.24549932479857L57.07532578125,133.45799932479858L57.218295703125,134.87399797439576L57.3114427734375,134.69700236320494L57.8847666015625,126.55500168800354L58.1227609765625,126.99750337600709L58.17056203125,124.16549763679505L58.5516707421875,126.73199729919433L58.598605312500005,128.59049763679505L58.8365996875,126.73199729919433L58.88454515625,127.35150303840636L59.0753161328125,126.64350371360779L59.2647873828125,124.51949729919433L59.5504383984375,121.6875L59.59852828125,122.13000168800353L59.836233828124996,122.04149966239929L59.931547109374996,121.8645040512085L60.2649991796875,119.47500000000001L60.3600236328125,121.15649628639221L60.69491984375,119.74049763679504L61.0745844140625,124.96199898719787L61.1219522265625,125.66999831199645L61.5043606640625,125.13900303840637L61.8867691015625,121.24499831199647L61.98193796875,122.04149966239929L62.745888359374995,116.55450067520142L63.2683784375,121.59899797439574L63.3641249609375,123.63450236320496L63.45958265625,125.66999831199645L63.507528125,125.84700236320496L63.602696992187504,127.08599696159364L63.65049804687499,128.1479959487915L63.744078359375,123.81149797439575L63.7921682421875,123.45749831199646L63.839969296875005,123.10349864959717L64.0789745703125,125.13900303840637L64.3654920703125,124.78500337600708L65.320502265625,123.01499662399293L65.7018998046875,121.24499831199647L65.8460250390625,121.8645040512085L65.89440375000001,122.04149966239929L65.9889949609375,121.6875L66.0845970703125,124.43100371360778L66.180054765625,122.66099696159363L66.4662834375,120.97950067520141L67.22821203125,120.44849696159362L67.2754354296875,119.38649797439575L67.37147078125,118.76700067520142L67.51444070312499,115.13850202560424L67.895116171875,103.81049594879151L67.943061640625,104.1645040512085L68.3721158203125,112.21800270080566L68.56346445312501,113.54549932479858L68.94269578125,107.17349696159363L69.08638777343751,103.54499831199645L69.182711953125,102.74849696159363L69.75444722656249,112.12950067520141L69.8974171484375,112.6604959487915L69.9927304296875,112.12950067520141L70.1830681640625,109.73999662399292L70.4210625390625,110.27100033760071L71.04146535156251,114.16499662399292L71.1362009765625,111.59849696159363L71.422862890625,116.37749662399291L71.5659772265625,115.4039996623993L71.662012578125,117.0854959487915L71.8536500390625,114.78450236320496L71.90130667968751,116.73149628639221L72.1878241796875,112.92600202560425L73.1429787890625,111.42150135040283L73.238436484375,111.77550101280212L73.3341830078125,109.91700067520141L73.812915625,109.82849864959717L74.1468009375,109.56300101280213L74.430718984375,107.17349696159363L74.812549765625,106.55399966239929L75.572745390625,104.51850371360779L75.7152820703125,102.1289996623993L75.9050421484375,99.11999831199647L76.1915596484375,106.2L76.28586203125,107.96999831199646L76.5244340625,107.08500337600708L76.668559296875,109.38599696159362L76.715927109375,110.8020040512085L76.763294921875,111.42150135040283L77.2870847265625,109.38599696159362L77.6206812109375,109.38599696159362L77.8110189453125,107.43900303840637L77.90618781250001,105.04949898719788L78.28700769531251,102.30600371360778L78.33480875000001,103.27950067520142L79.2404293359375,109.12049932479859L79.4313447265625,111.15600371360779L79.90776671875001,106.99650135040282L79.95585660156249,105.40349864959717L80.05174753906249,103.89899797439575L80.2406411328125,100.44750337600708L80.6698397265625,107.52749662399292L81.238397890625,109.47449898719788L81.428446796875,105.49200067520142L81.52404890625,101.77499999999999L81.6665855859375,99.3854959487915L81.7618988671875,98.67749662399292L81.85620125,99.20850033760071L82.3308902734375,100.09350371360779L82.3785469140625,98.94300270080566L82.52108359375,101.86350202560425L82.5680181640625,102.39449729919433L82.71055484375,105.31499662399291L82.854102421875,103.45649628639221L82.94984894531251,103.72200236320496L83.18683242187501,96.46499662399292L83.5202844921875,89.73900303840638L83.75799003906249,86.37600202560425L83.806079921875,86.90700151920318L84.28177984375,94.9604959487915L84.3775263671875,98.14650135040283L84.8520709765625,102.74849696159363L84.946951015625,103.45649628639221L84.994896484375,102.92550101280212L85.32676000000001,102.39449729919433L85.564465546875,98.67749662399292L85.752781484375,95.1375L85.8002937109375,94.9604959487915L86.3707292578125,98.67749662399292L86.7511158984375,98.58900303840637L86.9411648046875,99.65100202560426L87.1794480078125,96.11099696159363L87.274905703125,96.19949898719788L87.464376953125,94.51800270080567L88.178937734375,98.32349696159362L88.2732401171875,100.53599696159363L88.46401109375,98.05799932479859L88.51080125,97.61549763679504L88.5583134765625,95.93400135040282L88.65377117187501,95.22600202560425L88.7961634375,94.25249662399291L88.9863567578125,92.48249831199645L89.272441015625,88.41149797439574L89.4614790234375,87.26100118160248L89.69976222656251,87.17249915599824L89.98411351562501,83.10149881839753L90.12679460937501,83.63249831199646L90.364788984375,85.57950067520142L90.5064591796875,81.68550016880035L90.74358707031251,84.16350202560425L90.79066605468749,84.69450151920319L90.93305832031251,88.94250168800353L91.1231072265625,90.97799763679505L91.54985078124999,88.85399966239929L91.88286960937499,87.34949898719788L92.0262727734375,90.71249999999999L92.0736405859375,89.82749662399293L92.4990844140625,92.12849864959718L92.97449550781249,89.38500337600708L93.1170321875,91.0664996623993L93.40369410156251,86.99549932479859L93.68862304687501,77.79149966239929L93.8788163671875,79.82699983119964L94.40246175781249,85.22550101280213L94.45040722656249,84.3405018568039L94.6407449609375,87.96900050640106L94.9262515625,92.83649797439575L95.116878125,91.0664996623993L95.2605701171875,89.38500337600708L96.40302976562499,87.88049848079682L97.3037402734375,84.16350202560425L97.39818707031249,82.83600118160247L97.44613253906249,79.03049848079682L97.4937891796875,80.26950151920319L97.92067714843749,82.12800185680389L98.3016414453125,72.74699814319611L98.3494425,72.56999831199646L98.4443225390625,74.60549848079681L98.4914015234375,74.16300101280213L99.11194875000001,76.19850118160248L99.2076952734375,74.60549848079681L99.7293188671875,76.64099864959717L99.873010859375,76.28699898719788L100.0646483203125,78.76500084400176L100.25455281250001,76.37550101280213L100.4459014453125,75.84450151920318L100.77805378906251,73.80900135040282L100.82585484375001,72.03899881839753L100.87394472656251,72.74699814319611L100.9692580078125,74.42849864959716L101.1119391015625,71.24250168800354L101.6820858203125,80.80050101280212L101.967014765625,79.20749831199646L102.1099846875,75.75599949359894L102.1574969140625,75.57899966239928L102.63521863281251,72.12750084400177L102.77818855468749,66.81750168800353L103.2999565625,67.52550101280212L103.4424932421875,69.38400135040284L103.58560757812499,71.24250168800354L103.8237463671875,76.72950067520141L103.9672939453125,78.23400135040283L104.39577046875,71.1539996623993L104.92085999999999,63.454500675201416L105.1598652734375,67.61399881839752L105.2557562109375,70.97699983119965L106.397638203125,72.03899881839753L106.7781692578125,64.78200151920318L106.8720383984375,64.25100202560425L107.0150083203125,61.15349864959717L107.30080375,63.98550016880035L107.3488936328125,63.896998143196114L107.6816236328125,62.39250168800355L108.06316558593751,58.852500844001774L108.2543698046875,59.20650050640107L108.44470753906249,57.70199983119965L108.63316789062499,59.737500000000004L108.7757045703125,62.39250168800355L108.871162265625,61.77300016880036L109.1584018359375,65.13600118160248L109.2534262890625,70.26900050640107L109.58658953125,68.85300185680389L109.966976171875,72.03899881839753L110.061711796875,72.03899881839753L110.20410406250001,64.07399797439575L110.299995,64.07399797439575L110.3475072265625,63.63150050640105L110.39559710937499,63.36599864959716L110.72919359375,64.16250000000001L110.91967574218751,63.719998311996456L110.967476796875,63.98550016880035L111.300784453125,66.72899966239929L111.68117109375001,66.19800016880036L111.72911656250001,63.011998987197885L111.91858781250001,59.560500168800345L112.0133234375,63.54299848079682L112.4415111328125,58.05599949359895L112.96429003906249,64.60500168800354L113.439845546875,73.80900135040282L113.53573648437501,72.21599864959717L113.86918855468751,67.79099864959717L113.91713402343751,67.61399881839752L114.10747175781249,61.86149797439576L114.248564296875,63.27750084400178L114.43846878906251,55.93200151920319L114.6270735546875,56.28600118160249L115.527495234375,64.69349949359894L115.716966484375,61.5960003376007L115.90730421875,62.92350118160248L116.0495520703125,65.31300101280213L116.3349142578125,63.896998143196114L116.429794296875,63.63150050640105L116.858415234375,61.065000844001766L117.0481753125,56.551498818397526L117.477085078125,50.002500844001766L117.71536828125,49.11749957799912L117.763024921875,47.96700067520141L117.8106815625,48.14400050640107L118.57217691406251,62.03850202560425L118.81147101562499,62.92350118160248L119.14492308593749,56.64000084400176L119.3367049609375,52.480500590801235L119.47938605468751,49.82550101280213L119.7650370703125,47.613001012802115L119.81226046875001,48.40950025320053L119.86006152343751,47.96700067520141L120.0011540625,51.32999957799911L120.237993125,59.02950067520141L120.52508828124999,57.436497974395756L120.5726005078125,59.47199814319611L121.04902249999999,52.21500084400178L121.09639031249999,50.887499999999996L121.28643921875,50.44500042200088L121.3339514453125,51.32999957799911L121.52457800781251,51.50699940919877L121.62032453125,54.073501181602474L121.90482023437501,55.75500168800353L122.04807898437501,56.37449898719787L122.23870554687501,60.53400135040283L122.28636218749999,58.58699898719788L122.38167546874999,57.70199983119965L122.42875445312501,58.32150135040284L122.5242121484375,58.852500844001774L123.04525808593749,61.15349864959717L123.13970488281251,66.375L123.51850296875,65.84400050640106L123.56587078125,65.13600118160248L123.70840746093751,60.357001519203195L125.37277953125,70.26900050640107L125.79836777343749,70.71149797439575L125.84573558593749,67.52550101280212L126.36865890625,60.445499324798575L126.7018221484375,53.276999831199646L126.75005644531251,53.01150008440017L127.32063640625,53.63099949359894L127.46346191406249,56.02049932479859L127.8912163671875,47.87850075960159L128.3657609765625,52.480500590801235L128.746580859375,52.12650092840194L128.7942375,52.21500084400178L128.8902728515625,57.08249831199646L129.0332427734375,52.3035007596016L129.317882890625,52.56900050640105L129.5548663671875,54.958500337600704L129.6028118359375,52.392000675201416L129.7925719140625,49.64849907159805L129.840084140625,50.79900008440018L130.1744026953125,51.41849949359893L130.6015794921875,55.40100202560426L130.7454158984375,53.10000000000001L131.2211158203125,51.860999071598044L131.6921944921875,59.64899797439575L132.165728203125,73.54349949359893L133.0234033203125,67.52550101280212L133.35483359375002,70.09200067520142L133.68958539062498,68.23350033760072L133.78460984375,65.31300101280213L134.0695387890625,56.02049932479859L134.1645632421875,55.13550016880036L134.3081108203125,52.74600033760071L134.35533421875,53.276999831199646L134.640985234375,51.59549932479859L134.831611796875,54.781500506401066L135.3522244921875,48.05550059080123L135.49447234375,44.33849991559982L135.73289996093752,47.2589992403984L136.350270078125,53.80799932479858L137.48868613281252,51.772499155998226L138.39199609375,55.75500168800353L138.6298460546875,56.81700067520142L138.677647109375,57.790501856803886L139.1503143359375,54.51599864959717L139.29429515625,53.276999831199646L139.5324339453125,51.41849949359893L139.91412031250002,48.05550059080123L140.05680140625,47.701500928401956L140.3879428515625,49.20599949359894L140.4355994921875,47.52449898719788L140.4829673046875,46.285500168800354L140.576980859375,45.93150050640106L140.860032421875,47.170499324798584L141.1917515234375,49.64849907159805L141.8549008984375,56.02049932479859L142.3782574609375,54.69299848079681L142.6156741796875,52.03800101280212L142.803556875,50.887499999999996L142.8507802734375,53.188502025604244L142.9928837109375,54.42750084400177L143.0408291796875,52.03800101280212L144.46735128906252,50.179500675201425L144.6093103125,51.59549932479859L144.8000812890625,51.24149966239929L144.84788234375,50.62200025320054L145.0851546484375,50.35650050640106L145.13194480468752,49.20599949359894L145.7022359375,52.392000675201416L146.0830558203125,52.83450025320053L146.17836910156248,52.21500084400178L146.2255925,53.188502025604244L146.794295078125,47.170499324798584L147.17511496093752,48.14400050640107L147.553335390625,43.099498987197876L147.7914741796875,45.84300059080124L147.88693187500002,47.87850075960159L148.0288908984375,49.29449940919876L148.12391535156252,46.63949983119965L148.17171640625,46.02000042200088L148.5034355078125,51.772499155998226L148.6931955859375,49.11749957799912L148.7411410546875,50.002500844001766L148.7887976953125,49.91400092840195L148.883677734375,49.559999155998234L148.9788466015625,52.12650092840194L149.21496359375,48.76349991559982L149.3109989453125,50.62200025320054L149.69153,51.68399924039841L150.9762375,50.62200025320054L151.0236053125,48.85199983119964L151.11891859374998,51.24149966239929L151.5485504296875,54.69299848079681L151.59620707031252,54.60450067520141L151.9286482421875,50.44500042200088L152.07002960937498,45.84300059080124L152.1175418359375,44.95799932479859L152.260078515625,42.302999746799465L152.5926641015625,48.94049974679946L152.68812179687498,48.675000000000004L152.92640500000002,53.98499915599824L153.49828468750002,44.42699983119964L153.5449304296875,42.03750000000001L153.9250282421875,42.56849949359894L153.97254046875,48.675000000000004L154.3035375,48.40950025320053L154.44607417968749,48.14400050640107L154.49358640625,49.471499240398416L154.541243046875,48.32100033760071L154.68421296875,46.197000253200535L155.5883894140625,37.9664996623993L155.96776515624998,46.285500168800354L156.015999453125,49.20599949359894L156.158969375,51.24149966239929L156.490255234375,51.68399924039841L156.63206984374997,51.41849949359893L156.727671953125,48.586500084400186L156.87020863281248,44.780999493598934L157.059246640625,42.39149966239928L157.4859901953125,35.93099949359895L157.77005265625,42.8339992403984L157.9611124609375,46.285500168800354L158.0086246875,46.81649966239929L158.198384765625,46.90499957799911L158.2458969921875,48.498000168800345L158.2935536328125,50.091000759601584L158.53227007812498,46.10850033760072L158.7698312109375,46.285500168800354L158.8166213671875,45.04649924039841L159.007681171875,40.62149924039841L159.2466864453125,42.8339992403984L159.29506515625,42.8339992403984L159.3417108984375,41.418000590801235L159.4846808203125,45.13499915599823L159.9109911328125,47.87850075960159L159.95778128906252,46.285500168800354L160.0057267578125,44.692499577999115L160.24242140625,40.001999831199655L160.4805601953125,38.23199940919876L160.623385703125,39.117000675201425L160.766644453125,40.001999831199655L160.86210214843751,43.45350075960159L160.9569821875,39.4710003376007L161.0983635546875,45.400501012802124L161.4334041796875,45.400501012802124L162.0035508984375,41.06400092840194L162.0991530078125,40.97550101280212L162.70973566406252,33.541499662399296L162.7568146484375,31.151999831199646L163.280604453125,32.56799953579902L163.754860234375,40.886998987197885L163.849595859375,36.90450067520141L163.94404265625,41.06400092840194L164.2288271875,40.62149924039841L164.5596798046875,35.223000168800354L164.607480859375,33.45299974679948L164.8447531640625,33.8955003798008L165.0342244140625,32.745000422000885L165.08216988281248,32.745000422000885L165.272074375,33.1875L165.8888668359375,49.91400092840195L165.9838912890625,47.701500928401956L166.03125910156248,48.586500084400186L166.4581470703125,49.559999155998234L166.5540380078125,48.675000000000004L166.649206875,45.6660007596016L167.02872703124999,43.807500422000885L167.40766953124998,37.25850033760071L167.5504950390625,38.320499324798575L167.5981516796875,38.23199940919876L167.7402551171875,39.824999999999996L167.8349907421875,38.408999240398416L167.8819253125,40.798499071598044L168.02402875,37.08150050640107L168.3098241796875,42.03750000000001L168.49915101562502,37.612500000000004L168.54680765625,37.34700025320053L169.20880171874998,34.95750042200088L169.35018308593752,39.028500759601584L169.4919976953125,38.05499957799912L169.8235723828125,34.16100012660026L169.965820234375,32.21399987339974L170.0612779296875,31.417499577999124L170.3460624609375,31.240499746799465L170.5830459375,33.98400029540062L170.86855253906248,38.940000844001766L170.96314375,39.29400050640106L171.2925522265625,41.68350033760071L171.434800078125,40.001999831199655L171.52924687499998,41.94900008440017L171.5766146875,43.18800101280213L171.71915136718752,39.913499915599814L172.0989603515625,43.98450025320052L172.5261371484375,45.75450067520142L172.764564765625,50.35650050640106L172.9998152734375,46.46249999999999L173.2372319921875,53.188502025604244L173.8550353515625,49.73699898719787L173.95078187500002,49.64849907159805L174.42503765625003,43.18800101280213L174.7561791015625,47.701500928401956L174.89784929687502,47.34749915599822L175.1359880859375,45.400501012802124L175.562731640625,43.27650092840195L175.6102438671875,45.93150050640106L175.89228453125,47.170499324798584L176.1754805078125,53.276999831199646L176.31729511718748,56.64000084400176L176.507199609375,50.35650050640106L176.5547118359375,49.82550101280213L176.6020796484375,49.82550101280213L176.69739292968748,50.091000759601584L176.88614210937502,47.790000844001774L177.0275234765625,49.82550101280213L177.07489128906252,45.22349907159805L177.26494019531248,42.47999957799912L177.31245242187498,43.36500084400177L177.359242578125,40.62149924039841L177.5947819140625,39.824999999999996L177.6900951953125,40.44449940919877L178.16391773437502,38.58599907159805L178.4962144921875,46.99349949359895L178.82908890625,51.15299974679947L178.970903515625,47.170499324798584L179.82395738281252,34.86900050640106L180.060940859375,31.683000379800788L180.486673515625,36.37349907159806L180.62906578125,40.44449940919877L180.7245234765625,42.8339992403984L181.05609816406252,51.24149966239929L181.2464358984375,49.91400092840195L181.2940925390625,48.40950025320053L181.672890625,36.550501012802115L181.86250628906248,33.27599991559982L181.9097296875,34.07250021100044L182.051544296875,29.91299995779991L182.14714640625002,30.532500422000894L182.4756883984375,33.8955003798008L182.6648708203125,34.86900050640106L182.85535296875003,35.66549974679947L183.04554628906251,36.1964992403984L183.1394154296875,32.39099970459938L183.4241999609375,32.037000042200084L184.1820849609375,38.58599907159805L184.3241883984375,36.90450067520141L184.46643625000002,33.45299974679948L184.6083952734375,30.621000337600712L184.6559075,30.621000337600712L184.8926021484375,26.72699983119964L185.2692340234375,24.072000253200535L185.5531520703125,24.072000253200535L185.696555234375,21.859499989449986L185.7437786328125,22.21349991559982L186.12142140625002,29.647500211000434L186.5007971484375,32.656500506401066L187.11643429687498,32.39099970459938L187.4478645703125,30.355499535799026L187.731349375,31.328999662399283L187.969054921875,32.656500506401066L188.48649050781248,32.656500506401066L188.86543300781253,25.39950004220009L188.91265640625002,26.195999810099593L189.150361953125,20.70900003165007L189.24480875,19.204500015825033L189.33911113281252,18.673499994724985L189.479048359375,19.646999989449974L189.5745060546875,18.053999992087483L189.8122116015625,17.699999999999996L189.859146171875,18.76199997626246L190.238088671875,27.52350012660026L190.28516765625,30.266999620199208L190.426982265625,30.79800016880035L190.7589901953125,34.78049953579903L190.9003715625,32.21399987339974L190.947450546875,29.20499957799911L190.995396015625,31.59450046420097L191.4227172265625,31.683000379800788L191.6116108203125,30.444000506401053L191.8002155859375,37.87799974679946L192.13294558593748,34.426499873399734L192.1803133984375,36.019499409198765L192.417296875,37.25850033760071L193.1268031640625,28.231500506401062L193.17417097656252,28.58550016880036L193.364653125,28.142999535799035L193.45823343749998,28.762499999999996L193.7874975,31.505999493598942L193.97740199218748,35.31150008440017L194.4048676171875,36.727500844001774L194.452091015625,37.435500168800345L194.4996032421875,37.524000084400186L194.5465378125,38.05499957799912L194.594194453125,38.85150092840195L194.78424335937498,41.06400092840194L194.87897898437498,40.53299932479859L194.973136953125,40.97550101280212L195.115240390625,36.90450067520141L195.2574882421875,34.16100012660026L195.3048560546875,35.31150008440017L195.4466706640625,34.86900050640106L195.9675721875,33.541499662399296L196.2513458203125,30.88650008440017L196.53483062499998,34.95750042200088L196.962007421875,35.57699983119965L197.00908640625,36.639000928401956L197.24736960937497,36.727500844001774L197.3884621484375,35.223000168800354L197.6732466796875,35.75399966239929L197.8630067578125,38.14349949359894L198.052044765625,34.78049953579903L198.43084285156252,32.4794996201992L198.56976917968748,32.30249978899956L198.8531095703125,33.1875L198.90062179687501,33.01050016880036L199.0896598046875,37.524000084400186L199.2794198828125,43.719000506401066L199.4197903515625,41.329500675201416L199.4668693359375,40.44449940919877L199.6083951171875,37.9664996623993L200.033405703125,27.258000379800805L200.64947609375002,33.1875L200.6964106640625,33.8955003798008L200.7434896484375,35.31150008440017L200.79042421875,37.25850033760071L200.9331053125,39.028500759601584L201.45285152343752,47.170499324798584L202.58751281250002,42.65699940919876L202.729327421875,43.27650092840195L202.8239186328125,43.36500084400177L202.918798671875,42.12599991559983L203.05902472656248,37.34700025320053L203.15390476562501,35.66549974679947L203.2487848046875,35.75399966239929L203.3914658984375,41.68350033760071L203.43825605468749,42.74549932479858L204.28986578125,29.20499957799911L204.762677421875,31.948500126600266L205.091363828125,35.31150008440017L205.280835078125,40.09049974679947L205.32849171875,42.47999957799912L205.5640310546875,40.798499071598044L205.6119765234375,41.94900008440017L205.7537911328125,36.639000928401956L206.2739705859375,26.72699983119964L206.321771640625,26.72699983119964L206.8897521484375,35.04600033760072L206.9371199609375,34.86900050640106L207.03026703125002,38.497499155998234L207.07763484375,39.4710003376007L207.219449453125,42.39149966239928L207.2675393359375,42.47999957799912L207.31432949218748,42.74549932479858L207.6456153515625,41.50650050640105L207.7406398046875,36.019499409198765L207.835231015625,36.639000928401956L208.40277828125,29.91299995779991L208.545170546875,24.95699993669986L208.59282718749998,25.84200014770032L208.6397617578125,26.72699983119964L208.68611867187502,27.78899987339974L208.8754455078125,21.505500063300133L209.0175489453125,16.018500021100053L209.72878820312502,19.204500015825033L209.8236682421875,18.40799998417497L210.1078751171875,27.346500295400624L210.2028995703125,25.75350023210048L210.3906378515625,20.974500042200084L210.58054234375,20.26649992614984L210.6277657421875,22.125L211.3348169921875,37.25850033760071L211.7593943359375,32.833500337600704L211.8544187890625,33.629999577999115L211.949298828125,35.48849991559983L212.091402265625,32.1254999577999L212.18584906249998,29.824500042200093L212.3275192578125,25.664999788999566L212.7544072265625,24.249000084400173L212.897232734375,25.75350023210048L213.03904734374998,29.20499957799911L214.079695078125,9.823500126600266L214.315378828125,7.16849949359893L214.59987453125,10.974000084400181L214.74327769531249,12.832499894499783L214.93144921875,22.390499746799478L215.215944921875,32.30249978899956L215.35775953125,34.69199962019921L215.4514842578125,38.05499957799912L215.5453533984375,36.28499915599822L215.687312421875,34.337999957799916L215.782625703125,33.541499662399296L215.9245847265625,33.09900008440018L216.72680484375,23.187000042200097L216.77417265625002,26.107499894499774L216.916564921875,26.550000000000004L217.29521859374998,28.49700025320054L217.34273082031248,31.505999493598942L217.7667305078125,28.32000042200088L217.8145315625,26.195999810099593L218.05180386718752,26.81549974679946L218.0991716796875,23.363999873399734L218.14668390625,24.95699993669986L218.287920859375,20.000999915599827L218.571550078125,23.541000232100487L218.80752265625,25.664999788999566L218.94904843749998,26.284500253200527L219.32741328125,27.877499788999557L219.5161624609375,24.78000010550022L219.6111869140625,22.921499767899505L220.0360530859375,28.58550016880036L220.27245890625002,30.444000506401053L220.5547883984375,35.75399966239929L220.60172296874998,34.07250021100044L220.792060703125,35.134500253200535L220.8391396875,33.80700046420098L221.171003203125,30.444000506401053L221.5018558203125,27.965999704599376L221.7860626953125,22.65600002110005L221.928310546875,22.65600002110005L222.0214576171875,23.806499978899964L222.0668036328125,24.072000253200535L222.39678976562502,23.894999894499783L222.6807078125,28.054499620199195L222.77486578125,26.461500084400186L222.82107828124998,28.762499999999996L222.9153806640625,27.080999493598938L223.10355218750001,26.284500253200527L223.2923013671875,26.550000000000004L223.5294292578125,24.160500168800354L224.096254453125,28.32000042200088L224.190990078125,26.638499915599823L224.37988367187498,24.60299974679947L224.6645237890625,25.664999788999566L224.80604957031252,24.691500189900403L225.089534375,29.20499957799911L225.6552042578125,33.45299974679948L225.8449643359375,33.1875L226.17610578125,28.4085003376007L226.3169094921875,25.576499873399726L226.69484109375,20.70900003165007L226.836078046875,17.257499993406228L227.3101894140625,29.027999746799473L227.35683515625,30.70950025320053L227.49908300781252,31.417499577999124L227.7798239453125,32.745000422000885L228.0152188671875,33.36449983119964L228.7216924609375,18.40799998417497L228.768915859375,18.85049995779991L229.147280703125,14.956499978899956L229.3838309375,23.629500147700305L229.6647162890625,26.81549974679946L229.75872984375002,26.461500084400186L229.8059532421875,26.284500253200527L230.090593359375,26.550000000000004L230.5609499609375,23.9834998100996L230.7024757421875,20.70900003165007L230.79735578125,20.089500094950203L230.84472359375,20.000999915599827L230.89209140625,19.027500052750106L231.08040734375,20.443500021100036L231.5513416015625,13.540500010550026L231.598565,13.098000168800354L231.69344503906248,15.044999894499774L232.1653901953125,22.03650008440018L232.2121803515625,21.505500063300133L233.0162778515625,25.22250021100045L233.3453975,26.638499915599823L233.532558125,24.160500168800354L233.95713546875,15.929999973624945L234.192530390625,18.85049995779991L234.42864738281247,14.425499957799907L234.7093883203125,12.832499894499783L235.132954765625,9.381000021100036L235.32155953125,9.115499746799465L235.510164296875,13.452000094950208L235.65082359375,14.77949988394976L235.93315308593748,22.301999831199637L236.1685480078125,19.29300006330014L236.4530437109375,19.8239999525249L236.68829421875,23.363999873399734L236.83083089843748,20.531999936699876L236.87776546875,20.26649992614984L237.2076071875,25.31100012660027L237.49051433593752,22.832999852299686L237.585394375,23.806499978899964L237.96318156249998,16.372499947249885L238.1499089453125,18.053999992087483L238.2912903125,16.460999994724993L238.43397140624998,12.743999978899964L238.48047273437498,14.956499978899956L238.85797109375,20.26649992614984L238.9521290625,23.01000021100044L239.46682078125,34.337999957799916L239.84157527343748,34.2495000422001L240.1246268359375,25.75350023210048L240.3568446484375,28.58550016880036L240.53938402343752,26.638499915599823L240.91413851562498,29.116499662399292L241.243402578125,31.328999662399283L241.9950777734375,29.824500042200093L242.27697402343748,30.70950025320053L242.465434375,23.275499957799916L243.169886171875,26.550000000000004L243.4527933203125,31.240499746799465L243.5951855859375,29.20499957799911L243.68833265625,29.470500379800797L243.96979566406247,23.629500147700305L244.01658582031249,22.744499936699867L244.1572451171875,25.75350023210048L244.344838984375,23.275499957799916L244.5327216796875,17.61150000197813L244.57922300781252,15.929999973624945L244.623846953125,14.513999873399726L244.7172828515625,10.177499788999562L244.9994679296875,10.531499978899951L245.3304649609375,14.425499957799907L245.4234676171875,19.73550003692508L245.51762558593748,19.29300006330014L245.7056526953125,28.674000084400177L245.84645640625,28.850999915599814L245.89382421875,29.91299995779991L245.987115703125,32.56799953579902L246.3647584765625,20.974500042200084L246.74153476562498,19.558499941974887L246.83598156250002,19.29300006330014L247.493643203125,24.42599991559983L247.634591328125,24.072000253200535L247.775539453125,21.24000005275012L248.24344101562502,23.629500147700305L248.43161253906248,25.39950004220009L248.57284949218752,27.169500464200965L249.27600156250003,27.080999493598938L249.51067441406252,28.49700025320054L249.55789781250002,28.054499620199195L249.74621375,28.939499831199655L249.933663203125,24.249000084400173L249.9800201171875,24.42599991559983L250.027821171875,25.133999767899518L250.121979140625,23.629500147700305L250.3554966796875,23.363999873399734L250.4022868359375,22.47900018990039L250.448932578125,23.187000042200097L250.8733655078125,23.629500147700305L251.2502862109375,18.40799998417497L251.43773566406253,18.496500031650058L251.53174921875,20.26649992614984L251.81480078125,20.355000105500217L252.1921547265625,20.974500042200084L252.239666953125,21.68249989449977L252.52185203125,18.40799998417497L252.6626557421875,17.434500005934396L253.03654375,21.062999957799903L253.0834783203125,19.38149997889996L253.318728828125,17.699999999999996L253.460254609375,16.372499947249885L253.50704476562498,14.77949988394976L253.64813730468748,15.664499963074931L253.78922984374998,15.576000047475091L253.92974472656252,14.24850012660027L254.4955590234375,12.832499894499783L254.6851746875,14.337000042200089L255.0140055078125,19.027500052750106L255.29705707031252,24.33749999999999L255.4394493359375,27.965999704599376L255.486095078125,30.70950025320053L255.53288523437502,30.444000506401053L255.67513308593752,31.240499746799465L255.72221207031248,31.59450046420097L256.0500319921875,33.629999577999115L256.14245699218753,33.36449983119964L256.2348819921875,32.833500337600704L256.512590234375,29.91299995779991L256.744808046875,35.31150008440017L256.79188703125,32.656500506401066L256.9321130859375,26.72699983119964L257.0720503125,23.718000063300124L257.1651973828125,23.275499957799916L257.2593553515625,23.894999894499783L257.634398671875,21.59399997889995L258.0088643359375,15.841500058025126L258.1033111328125,15.044999894499774L258.1971802734375,14.513999873399726L258.2446925,14.77949988394976L258.290905,14.24850012660027L258.61843609375,10.088999873399743L258.666092734375,7.96499978899955L259.371988671875,24.160500168800354" style="fill: none;" fill="none"></path></g></g></g></g></g></g><g transform="translate(41, 177)" clip-path="url(#clip_1)"><clipPath id="clip_1"><rect width="288" height="23"></rect></clipPath><g><g><line x1="0" y1="0" x2="0" y2="5" style="visibility: inherit;" fill="rgb(0, 0, 0)" stroke="rgb(204, 204, 204)" stroke-width="1px"></line><line x1="28.8828125" y1="0" x2="28.8828125" y2="5" style="visibility: inherit;" fill="rgb(0, 0, 0)" stroke="rgb(204, 204, 204)" stroke-width="1px"></line><line x1="57.765625" y1="0" x2="57.765625" y2="5" style="visibility: inherit;" fill="rgb(0, 0, 0)" stroke="rgb(204, 204, 204)" stroke-width="1px"></line><line x1="86.6484375" y1="0" x2="86.6484375" y2="5" style="visibility: inherit;" fill="rgb(0, 0, 0)" stroke="rgb(204, 204, 204)" stroke-width="1px"></line><line x1="115.53125" y1="0" x2="115.53125" y2="5" style="visibility: inherit;" fill="rgb(0, 0, 0)" stroke="rgb(204, 204, 204)" stroke-width="1px"></line><line x1="144.4140625" y1="0" x2="144.4140625" y2="5" style="visibility: inherit;" fill="rgb(0, 0, 0)" stroke="rgb(204, 204, 204)" stroke-width="1px"></line><line x1="173.296875" y1="0" x2="173.296875" y2="5" style="visibility: inherit;" fill="rgb(0, 0, 0)" stroke="rgb(204, 204, 204)" stroke-width="1px"></line><line x1="202.1796875" y1="0" x2="202.1796875" y2="5" style="visibility: inherit;" fill="rgb(0, 0, 0)" stroke="rgb(204, 204, 204)" stroke-width="1px"></line><line x1="231.0625" y1="0" x2="231.0625" y2="5" style="visibility: inherit;" fill="rgb(0, 0, 0)" stroke="rgb(204, 204, 204)" stroke-width="1px"></line><line x1="259.9453125" y1="0" x2="259.9453125" y2="5" style="visibility: inherit;" fill="rgb(0, 0, 0)" stroke="rgb(204, 204, 204)" stroke-width="1px"></line><line x1="288.828125" y1="0" x2="288.828125" y2="5" style="visibility: inherit;" fill="rgb(0, 0, 0)" stroke="rgb(204, 204, 204)" stroke-width="1px"></line></g><g transform="translate(0, 8)"><text x="0" y="0" dx="0em" dy="0.95em" style="text-anchor: middle; visibility: hidden; font-family: Roboto, sans-serif; font-size: 12px; font-weight: 200;" fill="rgb(33, 33, 33)" stroke="none" stroke-width="1px">-20M</text><text x="28.8828125" y="0" dx="0em" dy="0.95em" style="text-anchor: middle; visibility: inherit; font-family: Roboto, sans-serif; font-size: 12px; font-weight: 200;" fill="rgb(33, 33, 33)" stroke="none" stroke-width="1px">0</text><text x="57.765625" y="0" dx="0em" dy="0.95em" style="text-anchor: middle; visibility: hidden; font-family: Roboto, sans-serif; font-size: 12px; font-weight: 200;" fill="rgb(33, 33, 33)" stroke="none" stroke-width="1px">20M</text><text x="86.6484375" y="0" dx="0em" dy="0.95em" style="text-anchor: middle; visibility: inherit; font-family: Roboto, sans-serif; font-size: 12px; font-weight: 200;" fill="rgb(33, 33, 33)" stroke="none" stroke-width="1px">40M</text><text x="115.53125" y="0" dx="0em" dy="0.95em" style="text-anchor: middle; visibility: hidden; font-family: Roboto, sans-serif; font-size: 12px; font-weight: 200;" fill="rgb(33, 33, 33)" stroke="none" stroke-width="1px">60M</text><text x="144.4140625" y="0" dx="0em" dy="0.95em" style="text-anchor: middle; visibility: inherit; font-family: Roboto, sans-serif; font-size: 12px; font-weight: 200;" fill="rgb(33, 33, 33)" stroke="none" stroke-width="1px">80M</text><text x="173.296875" y="0" dx="0em" dy="0.95em" style="text-anchor: middle; visibility: hidden; font-family: Roboto, sans-serif; font-size: 12px; font-weight: 200;" fill="rgb(33, 33, 33)" stroke="none" stroke-width="1px">100M</text><text x="202.1796875" y="0" dx="0em" dy="0.95em" style="text-anchor: middle; visibility: inherit; font-family: Roboto, sans-serif; font-size: 12px; font-weight: 200;" fill="rgb(33, 33, 33)" stroke="none" stroke-width="1px">120M</text><text x="231.0625" y="0" dx="0em" dy="0.95em" style="text-anchor: middle; visibility: hidden; font-family: Roboto, sans-serif; font-size: 12px; font-weight: 200;" fill="rgb(33, 33, 33)" stroke="none" stroke-width="1px">140M</text><text x="259.9453125" y="0" dx="0em" dy="0.95em" style="text-anchor: middle; visibility: inherit; font-family: Roboto, sans-serif; font-size: 12px; font-weight: 200;" fill="rgb(33, 33, 33)" stroke="none" stroke-width="1px">160M</text><text x="288.828125" y="0" dx="0em" dy="0.95em" style="text-anchor: middle; visibility: hidden; font-family: Roboto, sans-serif; font-size: 12px; font-weight: 200;" fill="rgb(33, 33, 33)" stroke="none" stroke-width="1px">180M</text></g><line x1="0" y1="0" x2="288.828125" y2="0" fill="rgb(0, 0, 0)" stroke="rgb(204, 204, 204)" stroke-width="1px"></line></g></g></g></g></svg>