<svg viewBox="0 0 330 200" xmlns="http://www.w3.org/2000/svg"><g><g><g><g><g><line x1="41.171875" y1="177" x2="36.171875" y2="177" style="visibility: inherit;" fill="rgb(0, 0, 0)" stroke="rgb(204, 204, 204)" stroke-width="1px"></line><line x1="41.171875" y1="159.3" x2="36.171875" y2="159.3" style="visibility: inherit;" fill="rgb(0, 0, 0)" stroke="rgb(204, 204, 204)" stroke-width="1px"></line><line x1="41.171875" y1="141.6" x2="36.171875" y2="141.6" style="visibility: inherit;" fill="rgb(0, 0, 0)" stroke="rgb(204, 204, 204)" stroke-width="1px"></line><line x1="41.171875" y1="123.89999999999999" x2="36.171875" y2="123.89999999999999" style="visibility: inherit;" fill="rgb(0, 0, 0)" stroke="rgb(204, 204, 204)" stroke-width="1px"></line><line x1="41.171875" y1="106.2" x2="36.171875" y2="106.2" style="visibility: inherit;" fill="rgb(0, 0, 0)" stroke="rgb(204, 204, 204)" stroke-width="1px"></line><line x1="41.171875" y1="88.5" x2="36.171875" y2="88.5" style="visibility: inherit;" fill="rgb(0, 0, 0)" stroke="rgb(204, 204, 204)" stroke-width="1px"></line><line x1="41.171875" y1="70.8" x2="36.171875" y2="70.8" style="visibility: inherit;" fill="rgb(0, 0, 0)" stroke="rgb(204, 204, 204)" stroke-width="1px"></line><line x1="41.171875" y1="53.10000000000001" x2="36.171875" y2="53.10000000000001" style="visibility: inherit;" fill="rgb(0, 0, 0)" stroke="rgb(204, 204, 204)" stroke-width="1px"></line><line x1="41.171875" y1="35.39999999999999" x2="36.171875" y2="35.39999999999999" style="visibility: inherit;" fill="rgb(0, 0, 0)" stroke="rgb(204, 204, 204)" stroke-width="1px"></line><line x1="41.171875" y1="17.699999999999996" x2="36.171875" y2="17.699999999999996" style="visibility: inherit;" fill="rgb(0, 0, 0)" stroke="rgb(204, 204, 204)" stroke-width="1px"></line><line x1="41.171875" y1="0" x2="36.171875" y2="0" style="visibility: inherit;" fill="rgb(0, 0, 0)" stroke="rgb(204, 204, 204)" stroke-width="1px"></line></g><g transform="translate(31.171875, 0)"><text x="0" y="177" dx="0em" dy="0.3em" style="text-anchor: end; visibility: hidden; font-family: Roboto, sans-serif; font-size: 12px; font-weight: 200;" fill="rgb(33, 33, 33)" stroke="none" stroke-width="1px">-22</text><text x="0" y="159.3" dx="0em" dy="0.3em" style="text-anchor: end; visibility: inherit; font-family: Roboto, sans-serif; font-size: 12px; font-weight: 200;" fill="rgb(33, 33, 33)" stroke="none" stroke-width="1px">-21</text><text x="0" y="141.6" dx="0em" dy="0.3em" style="text-anchor: end; visibility: hidden; font-family: Roboto, sans-serif; font-size: 12px; font-weight: 200;" fill="rgb(33, 33, 33)" stroke="none" stroke-width="1px">-20</text><text x="0" y="123.89999999999999" dx="0em" dy="0.3em" style="text-anchor: end; visibility: inherit; font-family: Roboto, sans-serif; font-size: 12px; font-weight: 200;" fill="rgb(33, 33, 33)" stroke="none" stroke-width="1px">-19</text><text x="0" y="106.2" dx="0em" dy="0.3em" style="text-anchor: end; visibility: hidden; font-family: Roboto, sans-serif; font-size: 12px; font-weight: 200;" fill="rgb(33, 33, 33)" stroke="none" stroke-width="1px">-18</text><text x="0" y="88.5" dx="0em" dy="0.3em" style="text-anchor: end; visibility: inherit; font-family: Roboto, sans-serif; font-size: 12px; font-weight: 200;" fill="rgb(33, 33, 33)" stroke="none" stroke-width="1px">-17</text><text x="0" y="70.8" dx="0em" dy="0.3em" style="text-anchor: end; visibility: hidden; font-family: Roboto, sans-serif; font-size: 12px; font-weight: 200;" fill="rgb(33, 33, 33)" stroke="none" stroke-width="1px">-16</text><text x="0" y="53.10000000000001" dx="0em" dy="0.3em" style="text-anchor: end; visibility: inherit; font-family: Roboto, sans-serif; font-size: 12px; font-weight: 200;" fill="rgb(33, 33, 33)" stroke="none" stroke-width="1px">-15</text><text x="0" y="35.39999999999999" dx="0em" dy="0.3em" style="text-anchor: end; visibility: hidden; font-family: Roboto, sans-serif; font-size: 12px; font-weight: 200;" fill="rgb(33, 33, 33)" stroke="none" stroke-width="1px">-14</text><text x="0" y="17.699999999999996" dx="0em" dy="0.3em" style="text-anchor: end; visibility: inherit; font-family: Roboto, sans-serif; font-size: 12px; font-weight: 200;" fill="rgb(33, 33, 33)" stroke="none" stroke-width="1px">-13</text><text x="0" y="0" dx="0em" dy="0.3em" style="text-anchor: end; visibility: hidden; font-family: Roboto, sans-serif; font-size: 12px; font-weight: 200;" fill="rgb(33, 33, 33)" stroke="none" stroke-width="1px">-12</text></g><line x1="41.171875" y1="0" x2="41.171875" y2="177" fill="rgb(0, 0, 0)" stroke="rgb(204, 204, 204)" stroke-width="1px"></line></g></g><g transform="translate(41, 0)" clip-path="url(#clip_0)"><clipPath id="clip_0"><rect width="288" height="177"></rect></clipPath><g><g><g><line x1="0" y1="0" x2="0" y2="177" fill="rgb(0, 0, 0)" stroke="rgb(66, 66, 66)" stroke-width="1px" opacity="0.25"></line><line x1="24.069010416666664" y1="0" x2="24.069010416666664" y2="177" fill="rgb(0, 0, 0)" stroke="rgb(66, 66, 66)" stroke-width="1px" opacity="0.25"></line><line x1="48.13802083333333" y1="0" x2="48.13802083333333" y2="177" fill="rgb(0, 0, 0)" stroke="rgb(66, 66, 66)" stroke-width="1px" opacity="0.25"></line><line x1="72.20703125" y1="0" x2="72.20703125" y2="177" fill="rgb(0, 0, 0)" stroke="rgb(66, 66, 66)" stroke-width="1px" opacity="0.25"></line><line x1="96.27604166666666" y1="0" x2="96.27604166666666" y2="177" fill="rgb(0, 0, 0)" stroke="rgb(66, 66, 66)" stroke-width="1px" opacity="0.25"></line><line x1="120.34505208333334" y1="0" x2="120.34505208333334" y2="177" fill="rgb(0, 0, 0)" stroke="rgb(66, 66, 66)" stroke-width="1px" opacity="0.25"></line><line x1="144.4140625" y1="0" x2="144.4140625" y2="177" fill="rgb(0, 0, 0)" stroke="rgb(66, 66, 66)" stroke-width="1px" opacity="0.25"></line><line x1="168.48307291666669" y1="0" x2="168.48307291666669" y2="177" fill="rgb(0, 0, 0)" stroke="rgb(66, 66, 66)" stroke-width="1px" opacity="0.25"></line><line x1="192.55208333333331" y1="0" x2="192.55208333333331" y2="177" fill="rgb(0, 0, 0)" stroke="rgb(66, 66, 66)" stroke-width="1px" opacity="0.25"></line><line x1="216.62109375" y1="0" x2="216.62109375" y2="177" fill="rgb(0, 0, 0)" stroke="rgb(66, 66, 66)" stroke-width="1px" opacity="0.25"></line><line x1="240.69010416666669" y1="0" x2="240.69010416666669" y2="177" fill="rgb(0, 0, 0)" stroke="rgb(66, 66, 66)" stroke-width="1px" opacity="0.25"></line><line x1="264.7591145833333" y1="0" x2="264.7591145833333" y2="177" fill="rgb(0, 0, 0)" stroke="rgb(66, 66, 66)" stroke-width="1px" opacity="0.25"></line><line x1="288.828125" y1="0" x2="288.828125" y2="177" fill="rgb(0, 0, 0)" stroke="rgb(66, 66, 66)" stroke-width="1px" opacity="0.25"></line></g><g><line x1="0" y1="177" x2="288.828125" y2="177" fill="rgb(0, 0, 0)" stroke="rgb(66, 66, 66)" stroke-width="1px" opacity="0.25"></line><line x1="0" y1="159.3" x2="288.828125" y2="159.3" fill="rgb(0, 0, 0)" stroke="rgb(66, 66, 66)" stroke-width="1px" opacity="0.25"></line><line x1="0" y1="141.6" x2="288.828125" y2="141.6" fill="rgb(0, 0, 0)" stroke="rgb(66, 66, 66)" stroke-width="1px" opacity="0.25"></line><line x1="0" y1="123.89999999999999" x2="288.828125" y2="123.89999999999999" fill="rgb(0, 0, 0)" stroke="rgb(66, 66, 66)" stroke-width="1px" opacity="0.25"></line><line x1="0" y1="106.2" x2="288.828125" y2="106.2" fill="rgb(0, 0, 0)" stroke="rgb(66, 66, 66)" stroke-width="1px" opacity="0.25"></line><line x1="0" y1="88.5" x2="288.828125" y2="88.5" fill="rgb(0, 0, 0)" stroke="rgb(66, 66, 66)" stroke-width="1px" opacity="0.25"></line><line x1="0" y1="70.8" x2="288.828125" y2="70.8" fill="rgb(0, 0, 0)" stroke="rgb(66, 66, 66)" stroke-width="1px" opacity="0.25"></line><line x1="0" y1="53.10000000000001" x2="288.828125" y2="53.10000000000001" fill="rgb(0, 0, 0)" stroke="rgb(66, 66, 66)" stroke-width="1px" opacity="0.25"></line><line x1="0" y1="35.39999999999999" x2="288.828125" y2="35.39999999999999" fill="rgb(0, 0, 0)" stroke="rgb(66, 66, 66)" stroke-width="1px" opacity="0.25"></line><line x1="0" y1="17.699999999999996" x2="288.828125" y2="17.699999999999996" fill="rgb(0, 0, 0)" stroke="rgb(66, 66, 66)" stroke-width="1px" opacity="0.25"></line><line x1="0" y1="0" x2="288.828125" y2="0" fill="rgb(0, 0, 0)" stroke="rgb(66, 66, 66)" stroke-width="1px" opacity="0.25"></line></g></g></g><g><g><line x1="0" y1="-212.40000000000003" x2="288.828125" y2="-212.40000000000003" fill="rgb(0, 0, 0)" stroke="rgb(153, 153, 153)" stroke-width="1.5px"></line></g></g><g><g><line x1="24.069010416666664" y1="0" x2="24.069010416666664" y2="177" fill="rgb(0, 0, 0)" stroke="rgb(153, 153, 153)" stroke-width="1.5px"></line></g></g><g><g><g><g><g><path stroke="rgb(51, 187, 238)" stroke-width="2px" d="M24.5453361328125,159.3L25.33311484375,159.3L25.412301888020835,159.29999999999995L25.649622330729166,159.29999999999995L25.728087304687502,159.29999999999995L26.28071178385417,159.3L26.35965813802083,159.3L27.3902931640625,159.29999999999995L27.943639713541668,159.29999999999995L28.022104687499997,159.29999999999995L28.101532421875003,159.3L28.4965048828125,159.3L29.12951985677083,159.3L29.208225520833334,159.3L29.4438611328125,159.3L29.522326106770834,159.3L29.759887239583332,159.29999999999995L29.83883359375,159.29999999999995L30.31227102864583,159.29999999999995L30.707484179687498,159.29999999999995L31.263237630208334,159.29999999999995L32.05173841145833,159.3L32.36728313802084,159.3L32.684031315104164,159.3L33.787354752604166,159.30000000000007L34.10193671875,159.3L34.180161002604166,159.3L34.33877578125,159.3L34.497390559895834,159.3L34.969865234375,159.30000000000007L35.602398828125,159.30000000000007L35.761254296874995,159.30000000000007L35.84116341145833,159.3L36.07992799479167,159.3L36.6313490234375,159.3L36.86915084635417,159.3L37.02656217447917,159.30000000000007L37.18469557291666,159.30000000000007L37.739726953125,152.21999998422632L37.81891399739583,147.97199998485732L38.216534049479165,152.5031999945486L38.77036197916667,148.14191999463046L38.84906764322916,145.52515199602271L39.3246712890625,151.03509119856818L39.4012107421875,154.34105471948456L40.2749158203125,149.24463283137283L40.43328990885417,146.1867796987093L40.9074494140625,144.35206781918444L41.066304882812496,143.2512406914958L41.22419759114583,142.59074441489213L41.93615891927084,135.114446648899L42.32824309895833,137.70866798934694L43.51195703125,139.26520079361086L43.59090338541667,140.19912047616748L44.616483919270834,140.75947228570084L44.69591165364583,141.0956833714206L44.77582076822917,141.29741002285235L45.64447135416667,148.49844601371234L45.88203248697917,152.81906760822775L46.1987806640625,155.4114405649368L46.5179357421875,156.96686433896207L46.75573756510417,157.90011860337722L46.992576627604166,158.4600711620263L47.149987955729166,158.7960426972158L47.548330078125,144.83762561832935L47.707185546874996,136.46257537099763L47.78685397135416,131.43754522259852L48.58040924479167,142.58252713355913L48.89547259114583,142.18951628013548L49.212942838541665,141.95370976808132L49.370835546875,141.81222586084874L49.451226041666665,141.72733551650924L49.688546484374996,141.67640130990554L50.87394524739584,141.64584078594322L51.51057057291666,134.54750447156596L51.5897576171875,130.28850268293957L52.54048352864584,141.89310160976376L53.015124414062505,148.85586096585823L53.09431145833333,153.03351657951495L53.17446126302084,155.54010994770897L54.127834765624996,142.88406596862538L54.760609049479164,142.37043958117525L55.078801367187495,142.06226374870513L55.23861959635417,141.87735824922308L55.632629296875,141.76641494953384L56.02976796875,141.6998489697203L56.18910481770833,141.6599093818322L57.064013346354166,134.55594562909934L57.540579752604174,137.3735673774596L57.62024817708333,139.06414042647572L58.72838541666667,132.99848425588544L58.806850390625,129.35909055353125L58.96402102864583,120.09545433211872L59.28100989583333,121.6172725992712L59.36115970052084,122.53036355956273L59.52049654947917,123.07821813573761L59.99850709635417,130.48693088144256L60.31718079427083,134.93215852886559L60.71504153645833,137.59929511731937L61.033955924479166,139.1995770703916L61.271276367187504,133.079746242235L61.4301318359375,129.40784774534097L61.74856484375,127.20470864720461L61.82462291666667,125.88282518832276L62.223446419270836,125.08969511299367L62.303355533854166,124.61381706779619L62.780403320312494,124.3282902406777L62.93853671875,124.1569741444066L63.33326848958333,131.134184486644L64.60555638020833,128.2405106919864L64.765374609375,126.50430641519182L64.8455244140625,125.4625838491151L64.92567421875,124.83755030946907L65.16347604166667,131.54253018568141L65.32305358072917,135.56551811140886L66.43817083333333,137.97931086684525L66.51832063802084,139.42758652010713L66.67789817708334,140.29655191206422L66.83747571614583,140.8179311472385L66.99681256510416,141.1307586883431L67.3164490234375,134.23845521300586L67.4760265625,123.02307312780353L67.7959037109375,123.3738438766821L67.95211158854167,123.58430632600928L68.27126666666666,130.79058379560556L68.74807376302084,135.11435027736331L68.90692923177083,137.708610166418L69.22656569010417,125.10516609985083L70.50029772135417,131.70309965991052L70.57972545572916,135.66185979594627L70.81776796875,138.03711587756771L70.97710481770834,139.4622695265406L71.05653255208333,140.31736171592436L71.29481575520833,133.75041702955465L71.45006087239584,129.81025021773277L72.4056005859375,134.5261501306397L72.80225787760418,137.35569007838382L72.88192630208333,139.0534140470303L73.51710748697917,140.07204842821815L73.59533177083334,140.68322905693088L73.99198906250001,141.0499374341585L74.07189817708333,141.26996246049507L74.3898498046875,141.40197747629708L74.70563522135417,141.48118648577824L75.18172024739584,134.44871189146696L75.26187005208334,130.22922713488015L75.65804596354167,127.6975362809281L75.81690143229167,126.17852176855686L76.3726548828125,132.3471130611341L76.53102897135416,136.0482678366804L77.08918932291667,131.18896070200825L77.72196360677084,121.19337642120495L77.80090996093749,115.19602585272298L78.43825735677083,118.67761551163377L79.07560475260416,120.76656930698027L79.23421953125,122.01994158418815L80.50747018229166,122.77196495051287L81.37828697916667,116.14317897030773L81.53786451822916,133.40590738218467L81.69696067708333,143.76354442931077L81.77686979166667,149.97812665758647L81.9354845703125,153.7068759945519L82.01515299479166,155.94412559673108L82.17112018229167,157.28647535803867L82.25126998697917,158.09188521482324L82.33093841145833,158.57513112889396L82.72928053385418,144.7050786773364L83.20680970052082,136.38304720640184L84.798493359375,131.38982832384113L85.43415592447916,121.31389699430466L85.6743646484375,115.2683381965828L85.75499583333333,111.64100291794965L85.9126478515625,109.46460175076982L86.07198470052084,108.1587610504619L86.231080859375,107.37525663027712L86.70812864583334,106.90515397816627L87.97800963541667,120.78309238689974L88.05671529947917,129.10985543213982L88.21677421874999,134.10591325928394L88.455057421875,137.10354795557038L89.08951653645833,117.66212877334223L89.16942565104166,105.99727726400538L89.88451595052084,113.15836635840321L90.20343033854168,117.45501981504191L90.83548255208333,120.03301188902515L91.07496920572918,121.5798071334151L91.23550950520834,122.50788428004907L92.18840162760418,123.06473056802943L92.42668483072916,116.31883834081763L92.58554029947916,112.27130300449056L92.90276985677085,109.84278180269436L93.2994271484375,108.38566908161664L94.3334318359375,114.59140144896999L94.49132454427084,118.31484086938201L94.96909440104166,120.54890452162921L95.20761829427083,114.80934271297753L95.36767721354165,111.36560562778654L95.68707298177084,109.29936337667192L95.76650071614584,108.05961802600316L96.2440298828125,114.39577081560192L97.83595423177083,111.11746248936115L97.995050390625,109.15047749361672L98.1546279296875,107.97028649617002L98.952515625,107.262171897702L99.50899114583333,99.75730313862124L99.982187890625,95.25438188317275L100.61857252604166,92.5526291299037L101.885565234375,90.93157747794223L102.1231263671875,89.95894648676531L102.4393931640625,89.37536789205922L102.91692233072916,96.10522073523552L103.07409296875001,100.14313244114129L103.47171302083333,102.56587946468477L103.71192174479167,104.01952767881083L103.79086809895834,104.89171660728654L103.86981445312499,105.41502996437194L104.74279746093751,105.72901797862315L105.29879160156251,105.91741078717386L105.61602115885417,106.03044647230429L105.7746359375,106.09826788338258L106.40933574218751,113.21896073002956L106.48900416666666,117.49137643801775L107.99837180989584,112.97482586281066L108.31656412760418,110.26489551768636L109.11060078125,108.63893731061184L109.1907505859375,107.66336238636714L109.35056881510417,107.07801743182029L109.66539147135416,106.7268104590922L110.38072246093749,120.67608627545529L111.32831940104167,129.0456517652732L111.64506757812501,134.06739105916395L111.80440442708333,115.84043463549837L112.04196555989583,104.90426078129902L112.20082102864583,91.26255646877944L112.35799166666666,97.23753388126764L113.1491400390625,100.82252032876059L113.22856777343749,102.97351219725633L113.46612890624999,104.26410731835378L113.54435319010416,105.03846439101227L113.78191432291666,98.42307863460739L114.02116028645834,101.53384718076443L114.18073782552082,103.40030830845865L114.57571028645833,104.52018498507515L115.13146373697917,105.19211099104511L115.5276396484375,98.51526659462712L115.607789453125,101.5891599567763L116.40062265625,103.43349597406578L116.5602001953125,104.5400975844395L117.35110787760416,98.12405855066369L117.50924127604166,94.27443513039825L117.58915039062501,91.96466107823892L118.14225625,90.57879664694336L118.53843216145833,96.82727798816605L118.85229205729168,100.57636679289963L118.9314791015625,102.82582007573978L119.88220501302084,104.17549204544386L120.51618274739583,104.9852952272663L120.83293092447916,105.4711771363598L121.23006959635417,105.76270628181585L121.38916575520834,105.93762376908951L121.704951171875,106.04257426145368L122.89588580729166,91.9455445568722L123.05305644531249,83.48732673412329L123.37100807291667,78.41239604047398L123.44899166666666,75.36743762428438L123.5281787109375,73.54046257457061L123.68727486979166,72.44427754474238L123.9245953125,71.78656652684542L124.24158417968751,71.39193991610729L124.71839127604167,64.07516394966436L125.03345462239584,73.84509836979859L125.43059329427084,79.7070590218792L125.904512109375,83.2242354131275L126.14231393229167,85.33454124787649L126.53897122395834,86.60072474872594L126.77508821614583,87.36043484923562L127.1703013671875,87.81626090954138L127.24876634114584,88.08975654572484L127.48608678385418,81.17385392743495L127.80283496093749,77.02431235646094L128.51407421875,74.53458741387655L129.06910559895834,80.12075244832599L129.30811087239582,83.47245146899562L129.3870572265625,85.48347088139734L130.0961302734375,79.6100825288384L130.88848209635418,97.32604951730302L131.12604322916667,107.95562971038181L131.6038130859375,114.33337782622907L132.07869466145834,89.84002669573746L132.39568352864583,96.38401601744248L133.26842584635418,100.31040961046551L133.34833496093748,102.66624576627933L133.66556451822916,89.91974745976756L134.14140885416666,82.27184847586052L134.45911979166667,77.68310908551632L134.6986064453125,82.00986545130979L136.602705859375,77.52591927078586L138.1038900390625,81.91555156247148L138.26130136718749,84.54933093748289L138.34121048177082,86.12959856248973L138.42063821614585,87.07775913749386L139.1321181640625,87.64665548249637L139.76705865885418,87.98799328949784L139.84672708333332,88.19279597369875L140.00486048177083,81.23567758421922L140.08332545572918,77.06140655053154L141.11757083333333,74.55684393031895L141.27714837239583,73.05410635819133L142.14652102864585,86.31246381491476L142.38600768229168,94.2674782889489L142.70540345052083,99.04048697336933L143.0219109375,94.82429218402159L143.34082532552085,92.29457531041295L143.89441256510415,76.61674518624781L143.97408098958334,67.2100471117487L144.05423079427084,61.56602826704922L144.21308626302084,58.17961696022953L144.4508880859375,56.147770176137726L145.4011326171875,47.84866210568262L145.8760141927083,57.02919726340958L146.11429739583335,62.53751835804575L146.19348444010416,65.84251101482747L146.9896873046875,67.82550660889648L147.2279705078125,47.77530396533786L148.09758385416666,42.82518237920274L148.33514498697917,39.85510942752166L148.57366888020832,45.153065656512986L148.97056686197917,48.33183939390778L149.20981282552083,50.23910363634466L149.92394036458333,51.383462181806784L150.79908958333334,44.990077309084064L151.19743170572917,48.23404638545045L151.3572499348958,57.26042783127026L153.26038658854168,69.75625669876216L153.89460501302082,77.25375401925727L154.05105358072916,81.75225241155441L154.28933678385414,84.45135144693269L154.7656625,71.9108108681596L154.8458123046875,64.38648652089574L155.4003623046875,59.871891912537464L156.03626555989584,57.16313514752247L156.35493925781248,48.457881088513474L156.6721688151042,43.23472865310809L156.98626940104165,54.26083719186485L157.22383053385417,60.876502315118906L157.3829266927083,64.84590138907133L157.86165930989586,67.22754083344279L158.0200333984375,68.65652450006566L158.57530546875,76.59391470003945L159.20928320312498,88.4363488200237L159.36717591145833,95.54180929201424L159.60449635416668,99.80508557520855L159.76431458333334,102.36305134512513L159.84350162760418,103.89783080707511L159.92365143229165,104.81869848424508L160.47964557291667,105.37121909054702L160.7971158203125,98.62273145432822L160.87678424479168,94.5736388725969L161.43229700520834,92.14418332355817L162.06627473958335,76.5265099941349L162.14618385416665,67.15590599648094L162.46196927083335,61.53354359788855L162.61986197916667,58.160126158733135L163.33350813802085,56.13607569523986L164.20480631510418,54.92164541714391L164.997398828125,61.27298725028635L165.15721705729166,65.0837923501718L165.7129705078125,67.37027541010309L165.79287962239582,68.74216524606184L166.1101091796875,62.48529914763713L166.34526341145832,58.73117948858227L166.6617708984375,49.39870769314935L166.97611217447917,43.79922461588962L168.47681497395834,47.51953476953376L168.79260039062498,49.75172086172026L169.10982994791667,58.171032517032145L169.34690970052083,63.22261951021931L169.82251334635416,66.25357170613158L169.98064674479167,68.07214302367895L170.69501497395834,55.00328581420736L171.01128177083334,47.16197148852442L171.72613138020833,42.457182893114656L172.12327005208334,53.79430973586878L172.20269778645834,60.59658584152126L172.28212552083335,64.67795150491276L173.55128444010415,60.04677090294764L173.95010794270834,57.26806254176857L174.50586139322917,55.600837525061124L174.82549785156252,40.440502515036705L175.06329967447917,31.344301509022L175.53938470052083,25.886580905413215L175.61809036458334,22.61194854324794L175.6977587890625,20.647169125948736L175.93291302083335,19.46830147556924L176.32764479166667,18.760980885341514L176.80613671875,32.496588531204885L176.88532376302084,40.73795311872292L177.67936041666667,45.68277187123375L177.75830677083334,48.649663122740236L178.07505494791667,43.34979787364415L178.1542419921875,40.1698787241865L178.4719529296875,38.261927234511916L178.63153046875,37.11715634070717L179.1056899739583,29.350293804424293L179.34445455729167,24.690176282654598L179.66216549479168,21.89410576959278L179.74159322916668,20.216463461755676L179.90044869791666,40.44987807705341L179.978913671875,52.589926846232046L180.13800983072917,59.87395610773923L181.00641972656248,64.24437366464353L181.1638310546875,66.86662419878613L181.79516119791666,68.43997451927167L181.87410755208333,69.383984711563L182.11166868489582,55.79039082693784L184.88562213541667,68.8742344961627L185.59493587239584,69.64454069769762L185.6738822265625,70.10672441861857L186.54542109375,70.38403465117115L187.1006931640625,63.470420790702676L187.1810836588542,59.32225247442158L188.13205026041666,49.75335148465298L188.3700927734375,44.01201089079179L189.08301686197916,54.72720653447508L189.8739245442708,61.156323920685054L190.50862434895834,65.01379435241103L190.58805208333334,67.3282766114466L190.74811100260416,68.71696596686796L190.98639420572917,69.5501795801208L191.46079440104165,70.05010774807248L191.8557668619792,70.35006464884347L191.9356759765625,70.5300387893061L192.25194277343752,70.63802327358364L192.33112981770833,70.70281396415018L192.88832740885417,42.42168837849012L193.60028873697917,39.613013027094055L193.84001608072916,37.92780781625642L194.63284928385417,36.91668468975382L195.41798040364583,36.310010813852266L196.20720325520836,35.94600648831136L197.63666178385418,35.72760389298679L198.18904557291668,35.596562335792086L198.746965234375,42.597937401475235L198.90533932291666,46.79876244088515L199.3802208984375,49.31925746453106L199.53859498697918,50.831554478718644L199.77784095052084,51.73893268723117L199.85654661458332,52.28335961233868L200.332631640625,52.61001576740319L200.650342578125,52.8060094604419L201.51803040364584,45.84360567626516L201.75511015625,41.66616340575912L202.15248951822917,39.159698043455464L203.18143971354166,37.6558188260733L205.0787998046875,29.67349129564396L206.58431640625003,39.044094777386356L206.98073300781252,44.66645686643184L207.06040143229166,48.039874119859086L207.84818014322914,28.823924471915475L208.08814817708333,24.374354683149292L208.48504615885415,21.70461280988955L209.12119010416666,20.102767685933713L209.35899192708334,19.141660611560212L209.9108943359375,32.72499636693612L209.99032207031252,40.87499782016167L210.0692684244792,45.764998692096995L210.2259576822917,48.6989992152582L210.69771028645832,50.45939952915491L211.25057545572915,58.59563971749293L212.35582441406248,63.47738383049577L213.2280853515625,59.32643029829747L213.6237798828125,56.83585817897848L213.9369177083333,55.34151490738708L214.01562337239582,54.444908944432235L214.25246243489585,53.906945366659336L214.33237154947918,53.584167219995585L216.7099083984375,39.23050033199734L216.94650677083334,30.618300199198426L217.2644583984375,25.450980119519095L217.34412682291665,22.350588071711446L217.7395806640625,20.490352843026855L217.8175642578125,19.37421170581613L218.76804947916665,25.7845270234897L219.40274928385418,29.6307162140938L219.56160475260415,39.0184297284563L219.64031041666667,44.65105783707376L220.588148046875,48.030634702244264L221.2228478515625,35.89838082134653L221.853215234375,28.619028492807917L222.25011321614582,31.331417095684756L222.409209375,32.95885025741085L222.64580774739582,41.01531015444649L222.8041818359375,45.849186092667885L222.8838502604167,48.74951165560072L223.43671542968752,50.489706993360436L223.7529822265625,51.53382419601624L223.83289134114585,52.160294517609735L223.91231907552083,52.53617671056584L224.07045247395834,52.76170602633949L224.22906725260418,52.897023615803676L224.62259557291665,45.898214169482245L224.7826544921875,41.69892850168934L225.41687291666668,39.179357101013586L227.55805208333334,58.907614260608156L227.63699843749998,70.7445685563649L227.79585390625,77.84674113381897L228.51190696614583,82.10804468029139L228.59133470052083,84.66482680817484L229.14540332031248,72.03889608490492L229.38103893229166,64.46333765094293L229.4602259765625,59.91800259056578L229.69778710937499,57.190801554339465L230.25209641927083,55.55448093260367L230.41119257812502,40.41268855956217L230.80833125,31.327613135737312L231.7614640625,32.95656788144241L231.83920696614584,33.93394072886546L232.4727033203125,34.52036443731925L232.55189036458333,34.87221866239157L233.10355208333334,35.083331197434966L233.34111321614583,35.20999871846096L233.42030026041667,35.28599923107655L233.49972799479167,35.33159953864591L233.73801119791668,35.358959723187525L235.24497194010416,35.37537583391252L235.87726484375,42.46522550034751L235.95765533854168,46.719135300208485L236.19593854166666,49.27148118012508L236.748081640625,50.80288870807503L236.98443932291667,51.72173322484501L237.143776171875,45.19303993490703L237.38133730468752,27.115823960944223L237.69640065104167,16.269494376566538L238.40763990885418,16.841696625939935L238.88107734374998,45.50501797556396L239.19951035156248,62.70301078533838L239.27869739583332,73.02180647120304L239.59496419270832,79.21308388272186L239.67415123697916,82.92785032963313L239.75357897135416,85.15671019777992L240.15143971354166,86.49402611866793L240.54737493489583,66.05641567120077L240.62535852864585,53.79384940272047L240.94379153645835,46.43630964163227L241.34213365885415,42.02178578497934L241.42276484375,25.21307147098763L241.50050774739583,15.127842882592569L241.7387909505208,9.076705729555565L242.44930813802083,12.52602343773331L242.52729173177082,21.675614062639987L242.60720084635417,27.165368437584L243.00169192708333,30.45922106255042L243.39858990885415,32.43553263753024L243.63663242187502,47.78131958251814L243.87539700520833,56.98879174951088L244.0344931640625,62.513275049706515L244.1926265625,65.8279650298239L244.42826217447916,67.81677901789435L244.98666321614584,61.93006741073661L245.93690774739585,44.238040446441985L246.09624459635415,33.622824267865205L247.11388235677083,41.413694560719115L247.19234733072915,46.08821673643148L248.06533033854166,48.89293004185887L248.85575664062497,50.575758025115306L249.01364934895832,51.58545481506916L249.17106067708335,52.19127288904148L249.6457015625,52.55476373342487L250.1971225911458,45.692858240054896L250.276791015625,41.57571494403293L250.67224485677082,39.10542896641976L250.98803027343752,37.62325737985186L251.06793938802082,36.73395442791114L251.384446875,36.2003726567467L252.41243430989584,50.040223594048015L252.5708083984375,58.34413415642881L252.64975475260417,63.326480493857275L253.36123470052084,66.31588829631436L253.5210529296875,68.10953297778862L253.67966770833334,69.18571978667315L254.31220130208334,34.43143187200388L254.94377213541668,20.65885912320232L255.1818146484375,12.395315473921379L255.2612423828125,7.437189284352824L255.4980814453125,4.462313570611694L255.65597415364584,2.677388142367005L255.7341984375,1.6064328854201988L255.9710375,0.9638597312521272L256.44736321614585,0.5783158387512881L256.76290794270835,0.3469895032507886L256.8423356770833,0.20819370195047315L257.94565911458335,35.52491622117027L258.1812947265625,56.714949732702166L258.41765240885417,69.42896983962132L258.9702768880208,69.9773819037728L259.207356640625,70.30642914226367L259.3664527994792,70.50385748535822L259.84109368489584,70.62231449121495L260.2360661458333,49.45338869472896L260.7119104817708,36.75203321683736L260.86956250000003,29.13121993010239L261.4185766276042,24.558731958061404L261.6556563802083,21.815239174836837L261.81306770833334,20.169143504902106L261.8920140625,19.18148610294124L262.1295751953125,18.58889166176475L262.7625901692708,18.233334997058826L263.47455149739585,25.10000099823531L263.871930859375,29.2200005989412L264.2640150390625,31.692000359364698L264.6597095703125,47.335200215618805L265.68938183593747,56.72112012937129L265.848959375,55.27267207762275L266.63938567708334,33.16360324657368L267.19128808593746,41.138161947944205L267.427405078125,45.922897168766504L267.82430305989584,48.793738301259914L268.53554231770835,50.51624298075593L268.6147293619792,58.62974578845354L269.0847971354167,63.49784747307215L269.5567904296875,66.41870848384329L269.7931481119792,68.17122509030598L270.10965559895834,47.9827350541836L270.1888426432292,35.86964103251015L270.2677889973958,28.601784619506077L270.42664446614583,24.241070771703654L270.7412264322917,21.624642463022166L270.97686204427083,20.054785477813308L271.0558083984375,19.112871286687977L271.37255657552083,25.627722772012806L271.45174361979167,29.5366336632077L271.52972721354166,31.881980197924605L271.9222927734375,33.289188118754765L272.0811482421875,34.133512871252876L272.87085247395834,27.560107722751702L273.4246804036458,23.61606463365103L273.97947109375,21.24963878019063L274.21582877604163,19.829783268114397L275.6375852213542,40.21786996086865L276.03255768229167,52.450721976521194L276.742112109375,59.79043318591272L276.9794325520833,57.11425991154763L277.1385287109375,55.50855594692857L277.69115319010416,54.545133568157134L278.00838274739584,53.96708014089426L278.0878104817708,53.62024808453658L278.71914062499997,53.41214885072194L279.03516673177086,46.207289310433175L279.11387239583337,41.88437358625992L279.350230078125,39.29062415175597L279.5095669270833,37.73437449105359L280.0571369140625,29.720624694632185L280.37244095052085,24.91237481677928L280.6899111979167,22.0274248900676L281.00690006510416,20.296454934040575L281.16334863281253,12.177872960424352L281.6379895182292,7.306723776254608L282.90113118489586,11.46403426575277L283.13797024739586,13.958420559451685L283.37505,15.455052335670993L283.61164837239585,16.353031401402564L283.6908354166667,16.891818840841527L284.08532649739584,10.135091304504945L284.7130462890625,34.40105478270297L285.18624303385417,48.96063286962179L285.42524830729167,57.69637972177307L285.5039539713542,62.93782783306384L286.13335859375,44.842696699838314L286.7656514973958,41.06561801990296L287.7917134114583,45.879370811941776L288.3440972005208,48.76762248716505L288.81657187499997,43.42057349229904L289.21274778645835,40.2123440953794" style="fill: none;" fill="none"></path></g></g></g></g><g opacity="0.2"><g><g><g><path stroke="rgb(51, 187, 238)" stroke-width="2px" d="M24.5453361328125,159.3L25.33311484375,159.3L25.412301888020835,159.3L25.649622330729166,159.3L25.728087304687502,159.3L26.28071178385417,159.3L26.35965813802083,159.3L27.3902931640625,159.3L27.943639713541668,159.3L28.022104687499997,159.3L28.101532421875003,159.3L28.4965048828125,159.3L29.12951985677083,159.3L29.208225520833334,159.3L29.4438611328125,159.3L29.522326106770834,159.3L29.759887239583332,159.3L29.83883359375,159.3L30.31227102864583,159.3L30.707484179687498,159.3L31.263237630208334,159.3L32.05173841145833,159.3L32.36728313802084,159.3L32.684031315104164,159.3L33.787354752604166,159.3L34.10193671875,159.3L34.180161002604166,159.3L34.33877578125,159.3L34.497390559895834,159.3L34.969865234375,159.3L35.602398828125,159.3L35.761254296874995,159.3L35.84116341145833,159.3L36.07992799479167,159.3L36.6313490234375,159.3L36.86915084635417,159.3L37.02656217447917,159.3L37.18469557291666,159.3L37.739726953125,141.6L37.81891399739583,141.6L38.216534049479165,159.3L38.77036197916667,141.6L38.84906764322916,141.6L39.3246712890625,159.3L39.4012107421875,159.3L40.2749158203125,141.6L40.43328990885417,141.6L40.9074494140625,141.6L41.066304882812496,141.6L41.22419759114583,141.6L41.93615891927084,123.89999999999999L42.32824309895833,141.6L43.51195703125,141.6L43.59090338541667,141.6L44.616483919270834,141.6L44.69591165364583,141.6L44.77582076822917,141.6L45.64447135416667,159.3L45.88203248697917,159.3L46.1987806640625,159.3L46.5179357421875,159.3L46.75573756510417,159.3L46.992576627604166,159.3L47.149987955729166,159.3L47.548330078125,123.89999999999999L47.707185546874996,123.89999999999999L47.78685397135416,123.89999999999999L48.58040924479167,159.3L48.89547259114583,141.6L49.212942838541665,141.6L49.370835546875,141.6L49.451226041666665,141.6L49.688546484374996,141.6L50.87394524739584,141.6L51.51057057291666,123.89999999999999L51.5897576171875,123.89999999999999L52.54048352864584,159.3L53.015124414062505,159.3L53.09431145833333,159.3L53.17446126302084,159.3L54.127834765624996,123.89999999999999L54.760609049479164,141.6L55.078801367187495,141.6L55.23861959635417,141.6L55.632629296875,141.6L56.02976796875,141.6L56.18910481770833,141.6L57.064013346354166,123.89999999999999L57.540579752604174,141.6L57.62024817708333,141.6L58.72838541666667,123.89999999999999L58.806850390625,123.89999999999999L58.96402102864583,106.2L59.28100989583333,123.89999999999999L59.36115970052084,123.89999999999999L59.52049654947917,123.89999999999999L59.99850709635417,141.6L60.31718079427083,141.6L60.71504153645833,141.6L61.033955924479166,141.6L61.271276367187504,123.89999999999999L61.4301318359375,123.89999999999999L61.74856484375,123.89999999999999L61.82462291666667,123.89999999999999L62.223446419270836,123.89999999999999L62.303355533854166,123.89999999999999L62.780403320312494,123.89999999999999L62.93853671875,123.89999999999999L63.33326848958333,141.6L64.60555638020833,123.89999999999999L64.765374609375,123.89999999999999L64.8455244140625,123.89999999999999L64.92567421875,123.89999999999999L65.16347604166667,141.6L65.32305358072917,141.6L66.43817083333333,141.6L66.51832063802084,141.6L66.67789817708334,141.6L66.83747571614583,141.6L66.99681256510416,141.6L67.3164490234375,123.89999999999999L67.4760265625,106.2L67.7959037109375,123.89999999999999L67.95211158854167,123.89999999999999L68.27126666666666,141.6L68.74807376302084,141.6L68.90692923177083,141.6L69.22656569010417,106.2L70.50029772135417,141.6L70.57972545572916,141.6L70.81776796875,141.6L70.97710481770834,141.6L71.05653255208333,141.6L71.29481575520833,123.89999999999999L71.45006087239584,123.89999999999999L72.4056005859375,141.6L72.80225787760418,141.6L72.88192630208333,141.6L73.51710748697917,141.6L73.59533177083334,141.6L73.99198906250001,141.6L74.07189817708333,141.6L74.3898498046875,141.6L74.70563522135417,141.6L75.18172024739584,123.89999999999999L75.26187005208334,123.89999999999999L75.65804596354167,123.89999999999999L75.81690143229167,123.89999999999999L76.3726548828125,141.6L76.53102897135416,141.6L77.08918932291667,123.89999999999999L77.72196360677084,106.2L77.80090996093749,106.2L78.43825735677083,123.89999999999999L79.07560475260416,123.89999999999999L79.23421953125,123.89999999999999L80.50747018229166,123.89999999999999L81.37828697916667,106.2L81.53786451822916,159.3L81.69696067708333,159.3L81.77686979166667,159.3L81.9354845703125,159.3L82.01515299479166,159.3L82.17112018229167,159.3L82.25126998697917,159.3L82.33093841145833,159.3L82.72928053385418,123.89999999999999L83.20680970052082,123.89999999999999L84.798493359375,123.89999999999999L85.43415592447916,106.2L85.6743646484375,106.2L85.75499583333333,106.2L85.9126478515625,106.2L86.07198470052084,106.2L86.231080859375,106.2L86.70812864583334,106.2L87.97800963541667,141.6L88.05671529947917,141.6L88.21677421874999,141.6L88.455057421875,141.6L89.08951653645833,88.5L89.16942565104166,88.5L89.88451595052084,123.89999999999999L90.20343033854168,123.89999999999999L90.83548255208333,123.89999999999999L91.07496920572918,123.89999999999999L91.23550950520834,123.89999999999999L92.18840162760418,123.89999999999999L92.42668483072916,106.2L92.58554029947916,106.2L92.90276985677085,106.2L93.2994271484375,106.2L94.3334318359375,123.89999999999999L94.49132454427084,123.89999999999999L94.96909440104166,123.89999999999999L95.20761829427083,106.2L95.36767721354165,106.2L95.68707298177084,106.2L95.76650071614584,106.2L96.2440298828125,123.89999999999999L97.83595423177083,106.2L97.995050390625,106.2L98.1546279296875,106.2L98.952515625,106.2L99.50899114583333,88.5L99.982187890625,88.5L100.61857252604166,88.5L101.885565234375,88.5L102.1231263671875,88.5L102.4393931640625,88.5L102.91692233072916,106.2L103.07409296875001,106.2L103.47171302083333,106.2L103.71192174479167,106.2L103.79086809895834,106.2L103.86981445312499,106.2L104.74279746093751,106.2L105.29879160156251,106.2L105.61602115885417,106.2L105.7746359375,106.2L106.40933574218751,123.89999999999999L106.48900416666666,123.89999999999999L107.99837180989584,106.2L108.31656412760418,106.2L109.11060078125,106.2L109.1907505859375,106.2L109.35056881510417,106.2L109.66539147135416,106.2L110.38072246093749,141.6L111.32831940104167,141.6L111.64506757812501,141.6L111.80440442708333,88.5L112.04196555989583,88.5L112.20082102864583,70.8L112.35799166666666,106.2L113.1491400390625,106.2L113.22856777343749,106.2L113.46612890624999,106.2L113.54435319010416,106.2L113.78191432291666,88.5L114.02116028645834,106.2L114.18073782552082,106.2L114.57571028645833,106.2L115.13146373697917,106.2L115.5276396484375,88.5L115.607789453125,106.2L116.40062265625,106.2L116.5602001953125,106.2L117.35110787760416,88.5L117.50924127604166,88.5L117.58915039062501,88.5L118.14225625,88.5L118.53843216145833,106.2L118.85229205729168,106.2L118.9314791015625,106.2L119.88220501302084,106.2L120.51618274739583,106.2L120.83293092447916,106.2L121.23006959635417,106.2L121.38916575520834,106.2L121.704951171875,106.2L122.89588580729166,70.8L123.05305644531249,70.8L123.37100807291667,70.8L123.44899166666666,70.8L123.5281787109375,70.8L123.68727486979166,70.8L123.9245953125,70.8L124.24158417968751,70.8L124.71839127604167,53.10000000000001L125.03345462239584,88.5L125.43059329427084,88.5L125.904512109375,88.5L126.14231393229167,88.5L126.53897122395834,88.5L126.77508821614583,88.5L127.1703013671875,88.5L127.24876634114584,88.5L127.48608678385418,70.8L127.80283496093749,70.8L128.51407421875,70.8L129.06910559895834,88.5L129.30811087239582,88.5L129.3870572265625,88.5L130.0961302734375,70.8L130.88848209635418,123.89999999999999L131.12604322916667,123.89999999999999L131.6038130859375,123.89999999999999L132.07869466145834,53.10000000000001L132.39568352864583,106.2L133.26842584635418,106.2L133.34833496093748,106.2L133.66556451822916,70.8L134.14140885416666,70.8L134.45911979166667,70.8L134.6986064453125,88.5L136.602705859375,70.8L138.1038900390625,88.5L138.26130136718749,88.5L138.34121048177082,88.5L138.42063821614585,88.5L139.1321181640625,88.5L139.76705865885418,88.5L139.84672708333332,88.5L140.00486048177083,70.8L140.08332545572918,70.8L141.11757083333333,70.8L141.27714837239583,70.8L142.14652102864585,106.2L142.38600768229168,106.2L142.70540345052083,106.2L143.0219109375,88.5L143.34082532552085,88.5L143.89441256510415,53.10000000000001L143.97408098958334,53.10000000000001L144.05423079427084,53.10000000000001L144.21308626302084,53.10000000000001L144.4508880859375,53.10000000000001L145.4011326171875,35.39999999999999L145.8760141927083,70.8L146.11429739583335,70.8L146.19348444010416,70.8L146.9896873046875,70.8L147.2279705078125,17.699999999999996L148.09758385416666,35.39999999999999L148.33514498697917,35.39999999999999L148.57366888020832,53.10000000000001L148.97056686197917,53.10000000000001L149.20981282552083,53.10000000000001L149.92394036458333,53.10000000000001L150.79908958333334,35.39999999999999L151.19743170572917,53.10000000000001L151.3572499348958,70.8L153.26038658854168,88.5L153.89460501302082,88.5L154.05105358072916,88.5L154.28933678385414,88.5L154.7656625,53.10000000000001L154.8458123046875,53.10000000000001L155.4003623046875,53.10000000000001L156.03626555989584,53.10000000000001L156.35493925781248,35.39999999999999L156.6721688151042,35.39999999999999L156.98626940104165,70.8L157.22383053385417,70.8L157.3829266927083,70.8L157.86165930989586,70.8L158.0200333984375,70.8L158.57530546875,88.5L159.20928320312498,106.2L159.36717591145833,106.2L159.60449635416668,106.2L159.76431458333334,106.2L159.84350162760418,106.2L159.92365143229165,106.2L160.47964557291667,106.2L160.7971158203125,88.5L160.87678424479168,88.5L161.43229700520834,88.5L162.06627473958335,53.10000000000001L162.14618385416665,53.10000000000001L162.46196927083335,53.10000000000001L162.61986197916667,53.10000000000001L163.33350813802085,53.10000000000001L164.20480631510418,53.10000000000001L164.997398828125,70.8L165.15721705729166,70.8L165.7129705078125,70.8L165.79287962239582,70.8L166.1101091796875,53.10000000000001L166.34526341145832,53.10000000000001L166.6617708984375,35.39999999999999L166.97611217447917,35.39999999999999L168.47681497395834,53.10000000000001L168.79260039062498,53.10000000000001L169.10982994791667,70.8L169.34690970052083,70.8L169.82251334635416,70.8L169.98064674479167,70.8L170.69501497395834,35.39999999999999L171.01128177083334,35.39999999999999L171.72613138020833,35.39999999999999L172.12327005208334,70.8L172.20269778645834,70.8L172.28212552083335,70.8L173.55128444010415,53.10000000000001L173.95010794270834,53.10000000000001L174.50586139322917,53.10000000000001L174.82549785156252,17.699999999999996L175.06329967447917,17.699999999999996L175.53938470052083,17.699999999999996L175.61809036458334,17.699999999999996L175.6977587890625,17.699999999999996L175.93291302083335,17.699999999999996L176.32764479166667,17.699999999999996L176.80613671875,53.10000000000001L176.88532376302084,53.10000000000001L177.67936041666667,53.10000000000001L177.75830677083334,53.10000000000001L178.07505494791667,35.39999999999999L178.1542419921875,35.39999999999999L178.4719529296875,35.39999999999999L178.63153046875,35.39999999999999L179.1056899739583,17.699999999999996L179.34445455729167,17.699999999999996L179.66216549479168,17.699999999999996L179.74159322916668,17.699999999999996L179.90044869791666,70.8L179.978913671875,70.8L180.13800983072917,70.8L181.00641972656248,70.8L181.1638310546875,70.8L181.79516119791666,70.8L181.87410755208333,70.8L182.11166868489582,35.39999999999999L184.88562213541667,88.5L185.59493587239584,70.8L185.6738822265625,70.8L186.54542109375,70.8L187.1006931640625,53.10000000000001L187.1810836588542,53.10000000000001L188.13205026041666,35.39999999999999L188.3700927734375,35.39999999999999L189.08301686197916,70.8L189.8739245442708,70.8L190.50862434895834,70.8L190.58805208333334,70.8L190.74811100260416,70.8L190.98639420572917,70.8L191.46079440104165,70.8L191.8557668619792,70.8L191.9356759765625,70.8L192.25194277343752,70.8L192.33112981770833,70.8L192.88832740885417,0L193.60028873697917,35.39999999999999L193.84001608072916,35.39999999999999L194.63284928385417,35.39999999999999L195.41798040364583,35.39999999999999L196.20720325520836,35.39999999999999L197.63666178385418,35.39999999999999L198.18904557291668,35.39999999999999L198.746965234375,53.10000000000001L198.90533932291666,53.10000000000001L199.3802208984375,53.10000000000001L199.53859498697918,53.10000000000001L199.77784095052084,53.10000000000001L199.85654661458332,53.10000000000001L200.332631640625,53.10000000000001L200.650342578125,53.10000000000001L201.51803040364584,35.39999999999999L201.75511015625,35.39999999999999L202.15248951822917,35.39999999999999L203.18143971354166,35.39999999999999L205.0787998046875,17.699999999999996L206.58431640625003,53.10000000000001L206.98073300781252,53.10000000000001L207.06040143229166,53.10000000000001L207.84818014322914,0L208.08814817708333,17.699999999999996L208.48504615885415,17.699999999999996L209.12119010416666,17.699999999999996L209.35899192708334,17.699999999999996L209.9108943359375,53.10000000000001L209.99032207031252,53.10000000000001L210.0692684244792,53.10000000000001L210.2259576822917,53.10000000000001L210.69771028645832,53.10000000000001L211.25057545572915,70.8L212.35582441406248,70.8L213.2280853515625,53.10000000000001L213.6237798828125,53.10000000000001L213.9369177083333,53.10000000000001L214.01562337239582,53.10000000000001L214.25246243489585,53.10000000000001L214.33237154947918,53.10000000000001L216.7099083984375,17.699999999999996L216.94650677083334,17.699999999999996L217.2644583984375,17.699999999999996L217.34412682291665,17.699999999999996L217.7395806640625,17.699999999999996L217.8175642578125,17.699999999999996L218.76804947916665,35.39999999999999L219.40274928385418,35.39999999999999L219.56160475260415,53.10000000000001L219.64031041666667,53.10000000000001L220.588148046875,53.10000000000001L221.2228478515625,17.699999999999996L221.853215234375,17.699999999999996L222.25011321614582,35.39999999999999L222.409209375,35.39999999999999L222.64580774739582,53.10000000000001L222.8041818359375,53.10000000000001L222.8838502604167,53.10000000000001L223.43671542968752,53.10000000000001L223.7529822265625,53.10000000000001L223.83289134114585,53.10000000000001L223.91231907552083,53.10000000000001L224.07045247395834,53.10000000000001L224.22906725260418,53.10000000000001L224.62259557291665,35.39999999999999L224.7826544921875,35.39999999999999L225.41687291666668,35.39999999999999L227.55805208333334,88.5L227.63699843749998,88.5L227.79585390625,88.5L228.51190696614583,88.5L228.59133470052083,88.5L229.14540332031248,53.10000000000001L229.38103893229166,53.10000000000001L229.4602259765625,53.10000000000001L229.69778710937499,53.10000000000001L230.25209641927083,53.10000000000001L230.41119257812502,17.699999999999996L230.80833125,17.699999999999996L231.7614640625,35.39999999999999L231.83920696614584,35.39999999999999L232.4727033203125,35.39999999999999L232.55189036458333,35.39999999999999L233.10355208333334,35.39999999999999L233.34111321614583,35.39999999999999L233.42030026041667,35.39999999999999L233.49972799479167,35.39999999999999L233.73801119791668,35.39999999999999L235.24497194010416,35.39999999999999L235.87726484375,53.10000000000001L235.95765533854168,53.10000000000001L236.19593854166666,53.10000000000001L236.748081640625,53.10000000000001L236.98443932291667,53.10000000000001L237.143776171875,35.39999999999999L237.38133730468752,0L237.69640065104167,0L238.40763990885418,17.699999999999996L238.88107734374998,88.5L239.19951035156248,88.5L239.27869739583332,88.5L239.59496419270832,88.5L239.67415123697916,88.5L239.75357897135416,88.5L240.15143971354166,88.5L240.54737493489583,35.39999999999999L240.62535852864585,35.39999999999999L240.94379153645835,35.39999999999999L241.34213365885415,35.39999999999999L241.42276484375,0L241.50050774739583,0L241.7387909505208,0L242.44930813802083,17.699999999999996L242.52729173177082,35.39999999999999L242.60720084635417,35.39999999999999L243.00169192708333,35.39999999999999L243.39858990885415,35.39999999999999L243.63663242187502,70.8L243.87539700520833,70.8L244.0344931640625,70.8L244.1926265625,70.8L244.42826217447916,70.8L244.98666321614584,53.10000000000001L245.93690774739585,17.699999999999996L246.09624459635415,17.699999999999996L247.11388235677083,53.10000000000001L247.19234733072915,53.10000000000001L248.06533033854166,53.10000000000001L248.85575664062497,53.10000000000001L249.01364934895832,53.10000000000001L249.17106067708335,53.10000000000001L249.6457015625,53.10000000000001L250.1971225911458,35.39999999999999L250.276791015625,35.39999999999999L250.67224485677082,35.39999999999999L250.98803027343752,35.39999999999999L251.06793938802082,35.39999999999999L251.384446875,35.39999999999999L252.41243430989584,70.8L252.5708083984375,70.8L252.64975475260417,70.8L253.36123470052084,70.8L253.5210529296875,70.8L253.67966770833334,70.8L254.31220130208334,-17.700000000000017L254.94377213541668,0L255.1818146484375,0L255.2612423828125,0L255.4980814453125,0L255.65597415364584,0L255.7341984375,0L255.9710375,0L256.44736321614585,0L256.76290794270835,0L256.8423356770833,0L257.94565911458335,88.5L258.1812947265625,88.5L258.41765240885417,88.5L258.9702768880208,70.8L259.207356640625,70.8L259.3664527994792,70.8L259.84109368489584,70.8L260.2360661458333,17.699999999999996L260.7119104817708,17.699999999999996L260.86956250000003,17.699999999999996L261.4185766276042,17.699999999999996L261.6556563802083,17.699999999999996L261.81306770833334,17.699999999999996L261.8920140625,17.699999999999996L262.1295751953125,17.699999999999996L262.7625901692708,17.699999999999996L263.47455149739585,35.39999999999999L263.871930859375,35.39999999999999L264.2640150390625,35.39999999999999L264.6597095703125,70.8L265.68938183593747,70.8L265.848959375,53.10000000000001L266.63938567708334,0L267.19128808593746,53.10000000000001L267.427405078125,53.10000000000001L267.82430305989584,53.10000000000001L268.53554231770835,53.10000000000001L268.6147293619792,70.8L269.0847971354167,70.8L269.5567904296875,70.8L269.7931481119792,70.8L270.10965559895834,17.699999999999996L270.1888426432292,17.699999999999996L270.2677889973958,17.699999999999996L270.42664446614583,17.699999999999996L270.7412264322917,17.699999999999996L270.97686204427083,17.699999999999996L271.0558083984375,17.699999999999996L271.37255657552083,35.39999999999999L271.45174361979167,35.39999999999999L271.52972721354166,35.39999999999999L271.9222927734375,35.39999999999999L272.0811482421875,35.39999999999999L272.87085247395834,17.699999999999996L273.4246804036458,17.699999999999996L273.97947109375,17.699999999999996L274.21582877604163,17.699999999999996L275.6375852213542,70.8L276.03255768229167,70.8L276.742112109375,70.8L276.9794325520833,53.10000000000001L277.1385287109375,53.10000000000001L277.69115319010416,53.10000000000001L278.00838274739584,53.10000000000001L278.0878104817708,53.10000000000001L278.71914062499997,53.10000000000001L279.03516673177086,35.39999999999999L279.11387239583337,35.39999999999999L279.350230078125,35.39999999999999L279.5095669270833,35.39999999999999L280.0571369140625,17.699999999999996L280.37244095052085,17.699999999999996L280.6899111979167,17.699999999999996L281.00690006510416,17.699999999999996L281.16334863281253,0L281.6379895182292,0L282.90113118489586,17.699999999999996L283.13797024739586,17.699999999999996L283.37505,17.699999999999996L283.61164837239585,17.699999999999996L283.6908354166667,17.699999999999996L284.08532649739584,0L284.7130462890625,70.8L285.18624303385417,70.8L285.42524830729167,70.8L285.5039539713542,70.8L286.13335859375,17.699999999999996L286.7656514973958,35.39999999999999L287.7917134114583,53.10000000000001L288.3440972005208,53.10000000000001L288.81657187499997,35.39999999999999L289.21274778645835,35.39999999999999" style="fill: none;" fill="none"></path></g></g></g></g></g></g><g transform="translate(41, 177)" clip-path="url(#clip_1)"><clipPath id="clip_1"><rect width="288" height="23"></rect></clipPath><g><g><line x1="0" y1="0" x2="0" y2="5" style="visibility: inherit;" fill="rgb(0, 0, 0)" stroke="rgb(204, 204, 204)" stroke-width="1px"></line><line x1="24.069010416666664" y1="0" x2="24.069010416666664" y2="5" style="visibility: inherit;" fill="rgb(0, 0, 0)" stroke="rgb(204, 204, 204)" stroke-width="1px"></line><line x1="48.13802083333333" y1="0" x2="48.13802083333333" y2="5" style="visibility: inherit;" fill="rgb(0, 0, 0)" stroke="rgb(204, 204, 204)" stroke-width="1px"></line><line x1="72.20703125" y1="0" x2="72.20703125" y2="5" style="visibility: inherit;" fill="rgb(0, 0, 0)" stroke="rgb(204, 204, 204)" stroke-width="1px"></line><line x1="96.27604166666666" y1="0" x2="96.27604166666666" y2="5" style="visibility: inherit;" fill="rgb(0, 0, 0)" stroke="rgb(204, 204, 204)" stroke-width="1px"></line><line x1="120.34505208333334" y1="0" x2="120.34505208333334" y2="5" style="visibility: inherit;" fill="rgb(0, 0, 0)" stroke="rgb(204, 204, 204)" stroke-width="1px"></line><line x1="144.4140625" y1="0" x2="144.4140625" y2="5" style="visibility: inherit;" fill="rgb(0, 0, 0)" stroke="rgb(204, 204, 204)" stroke-width="1px"></line><line x1="168.48307291666669" y1="0" x2="168.48307291666669" y2="5" style="visibility: inherit;" fill="rgb(0, 0, 0)" stroke="rgb(204, 204, 204)" stroke-width="1px"></line><line x1="192.55208333333331" y1="0" x2="192.55208333333331" y2="5" style="visibility: inherit;" fill="rgb(0, 0, 0)" stroke="rgb(204, 204, 204)" stroke-width="1px"></line><line x1="216.62109375" y1="0" x2="216.62109375" y2="5" style="visibility: inherit;" fill="rgb(0, 0, 0)" stroke="rgb(204, 204, 204)" stroke-width="1px"></line><line x1="240.69010416666669" y1="0" x2="240.69010416666669" y2="5" style="visibility: inherit;" fill="rgb(0, 0, 0)" stroke="rgb(204, 204, 204)" stroke-width="1px"></line><line x1="264.7591145833333" y1="0" x2="264.7591145833333" y2="5" style="visibility: inherit;" fill="rgb(0, 0, 0)" stroke="rgb(204, 204, 204)" stroke-width="1px"></line><line x1="288.828125" y1="0" x2="288.828125" y2="5" style="visibility: inherit;" fill="rgb(0, 0, 0)" stroke="rgb(204, 204, 204)" stroke-width="1px"></line></g><g transform="translate(0, 8)"><text x="0" y="0" dx="0em" dy="0.95em" style="text-anchor: middle; visibility: hidden; font-family: Roboto, sans-serif; font-size: 12px; font-weight: 200;" fill="rgb(33, 33, 33)" stroke="none" stroke-width="1px">-10M</text><text x="24.069010416666664" y="0" dx="0em" dy="0.95em" style="text-anchor: middle; visibility: inherit; font-family: Roboto, sans-serif; font-size: 12px; font-weight: 200;" fill="rgb(33, 33, 33)" stroke="none" stroke-width="1px">0</text><text x="48.13802083333333" y="0" dx="0em" dy="0.95em" style="text-anchor: middle; visibility: hidden; font-family: Roboto, sans-serif; font-size: 12px; font-weight: 200;" fill="rgb(33, 33, 33)" stroke="none" stroke-width="1px">10M</text><text x="72.20703125" y="0" dx="0em" dy="0.95em" style="text-anchor: middle; visibility: inherit; font-family: Roboto, sans-serif; font-size: 12px; font-weight: 200;" fill="rgb(33, 33, 33)" stroke="none" stroke-width="1px">20M</text><text x="96.27604166666666" y="0" dx="0em" dy="0.95em" style="text-anchor: middle; visibility: hidden; font-family: Roboto, sans-serif; font-size: 12px; font-weight: 200;" fill="rgb(33, 33, 33)" stroke="none" stroke-width="1px">30M</text><text x="120.34505208333334" y="0" dx="0em" dy="0.95em" style="text-anchor: middle; visibility: inherit; font-family: Roboto, sans-serif; font-size: 12px; font-weight: 200;" fill="rgb(33, 33, 33)" stroke="none" stroke-width="1px">40M</text><text x="144.4140625" y="0" dx="0em" dy="0.95em" style="text-anchor: middle; visibility: hidden; font-family: Roboto, sans-serif; font-size: 12px; font-weight: 200;" fill="rgb(33, 33, 33)" stroke="none" stroke-width="1px">50M</text><text x="168.48307291666669" y="0" dx="0em" dy="0.95em" style="text-anchor: middle; visibility: inherit; font-family: Roboto, sans-serif; font-size: 12px; font-weight: 200;" fill="rgb(33, 33, 33)" stroke="none" stroke-width="1px">60M</text><text x="192.55208333333331" y="0" dx="0em" dy="0.95em" style="text-anchor: middle; visibility: hidden; font-family: Roboto, sans-serif; font-size: 12px; font-weight: 200;" fill="rgb(33, 33, 33)" stroke="none" stroke-width="1px">70M</text><text x="216.62109375" y="0" dx="0em" dy="0.95em" style="text-anchor: middle; visibility: inherit; font-family: Roboto, sans-serif; font-size: 12px; font-weight: 200;" fill="rgb(33, 33, 33)" stroke="none" stroke-width="1px">80M</text><text x="240.69010416666669" y="0" dx="0em" dy="0.95em" style="text-anchor: middle; visibility: hidden; font-family: Roboto, sans-serif; font-size: 12px; font-weight: 200;" fill="rgb(33, 33, 33)" stroke="none" stroke-width="1px">90M</text><text x="264.7591145833333" y="0" dx="0em" dy="0.95em" style="text-anchor: middle; visibility: inherit; font-family: Roboto, sans-serif; font-size: 12px; font-weight: 200;" fill="rgb(33, 33, 33)" stroke="none" stroke-width="1px">100M</text><text x="288.828125" y="0" dx="0em" dy="0.95em" style="text-anchor: middle; visibility: hidden; font-family: Roboto, sans-serif; font-size: 12px; font-weight: 200;" fill="rgb(33, 33, 33)" stroke="none" stroke-width="1px">110M</text></g><line x1="0" y1="0" x2="288.828125" y2="0" fill="rgb(0, 0, 0)" stroke="rgb(204, 204, 204)" stroke-width="1px"></line></g></g></g></g></svg>