<svg viewBox="0 0 330 200" xmlns="http://www.w3.org/2000/svg"><g><g><g><g><g><line x1="41.171875" y1="177" x2="36.171875" y2="177" style="visibility: inherit;" fill="rgb(0, 0, 0)" stroke="rgb(204, 204, 204)" stroke-width="1px"></line><line x1="41.171875" y1="164.35714285714286" x2="36.171875" y2="164.35714285714286" style="visibility: inherit;" fill="rgb(0, 0, 0)" stroke="rgb(204, 204, 204)" stroke-width="1px"></line><line x1="41.171875" y1="151.71428571428572" x2="36.171875" y2="151.71428571428572" style="visibility: inherit;" fill="rgb(0, 0, 0)" stroke="rgb(204, 204, 204)" stroke-width="1px"></line><line x1="41.171875" y1="139.07142857142856" x2="36.171875" y2="139.07142857142856" style="visibility: inherit;" fill="rgb(0, 0, 0)" stroke="rgb(204, 204, 204)" stroke-width="1px"></line><line x1="41.171875" y1="126.42857142857143" x2="36.171875" y2="126.42857142857143" style="visibility: inherit;" fill="rgb(0, 0, 0)" stroke="rgb(204, 204, 204)" stroke-width="1px"></line><line x1="41.171875" y1="113.78571428571428" x2="36.171875" y2="113.78571428571428" style="visibility: inherit;" fill="rgb(0, 0, 0)" stroke="rgb(204, 204, 204)" stroke-width="1px"></line><line x1="41.171875" y1="101.14285714285714" x2="36.171875" y2="101.14285714285714" style="visibility: inherit;" fill="rgb(0, 0, 0)" stroke="rgb(204, 204, 204)" stroke-width="1px"></line><line x1="41.171875" y1="88.5" x2="36.171875" y2="88.5" style="visibility: inherit;" fill="rgb(0, 0, 0)" stroke="rgb(204, 204, 204)" stroke-width="1px"></line><line x1="41.171875" y1="75.85714285714286" x2="36.171875" y2="75.85714285714286" style="visibility: inherit;" fill="rgb(0, 0, 0)" stroke="rgb(204, 204, 204)" stroke-width="1px"></line><line x1="41.171875" y1="63.21428571428571" x2="36.171875" y2="63.21428571428571" style="visibility: inherit;" fill="rgb(0, 0, 0)" stroke="rgb(204, 204, 204)" stroke-width="1px"></line><line x1="41.171875" y1="50.57142857142857" x2="36.171875" y2="50.57142857142857" style="visibility: inherit;" fill="rgb(0, 0, 0)" stroke="rgb(204, 204, 204)" stroke-width="1px"></line><line x1="41.171875" y1="37.92857142857143" x2="36.171875" y2="37.92857142857143" style="visibility: inherit;" fill="rgb(0, 0, 0)" stroke="rgb(204, 204, 204)" stroke-width="1px"></line><line x1="41.171875" y1="25.285714285714295" x2="36.171875" y2="25.285714285714295" style="visibility: inherit;" fill="rgb(0, 0, 0)" stroke="rgb(204, 204, 204)" stroke-width="1px"></line><line x1="41.171875" y1="12.642857142857137" x2="36.171875" y2="12.642857142857137" style="visibility: inherit;" fill="rgb(0, 0, 0)" stroke="rgb(204, 204, 204)" stroke-width="1px"></line><line x1="41.171875" y1="0" x2="36.171875" y2="0" style="visibility: inherit;" fill="rgb(0, 0, 0)" stroke="rgb(204, 204, 204)" stroke-width="1px"></line></g><g transform="translate(31.171875, 0)"><text x="0" y="177" dx="0em" dy="0.3em" style="text-anchor: end; visibility: hidden; font-family: Roboto, sans-serif; font-size: 12px; font-weight: 200;" fill="rgb(33, 33, 33)" stroke="none" stroke-width="1px">-14</text><text x="0" y="164.35714285714286" dx="0em" dy="0.3em" style="text-anchor: end; visibility: inherit; font-family: Roboto, sans-serif; font-size: 12px; font-weight: 200;" fill="rgb(33, 33, 33)" stroke="none" stroke-width="1px">-12</text><text x="0" y="151.71428571428572" dx="0em" dy="0.3em" style="text-anchor: end; visibility: hidden; font-family: Roboto, sans-serif; font-size: 12px; font-weight: 200;" fill="rgb(33, 33, 33)" stroke="none" stroke-width="1px">-10</text><text x="0" y="139.07142857142856" dx="0em" dy="0.3em" style="text-anchor: end; visibility: inherit; font-family: Roboto, sans-serif; font-size: 12px; font-weight: 200;" fill="rgb(33, 33, 33)" stroke="none" stroke-width="1px">-8</text><text x="0" y="126.42857142857143" dx="0em" dy="0.3em" style="text-anchor: end; visibility: hidden; font-family: Roboto, sans-serif; font-size: 12px; font-weight: 200;" fill="rgb(33, 33, 33)" stroke="none" stroke-width="1px">-6</text><text x="0" y="113.78571428571428" dx="0em" dy="0.3em" style="text-anchor: end; visibility: inherit; font-family: Roboto, sans-serif; font-size: 12px; font-weight: 200;" fill="rgb(33, 33, 33)" stroke="none" stroke-width="1px">-4</text><text x="0" y="101.14285714285714" dx="0em" dy="0.3em" style="text-anchor: end; visibility: hidden; font-family: Roboto, sans-serif; font-size: 12px; font-weight: 200;" fill="rgb(33, 33, 33)" stroke="none" stroke-width="1px">-2</text><text x="0" y="88.5" dx="0em" dy="0.3em" style="text-anchor: end; visibility: inherit; font-family: Roboto, sans-serif; font-size: 12px; font-weight: 200;" fill="rgb(33, 33, 33)" stroke="none" stroke-width="1px">0</text><text x="0" y="75.85714285714286" dx="0em" dy="0.3em" style="text-anchor: end; visibility: hidden; font-family: Roboto, sans-serif; font-size: 12px; font-weight: 200;" fill="rgb(33, 33, 33)" stroke="none" stroke-width="1px">2</text><text x="0" y="63.21428571428571" dx="0em" dy="0.3em" style="text-anchor: end; visibility: inherit; font-family: Roboto, sans-serif; font-size: 12px; font-weight: 200;" fill="rgb(33, 33, 33)" stroke="none" stroke-width="1px">4</text><text x="0" y="50.57142857142857" dx="0em" dy="0.3em" style="text-anchor: end; visibility: hidden; font-family: Roboto, sans-serif; font-size: 12px; font-weight: 200;" fill="rgb(33, 33, 33)" stroke="none" stroke-width="1px">6</text><text x="0" y="37.92857142857143" dx="0em" dy="0.3em" style="text-anchor: end; visibility: inherit; font-family: Roboto, sans-serif; font-size: 12px; font-weight: 200;" fill="rgb(33, 33, 33)" stroke="none" stroke-width="1px">8</text><text x="0" y="25.285714285714295" dx="0em" dy="0.3em" style="text-anchor: end; visibility: hidden; font-family: Roboto, sans-serif; font-size: 12px; font-weight: 200;" fill="rgb(33, 33, 33)" stroke="none" stroke-width="1px">10</text><text x="0" y="12.642857142857137" dx="0em" dy="0.3em" style="text-anchor: end; visibility: inherit; font-family: Roboto, sans-serif; font-size: 12px; font-weight: 200;" fill="rgb(33, 33, 33)" stroke="none" stroke-width="1px">12</text><text x="0" y="0" dx="0em" dy="0.3em" style="text-anchor: end; visibility: hidden; font-family: Roboto, sans-serif; font-size: 12px; font-weight: 200;" fill="rgb(33, 33, 33)" stroke="none" stroke-width="1px">14</text></g><line x1="41.171875" y1="0" x2="41.171875" y2="177" fill="rgb(0, 0, 0)" stroke="rgb(204, 204, 204)" stroke-width="1px"></line></g></g><g transform="translate(41, 0)" clip-path="url(#clip_0)"><clipPath id="clip_0"><rect width="288" height="177"></rect></clipPath><g><g><g><line x1="0" y1="0" x2="0" y2="177" fill="rgb(0, 0, 0)" stroke="rgb(66, 66, 66)" stroke-width="1px" opacity="0.25"></line><line x1="24.069010416666664" y1="0" x2="24.069010416666664" y2="177" fill="rgb(0, 0, 0)" stroke="rgb(66, 66, 66)" stroke-width="1px" opacity="0.25"></line><line x1="48.13802083333333" y1="0" x2="48.13802083333333" y2="177" fill="rgb(0, 0, 0)" stroke="rgb(66, 66, 66)" stroke-width="1px" opacity="0.25"></line><line x1="72.20703125" y1="0" x2="72.20703125" y2="177" fill="rgb(0, 0, 0)" stroke="rgb(66, 66, 66)" stroke-width="1px" opacity="0.25"></line><line x1="96.27604166666666" y1="0" x2="96.27604166666666" y2="177" fill="rgb(0, 0, 0)" stroke="rgb(66, 66, 66)" stroke-width="1px" opacity="0.25"></line><line x1="120.34505208333334" y1="0" x2="120.34505208333334" y2="177" fill="rgb(0, 0, 0)" stroke="rgb(66, 66, 66)" stroke-width="1px" opacity="0.25"></line><line x1="144.4140625" y1="0" x2="144.4140625" y2="177" fill="rgb(0, 0, 0)" stroke="rgb(66, 66, 66)" stroke-width="1px" opacity="0.25"></line><line x1="168.48307291666669" y1="0" x2="168.48307291666669" y2="177" fill="rgb(0, 0, 0)" stroke="rgb(66, 66, 66)" stroke-width="1px" opacity="0.25"></line><line x1="192.55208333333331" y1="0" x2="192.55208333333331" y2="177" fill="rgb(0, 0, 0)" stroke="rgb(66, 66, 66)" stroke-width="1px" opacity="0.25"></line><line x1="216.62109375" y1="0" x2="216.62109375" y2="177" fill="rgb(0, 0, 0)" stroke="rgb(66, 66, 66)" stroke-width="1px" opacity="0.25"></line><line x1="240.69010416666669" y1="0" x2="240.69010416666669" y2="177" fill="rgb(0, 0, 0)" stroke="rgb(66, 66, 66)" stroke-width="1px" opacity="0.25"></line><line x1="264.7591145833333" y1="0" x2="264.7591145833333" y2="177" fill="rgb(0, 0, 0)" stroke="rgb(66, 66, 66)" stroke-width="1px" opacity="0.25"></line><line x1="288.828125" y1="0" x2="288.828125" y2="177" fill="rgb(0, 0, 0)" stroke="rgb(66, 66, 66)" stroke-width="1px" opacity="0.25"></line></g><g><line x1="0" y1="177" x2="288.828125" y2="177" fill="rgb(0, 0, 0)" stroke="rgb(66, 66, 66)" stroke-width="1px" opacity="0.25"></line><line x1="0" y1="164.35714285714286" x2="288.828125" y2="164.35714285714286" fill="rgb(0, 0, 0)" stroke="rgb(66, 66, 66)" stroke-width="1px" opacity="0.25"></line><line x1="0" y1="151.71428571428572" x2="288.828125" y2="151.71428571428572" fill="rgb(0, 0, 0)" stroke="rgb(66, 66, 66)" stroke-width="1px" opacity="0.25"></line><line x1="0" y1="139.07142857142856" x2="288.828125" y2="139.07142857142856" fill="rgb(0, 0, 0)" stroke="rgb(66, 66, 66)" stroke-width="1px" opacity="0.25"></line><line x1="0" y1="126.42857142857143" x2="288.828125" y2="126.42857142857143" fill="rgb(0, 0, 0)" stroke="rgb(66, 66, 66)" stroke-width="1px" opacity="0.25"></line><line x1="0" y1="113.78571428571428" x2="288.828125" y2="113.78571428571428" fill="rgb(0, 0, 0)" stroke="rgb(66, 66, 66)" stroke-width="1px" opacity="0.25"></line><line x1="0" y1="101.14285714285714" x2="288.828125" y2="101.14285714285714" fill="rgb(0, 0, 0)" stroke="rgb(66, 66, 66)" stroke-width="1px" opacity="0.25"></line><line x1="0" y1="88.5" x2="288.828125" y2="88.5" fill="rgb(0, 0, 0)" stroke="rgb(66, 66, 66)" stroke-width="1px" opacity="0.25"></line><line x1="0" y1="75.85714285714286" x2="288.828125" y2="75.85714285714286" fill="rgb(0, 0, 0)" stroke="rgb(66, 66, 66)" stroke-width="1px" opacity="0.25"></line><line x1="0" y1="63.21428571428571" x2="288.828125" y2="63.21428571428571" fill="rgb(0, 0, 0)" stroke="rgb(66, 66, 66)" stroke-width="1px" opacity="0.25"></line><line x1="0" y1="50.57142857142857" x2="288.828125" y2="50.57142857142857" fill="rgb(0, 0, 0)" stroke="rgb(66, 66, 66)" stroke-width="1px" opacity="0.25"></line><line x1="0" y1="37.92857142857143" x2="288.828125" y2="37.92857142857143" fill="rgb(0, 0, 0)" stroke="rgb(66, 66, 66)" stroke-width="1px" opacity="0.25"></line><line x1="0" y1="25.285714285714295" x2="288.828125" y2="25.285714285714295" fill="rgb(0, 0, 0)" stroke="rgb(66, 66, 66)" stroke-width="1px" opacity="0.25"></line><line x1="0" y1="12.642857142857137" x2="288.828125" y2="12.642857142857137" fill="rgb(0, 0, 0)" stroke="rgb(66, 66, 66)" stroke-width="1px" opacity="0.25"></line><line x1="0" y1="0" x2="288.828125" y2="0" fill="rgb(0, 0, 0)" stroke="rgb(66, 66, 66)" stroke-width="1px" opacity="0.25"></line></g></g></g><g><g><line x1="0" y1="88.5" x2="288.828125" y2="88.5" fill="rgb(0, 0, 0)" stroke="rgb(153, 153, 153)" stroke-width="1.5px"></line></g></g><g><g><line x1="24.069010416666664" y1="0" x2="24.069010416666664" y2="177" fill="rgb(0, 0, 0)" stroke="rgb(153, 153, 153)" stroke-width="1.5px"></line></g></g><g><g><g><g><g><path stroke="rgb(51, 187, 238)" stroke-width="2px" d="M29.83883359375,180.50658868436707L30.31227102864583,176.575142215529L30.707484179687498,176.74509154293406L31.263237630208334,174.31843026364032L32.05173841145833,167.80525814498876L32.36728313802084,163.89740973981904L32.684031315104164,164.08130385810904L33.787354752604166,164.19163977141073L34.10193671875,161.72926537677137L34.180161002604166,160.2518434282214L34.33877578125,159.36539122685338L34.497390559895834,158.8335202544264L34.969865234375,161.04296978396465L35.602398828125,159.8400674251063L35.761254296874995,159.11832611190854L35.84116341145833,158.6852813607521L36.07992799479167,158.42545452329264L36.6313490234375,160.79812989762067L36.86915084635417,159.69316364146104L37.02656217447917,153.97304100661964L37.18469557291666,150.54096744837065L37.739726953125,148.48172332157745L37.81891399739583,147.24617684843773L38.216534049479165,146.5048489656109L38.77036197916667,148.58862366608358L38.84906764322916,149.83888848572545L39.3246712890625,148.06047594827004L39.4012107421875,146.99342842599395L40.2749158203125,141.29605705524105L40.43328990885417,137.87763423301672L40.9074494140625,145.94086625427678L41.066304882812496,140.664519752495L41.22419759114583,137.4987118514714L41.93615891927084,135.59922711087364L42.32824309895833,134.45953626652087L43.51195703125,141.36143604563887L43.59090338541667,135.3882901988056L44.616483919270834,134.3329741192827L44.69591165364583,133.6997844715694L44.77582076822917,133.31987068294154L45.64447135416667,133.09192240976492L45.88203248697917,132.9551534458589L46.1987806640625,135.4016634960869L46.5179357421875,136.86956952622361L46.75573756510417,135.22174171573414L46.992576627604166,126.64733074372612L47.149987955729166,121.50268416052134L47.548330078125,118.4158962105985L47.707185546874996,116.56382344064482L47.78685397135416,125.56686549295833L48.58040924479167,136.02583358148928L48.89547259114583,134.71550014889357L49.212942838541665,126.34358580362186L49.370835546875,121.32043719645883L49.451226041666665,118.306548032161L49.688546484374996,116.49821453358233L50.87394524739584,115.4132144344351L51.51057057291666,114.76221437494678L51.5897576171875,114.3716143392538L52.54048352864584,121.72296860355226L53.015124414062505,123.60520973355993L53.09431145833333,124.73455441156452L53.17446126302084,125.4121612183673L54.127834765624996,120.76158244530609L54.760609049479164,123.02837803861223L55.078801367187495,129.44559825173877L55.23861959635417,133.29593037961467L55.632629296875,135.60612965634024L56.02976796875,131.9351063652327L56.18910481770833,129.7324923905682L57.064013346354166,128.4109240057695L57.540579752604174,125.08941154631883L57.62024817708333,123.09650407064845L58.72838541666667,121.9007595852462L58.806850390625,121.18331289400487L58.96402102864583,120.75284487926005L59.28100989583333,115.43742121327031L59.36115970052084,112.24816701367648L59.52049654947917,110.33461449392016L59.99850709635417,111.71505441063782L60.31718079427083,112.54331836066841L60.71504153645833,95.34027673068674L61.033955924479166,85.01845175269776L61.271276367187504,78.82535676590437L61.4301318359375,92.80949977382835L61.74856484375,103.72855700715415L61.82462291666667,112.80856277572104L62.223446419270836,113.19942337971835L62.303355533854166,113.43393974211672L62.780403320312494,98.40322098812717L62.93853671875,89.38478973573346L63.33326848958333,83.9737309842972L64.60555638020833,100.9556671620069L64.765374609375,111.14482886863271L64.8455244140625,117.25832589260821L64.92567421875,120.9264241069935L65.16347604166667,120.59871160705325L65.32305358072917,92.58779839280336L66.43817083333333,101.06696474996772L66.51832063802084,106.15446456426635L66.67789817708334,109.20696445284554L66.83747571614583,113.56703581456445L66.99681256510416,116.1830786315958L67.3164490234375,117.75270432181463L67.4760265625,118.69447973594592L67.7959037109375,119.25954498442469L67.95211158854167,122.12715556208339L68.27126666666666,123.84772190867861L68.74807376302084,122.35149028806431L68.90692923177083,116.39660845855288L69.22656569010417,112.82367936084601L70.50029772135417,113.2084933307933L70.57972545572916,113.4393817127617L70.81776796875,113.57791474194273L70.97710481770834,113.66103455945137L71.05653255208333,113.71090644995655L71.29481575520833,113.74082958425963L71.45006087239584,113.7587834648415L72.4056005859375,108.71241293604776L72.80225787760418,105.6845906187715L72.88192630208333,103.86789722840577L73.51710748697917,107.83502405132917L73.59533177083334,110.2153001450832L73.99198906250001,111.64346580133565L74.07189817708333,112.5003651950871L74.3898498046875,110.48593340276653L74.70563522135417,109.27727432737422L75.18172024739584,106.02350745356739L75.26187005208334,104.07124732928328L75.65804596354167,102.89989125471283L75.81690143229167,102.19707760997056L76.3726548828125,104.30396085169662L76.53102897135416,108.0966622253037L77.08918932291667,110.37228304946792L77.72196360677084,106.68051268682362L77.80090996093749,104.46545046923703L78.43825735677083,105.6649845672565L79.07560475260416,106.38470502606818L79.23421953125,106.81653730135518L80.50747018229166,109.60420809509883L81.37828697916667,93.576810571345L81.53786451822916,83.96037205709273L81.69696067708333,78.19050894854135L81.77686979166667,74.7285910834105L81.9354845703125,72.65144036433202L82.01515299479166,71.40514993288494L82.17112018229167,70.65737567401666L82.25126998697917,70.20871111869573L82.33093841145833,69.93951238550315L82.72928053385418,90.00656457415901L83.20680970052082,102.04679588735256L84.798493359375,104.21379181812583L85.43415592447916,105.51398937658978L85.6743646484375,106.29410791166816L85.75499583333333,106.76217903271517L85.9126478515625,104.51445027677197L86.07198470052084,103.16581302320604L86.231080859375,102.35663067106648L86.70812864583334,101.87112125978274L87.97800963541667,93.99410132729821L88.05671529947917,89.2678893678075L88.21677421874999,86.43216219211307L88.455057421875,84.7307258866964L89.08951653645833,78.65272124630356L89.16942565104166,75.00591846206785L89.88451595052084,72.81783679152642L90.20343033854168,71.50498778920158L90.83548255208333,70.71727838780666L91.07496920572918,70.2446527469697L91.23550950520834,69.96107736246753L92.18840162760418,79.90521784605194L92.42668483072916,95.98598785048831L92.58554029947916,105.63444985315013L92.90276985677085,111.42352705474723L93.2994271484375,107.3112590899912L94.3334318359375,107.37246973970902L94.49132454427084,104.88062470096827L94.96909440104166,103.3855176777238L95.20761829427083,102.48845346377713L95.36767721354165,101.95021493540914L95.68707298177084,91.51298610410262L95.76650071614584,85.25064880531872L96.2440298828125,81.49324642604839L97.83595423177083,79.23880499848617L97.995050390625,77.88614014194884L98.1546279296875,72.01739837088358L98.952515625,68.49615330824444L99.50899114583333,61.32626341351809L99.982187890625,57.02432947668229L100.61857252604166,62.028883400295086L101.885565234375,62.50304432589132L102.1231263671875,62.78754088124907L102.4393931640625,62.95823881446373L102.91692233072916,65.58922900296396L103.07409296875001,67.1678231160641L103.47171302083333,63.057836726781304L103.71192174479167,60.59184489321163L103.79086809895834,59.11224979306985L103.86981445312499,58.22449273298476L104.74279746093751,57.691838496933705L105.29879160156251,62.429388812445936L105.61602115885417,65.27191900175329L105.7746359375,66.97743711533768L106.40933574218751,68.00074798348832L106.48900416666666,68.61473450437872L107.99837180989584,68.98312641691292L108.31656412760418,79.31844727871919L109.11060078125,85.51963979580296L109.1907505859375,89.24035530605319L109.35056881510417,83.88707032648905L109.66539147135416,80.67509933875058L110.38072246093749,78.74791674610749L111.32831940104167,85.17732147623593L111.64506757812501,89.03496431431297L111.80440442708333,73.6495500171592L112.04196555989583,64.41830143886696L112.20082102864583,58.8795522918916L112.35799166666666,55.556302803706394L113.1491400390625,48.50521025365242L113.22856777343749,44.27455472362L113.46612890624999,41.73616140560059L113.54435319010416,40.21312541478891L113.78191432291666,39.29930382030193L114.02116028645834,38.751010863609714L114.18073782552082,38.42203508959441L114.57571028645833,43.28179248232807L115.13146373697917,46.19764691796827L115.5276396484375,47.947159579352395L115.607789453125,48.99686717618287L116.40062265625,49.626691734281145L116.5602001953125,50.00458646914011L117.35110787760416,50.2313233100555L117.50924127604166,50.36736541460472L117.58915039062501,50.448990677334265L118.14225625,60.61225154925769L118.53843216145833,66.71020807241177L118.85229205729168,60.254696272018485L118.9314791015625,56.38138919178251L119.88220501302084,54.05740494364094L120.51618274739583,62.777300109041704L120.83293092447916,68.00923720828219L121.23006959635417,63.56268518211215L121.38916575520834,60.89475396641014L121.704951171875,59.29399523698896L122.89588580729166,60.86211142790766L123.05305644531249,64.3315525710303L123.37100807291667,56.298931542618185L123.44899166666666,51.4793589255709L123.5281787109375,48.58761535534252L123.68727486979166,46.85256921320552L123.9245953125,45.811541527923296L124.24158417968751,45.18692491675397L124.71839127604167,47.34072637862383L125.03345462239584,53.690150112888574L125.43059329427084,57.49980435344744L125.904512109375,31.971311183497026L126.14231393229167,16.654215281526803L126.53897122395834,7.463957740344659L126.77508821614583,1.949803215635356L127.1703013671875,-1.3586894991902099L127.24876634114584,-3.3437851280855453L127.48608678385418,10.636586066005817L127.80283496093749,36.724808782460634L128.51407421875,37.20631384090496L129.06910559895834,37.49521687597154L129.30811087239582,37.6685586970115L129.3870572265625,37.772563789635484L130.0961302734375,47.949252559495584L130.88848209635418,43.94098010712591L131.12604322916667,41.53601663570413L131.6038130859375,40.093038552851034L132.07869466145834,34.17010884599634L132.39568352864583,30.616351021883524L133.26842584635418,38.59838204170153L133.34833496093748,43.38760065359235L133.66556451822916,46.26113182072684L134.14140885416666,50.51382194957895L134.45911979166667,53.06543602689023L134.6986064453125,54.59640447327698L136.602705859375,52.98641411253763L138.1038900390625,57.077562753236855L138.26130136718749,59.53225193765641L138.34121048177082,38.247922591165256L138.42063821614585,25.47732498327059L139.1321181640625,17.814966418533785L139.76705865885418,13.217551279691707L139.84672708333332,10.459102196386459L140.00486048177083,23.975461317831858L140.08332545572918,32.08527679069911L141.11757083333333,44.53688036013376L141.27714837239583,52.007842501794556L142.14652102864585,56.490419786791L142.38600768229168,59.1799661577889L142.70540345052083,48.15083683753048L143.0219109375,41.53335924537541L143.34082532552085,37.56287269008238L143.89441256510415,45.2948664711923L143.97408098958334,49.934062739858234L144.05423079427084,52.7175805010578L144.21308626302084,54.387691157777546L144.4508880859375,55.38975755180938L145.4011326171875,50.93385453108563L145.8760141927083,45.73174129007995L146.11429739583335,42.61047334547654L146.19348444010416,40.73771257871451L146.9896873046875,44.67119897580013L147.2279705078125,47.0312908140515L148.09758385416666,48.44734591700232L148.33514498697917,49.29697897877283L148.57366888020832,49.80675881583512L148.97056686197917,55.169769575215355L149.20981282552083,58.38757603084349L149.92394036458333,52.7325456185061L150.79908958333334,49.33952737110365L151.19743170572917,49.83228785123364L151.3572499348958,50.1279441393116L153.26038658854168,50.305337912158386L153.89460501302082,47.88320274729504L154.05105358072916,46.429921648377025L154.28933678385414,45.55795298902621L154.7656625,45.03477179341574L154.8458123046875,37.13514879033515L155.4003623046875,32.39537498848683L156.03626555989584,29.55151070737781L156.35493925781248,32.902334995855256L156.6721688151042,32.38425814037029L156.98626940104165,32.07341202707932L157.22383053385417,31.88690435910471L157.3829266927083,31.77499975831996L157.86165930989586,31.70785699784915L158.0200333984375,31.667571341566628L158.57530546875,31.64339994779712L159.20928320312498,36.68603996867825L159.36717591145833,44.768766838349826L159.60449635416668,49.61840296015276L159.76431458333334,52.52818463323452L159.84350162760418,54.27405363708356L159.92365143229165,55.32157503939301L160.47964557291667,48.364373595064365L160.7971158203125,44.190052728467194L160.87678424479168,41.68546020850888L161.43229700520834,30.068418982248176L162.06627473958335,23.09819424649175L162.14618385416665,18.9160594050379L162.46196927083335,16.406778500165593L162.61986197916667,27.54406710009936L163.33350813802085,31.697868831488208L164.20480631510418,34.19014987032148L164.997398828125,38.21408992219288L165.15721705729166,40.628453953315734L165.7129705078125,42.07707237198946L165.79287962239582,42.94624342319368L166.1101091796875,43.467746053916194L166.34526341145832,38.72350477520686L166.6617708984375,35.87696000798127L166.97611217447917,34.169033147645905L168.47681497395834,33.14427703144468L168.79260039062498,32.52942336172394L169.10982994791667,32.16051115989152L169.34690970052083,31.939163838792055L169.82251334635416,26.749212588989504L169.98064674479167,23.635241839108005L170.69501497395834,21.766859389179075L171.01128177083334,20.64582991922172L171.72613138020833,19.97321223724732L172.12327005208334,27.155355913776965L172.20269778645834,31.464642119694762L172.28212552083335,34.050213843245416L173.55128444010415,38.130128305947274L173.95010794270834,40.57807698356835L174.50586139322917,36.98970333299817L174.82549785156252,34.83667914265604L175.06329967447917,33.54486462845075L175.53938470052083,32.7697759199276L175.61809036458334,32.30472269481369L175.6977587890625,32.025690759745366L175.93291302083335,31.85827159870434L176.32764479166667,36.814962959222626L176.80613671875,22.08897777553358L176.88532376302084,13.25338666532014L177.67936041666667,7.95203199919206L177.75830677083334,4.771219199515268L178.07505494791667,2.8627315197091567L178.1542419921875,16.88906748325406L178.4719529296875,25.304869061380984L178.63153046875,30.35435000825717L179.1056899739583,33.38403857638288L179.34445455729167,37.73042314582972L179.66216549479168,35.281111030354964L179.74159322916668,33.81152376107013L179.90044869791666,32.92977139949923L179.978913671875,32.400719982556666L180.13800983072917,21.969003418105444L181.00641972656248,15.709973479434698L181.1638310546875,11.954555516232238L181.79516119791666,22.344161881167928L181.87410755208333,28.57792570012932L182.11166868489582,32.31818399150616L184.88562213541667,37.09091039490371L185.59493587239584,37.42597480837079L185.6738822265625,37.627013456451046L186.54542109375,30.161922359584917L187.1006931640625,25.682867701465216L187.1810836588542,22.99543490659343L188.13205026041666,18.85440380109891L188.3700927734375,16.369785137802218L189.08301686197916,14.87901393982417L189.8739245442708,13.984551221037357L190.50862434895834,13.44787358976528L190.58805208333334,13.125867011002004L190.74811100260416,20.518377349458337L190.98639420572917,24.95388355253214L191.46079440104165,27.615187274376446L191.8557668619792,24.154826650340134L191.9356759765625,22.07861027591837L192.25194277343752,20.8328804512653L192.33112981770833,20.085442556473478L192.88832740885417,19.63697981959838L193.60028873697917,21.89647360604474L193.84001608072916,23.25216987791256L194.63284928385417,24.065587641033254L195.41798040364583,24.553638298905668L196.20720325520836,34.960754407914834L197.63666178385418,38.676452644748906L198.18904557291668,40.905871586849344L198.746965234375,47.30066580925246L198.90533932291666,48.6089709141229L199.3802208984375,41.8082396913309L199.53859498697918,37.727800957655695L199.77784095052084,35.27953771745055L199.85654661458332,33.81057977332747L200.332631640625,32.92920500685362L200.650342578125,37.45752300411219L201.51803040364584,35.11737094532445L201.75511015625,33.7132797100518L202.15248951822917,30.342253540316808L203.18143971354166,28.31963783847581L205.0787998046875,32.16321127451403L206.58431640625003,36.99792676470844L206.98073300781252,39.89875605882507L207.06040143229166,41.63925363529504L207.84818014322914,42.68355218117704L208.08814817708333,43.31013130870621L208.48504615885415,43.68607878522372L209.12119010416666,38.85450441399138L209.35899192708334,35.95555979125197L209.9108943359375,34.21619301760833L209.99032207031252,33.17257295342214L210.0692684244792,32.54640091491043L210.2259576822917,27.11355483466054L210.69771028645832,23.853847186510603L211.25057545572915,21.898022597620635L212.35582441406248,23.253099272858098L213.2280853515625,19.009002420857698L213.6237798828125,16.462544309657467L213.9369177083333,14.934669442937334L214.01562337239582,14.017944522905267L214.25246243489585,13.467909570886023L214.33237154947918,13.137888599674481L216.7099083984375,17.997018874090415L216.94650677083334,20.912497038739957L217.2644583984375,22.661783937529684L217.34412682291665,23.711356076803543L217.7395806640625,24.341099360367824L217.8175642578125,24.718945330506415L218.76804947916665,24.945652912589576L219.40274928385418,25.08167746183946L219.56160475260415,27.69186361996079L219.64031041666667,29.257975314833644L220.588148046875,30.197642331757315L221.2228478515625,30.761442541911542L221.853215234375,31.099722668004055L222.25011321614582,31.302690743659568L222.409209375,31.424471589052914L222.64580774739582,23.9118258105746L222.8041818359375,19.404238343487602L222.8838502604167,16.69968586323541L223.43671542968752,15.076954375084107L223.7529822265625,14.103315482193318L223.83289134114585,13.519132146458846L223.91231907552083,13.168622145018162L224.07045247395834,12.958316144153752L224.22906725260418,25.474989686492247L224.62259557291665,32.984993811895365L224.7826544921875,37.49099628713721L225.41687291666668,40.19459777228231L227.55805208333334,39.28818723479796L227.63699843749998,38.74434091230737L227.79585390625,38.418033118812986L228.51190696614583,35.69367701414492L228.59133470052083,34.0590633513441L229.14540332031248,33.078295153663625L229.38103893229166,32.4898342350553L229.4602259765625,32.13675768389032L229.69778710937499,31.92491175319134L230.25209641927083,36.85494705191481L230.41119257812502,37.28439680257746L230.80833125,37.54206665297504L231.7614640625,37.6966685632136L231.83920696614584,37.789429709356725L232.4727033203125,30.259372111328332L232.55189036458333,25.741337552511283L233.10355208333334,23.030516817221052L233.34111321614583,21.40402437604692L233.42030026041667,20.428128911342434L233.49972799479167,19.842591632519742L233.73801119791668,22.019840693797562L235.24497194010416,20.79761870199281L235.87726484375,25.12142836405284L235.95765533854168,27.715714161288847L236.19593854166666,29.272285639630425L236.748081640625,27.67765709806397L236.98443932291667,26.720879973124095L237.143776171875,26.146813698160198L237.38133730468752,25.802373933181823L237.69640065104167,25.5957100741948L238.40763990885418,10.30028318737404L238.88107734374998,1.1230270552815533L239.19951035156248,-4.383326623973915L239.27869739583332,-7.687138831527212L239.59496419270832,8.030573843940802L239.67415123697916,17.46120144922163L239.75357897135416,23.119578012390132L240.15143971354166,26.514603950291217L240.54737493489583,28.551619513031877L240.62535852864585,29.77382885067627L240.94379153645835,30.507154453262906L241.34213365885415,30.947149814814896L241.42276484375,31.211147031746084L241.50050774739583,31.3695453619048L241.7387909505208,31.464584360000035L242.44930813802083,28.99303633028573L242.52729173177082,27.510107512457143L242.60720084635417,26.62035022176L243.00169192708333,26.086495847341716L243.39858990885415,25.766183222690742L243.63663242187502,25.573995647900176L243.87539700520833,25.458683103025816L244.0344931640625,30.44663843324406L244.1926265625,28.382268774232166L244.42826217447916,27.143646978825025L244.98666321614584,26.400473901580714L245.93690774739585,25.95457005523413L246.09624459635415,25.687027747426207L247.11388235677083,22.997930934169997L247.19234733072915,21.384472846216276L248.06533033854166,20.416397993444047L248.85575664062497,19.835553081780706L249.01364934895832,19.487046134782705L249.17106067708335,24.335084823726774L249.6457015625,27.243908037093217L250.1971225911458,26.460630536541643L250.276791015625,25.9906640362107L250.67224485677082,25.70868413601214L250.98803027343752,25.539496195893L251.06793938802082,25.437983431821507L251.384446875,25.377075773378646L252.41243430989584,30.397674035455736L252.5708083984375,28.352890135559168L252.64975475260417,27.12601979562121L253.36123470052084,23.86132616308702L253.5210529296875,21.9025099835665L253.67966770833334,20.727220275854183L254.31220130208334,17.49347502265537L254.94377213541668,15.553227870736066L255.1818146484375,14.389079579584498L255.2612423828125,13.690590604893561L255.4980814453125,13.271497220079004L255.65597415364584,13.020041189190241L255.7341984375,12.869167570657012L255.9710375,22.89292911382277L256.44736321614585,28.907186039722227L256.76290794270835,24.930025909547624L256.8423356770833,22.543729831442853L257.94565911458335,21.111952184580016L258.1812947265625,20.252885596462285L258.41765240885417,19.73744564359164L258.9702768880208,21.95675310044069L259.207356640625,25.816909003121573L259.3664527994792,28.133002544730076L259.84109368489584,29.522658669695176L260.2360661458333,30.35645234467425L260.7119104817708,30.856728549661707L260.86956250000003,31.156894272654174L261.4185766276042,31.336993706449647L261.6556563802083,26.387910509584067L261.81306770833334,23.41846059146472L261.8920140625,21.636790640593112L262.1295751953125,20.56778867007014L262.7625901692708,19.926387487756358L263.47455149739585,24.598689635510976L263.871930859375,29.930642352735145L264.2640150390625,33.129813983069674L264.6597095703125,37.57788838984178L265.68938183593747,20.018161605333646L265.848959375,9.48232553462878L266.63938567708334,3.1608238922058365L267.19128808593746,12.010780049609204L267.427405078125,19.849325172622677L267.82430305989584,19.49530938928788L268.53554231770835,19.282899919287022L268.6147293619792,19.15545423728649L269.0847971354167,19.07898682808619L269.5567904296875,24.09024923970884L269.7931481119792,27.097006686682445L270.10965559895834,28.901061154866625L270.1888426432292,29.98349383577711L270.2677889973958,30.632953444323405L270.42664446614583,33.551200638022614L270.7412264322917,35.302148954242135L270.97686204427083,36.352717943973865L271.0558083984375,36.98305933781288L271.37255657552083,37.36126417411631L271.45174361979167,37.58818707589835L271.52972721354166,37.72434081696759L271.9222927734375,30.220318775894818L272.0811482421875,25.7179055512512L272.87085247395834,23.016457616464997L273.4246804036458,21.39558885559329L273.97947109375,20.423067599070247L274.21582877604163,19.839554845156442L275.6375852213542,16.960875764236704L276.03255768229167,15.23366831568487L276.742112109375,21.783058132268074L276.9794325520833,25.71269202221796L277.1385287109375,28.070472356187945L277.69115319010416,21.899426270855614L278.00838274739584,18.196798619656228L278.0878104817708,15.9752220289366L278.71914062499997,14.642276074504823L279.03516673177086,13.842508501845748L279.11387239583337,13.362647958250289L279.350230078125,13.074731632093028L279.5095669270833,12.901981836398672L280.0571369140625,12.798331958982061L280.37244095052085,12.736142032532085L280.6899111979167,17.755970933804953L281.00690006510416,20.767868274568702L281.16334863281253,27.63214953616979L281.6379895182292,31.750718293130443L282.90113118489586,31.693288118735406L283.13797024739586,31.65883001409839L283.37505,18.995298008459038L283.61164837239585,11.397178805075423L283.6908354166667,6.838307283045261L284.08532649739584,4.102984369827145L284.7130462890625,2.461790621896287L285.18624303385417,11.591360087423471L285.42524830729167,17.069101766739802L285.5039539713542,20.35574677432962L286.13335859375,22.327733778883474L286.7656514973958,23.51092598161579L287.7917134114583,29.277984160398052L288.3440972005208,32.73821906766742L288.81657187499997,29.75721715488616L289.21274778645835,27.96861600721742" style="fill: none;" fill="none"></path></g></g></g></g><g opacity="0.2"><g><g><g><path stroke="rgb(51, 187, 238)" stroke-width="2px" d="M27.3902931640625,195.96428571428572L27.943639713541668,177L28.022104687499997,177L28.101532421875003,177L28.4965048828125,195.96428571428572L29.12951985677083,177L29.208225520833334,177L29.4438611328125,177L29.522326106770834,177L29.759887239583332,189.64285714285714L29.83883359375,177L30.31227102864583,170.67857142857144L30.707484179687498,177L31.263237630208334,170.67857142857144L32.05173841145833,158.0357142857143L32.36728313802084,158.0357142857143L32.684031315104164,164.35714285714286L33.787354752604166,164.35714285714286L34.10193671875,158.0357142857143L34.180161002604166,158.0357142857143L34.33877578125,158.0357142857143L34.497390559895834,158.0357142857143L34.969865234375,164.35714285714286L35.602398828125,158.0357142857143L35.761254296874995,158.0357142857143L35.84116341145833,158.0357142857143L36.07992799479167,158.0357142857143L36.6313490234375,164.35714285714286L36.86915084635417,158.0357142857143L37.02656217447917,145.39285714285714L37.18469557291666,145.39285714285714L37.739726953125,145.39285714285714L37.81891399739583,145.39285714285714L38.216534049479165,145.39285714285714L38.77036197916667,151.71428571428572L38.84906764322916,151.71428571428572L39.3246712890625,145.39285714285714L39.4012107421875,145.39285714285714L40.2749158203125,132.75L40.43328990885417,132.75L40.9074494140625,158.0357142857143L41.066304882812496,132.75L41.22419759114583,132.75L41.93615891927084,132.75L42.32824309895833,132.75L43.51195703125,151.71428571428572L43.59090338541667,126.42857142857143L44.616483919270834,132.75L44.69591165364583,132.75L44.77582076822917,132.75L45.64447135416667,132.75L45.88203248697917,132.75L46.1987806640625,139.07142857142856L46.5179357421875,139.07142857142856L46.75573756510417,132.75L46.992576627604166,113.78571428571428L47.149987955729166,113.78571428571428L47.548330078125,113.78571428571428L47.707185546874996,113.78571428571428L47.78685397135416,139.07142857142856L48.58040924479167,151.71428571428572L48.89547259114583,132.75L49.212942838541665,113.78571428571428L49.370835546875,113.78571428571428L49.451226041666665,113.78571428571428L49.688546484374996,113.78571428571428L50.87394524739584,113.78571428571428L51.51057057291666,113.78571428571428L51.5897576171875,113.78571428571428L52.54048352864584,132.75L53.015124414062505,126.42857142857143L53.09431145833333,126.42857142857143L53.17446126302084,126.42857142857143L54.127834765624996,113.78571428571428L54.760609049479164,126.42857142857143L55.078801367187495,139.07142857142856L55.23861959635417,139.07142857142856L55.632629296875,139.07142857142856L56.02976796875,126.42857142857143L56.18910481770833,126.42857142857143L57.064013346354166,126.42857142857143L57.540579752604174,120.10714285714286L57.62024817708333,120.10714285714286L58.72838541666667,120.10714285714286L58.806850390625,120.10714285714286L58.96402102864583,120.10714285714286L59.28100989583333,107.46428571428572L59.36115970052084,107.46428571428572L59.52049654947917,107.46428571428572L59.99850709635417,113.78571428571428L60.31718079427083,113.78571428571428L60.71504153645833,69.53571428571429L61.033955924479166,69.53571428571429L61.271276367187504,69.53571428571429L61.4301318359375,113.78571428571428L61.74856484375,120.10714285714286L61.82462291666667,126.42857142857143L62.223446419270836,113.78571428571428L62.303355533854166,113.78571428571428L62.780403320312494,75.85714285714286L62.93853671875,75.85714285714286L63.33326848958333,75.85714285714286L64.60555638020833,126.42857142857143L64.765374609375,126.42857142857143L64.8455244140625,126.42857142857143L64.92567421875,126.42857142857143L65.16347604166667,120.10714285714286L65.32305358072917,50.57142857142857L66.43817083333333,113.78571428571428L66.51832063802084,113.78571428571428L66.67789817708334,113.78571428571428L66.83747571614583,120.10714285714286L66.99681256510416,120.10714285714286L67.3164490234375,120.10714285714286L67.4760265625,120.10714285714286L67.7959037109375,120.10714285714286L67.95211158854167,126.42857142857143L68.27126666666666,126.42857142857143L68.74807376302084,120.10714285714286L68.90692923177083,107.46428571428572L69.22656569010417,107.46428571428572L70.50029772135417,113.78571428571428L70.57972545572916,113.78571428571428L70.81776796875,113.78571428571428L70.97710481770834,113.78571428571428L71.05653255208333,113.78571428571428L71.29481575520833,113.78571428571428L71.45006087239584,113.78571428571428L72.4056005859375,101.14285714285714L72.80225787760418,101.14285714285714L72.88192630208333,101.14285714285714L73.51710748697917,113.78571428571428L73.59533177083334,113.78571428571428L73.99198906250001,113.78571428571428L74.07189817708333,113.78571428571428L74.3898498046875,107.46428571428572L74.70563522135417,107.46428571428572L75.18172024739584,101.14285714285714L75.26187005208334,101.14285714285714L75.65804596354167,101.14285714285714L75.81690143229167,101.14285714285714L76.3726548828125,107.46428571428572L76.53102897135416,113.78571428571428L77.08918932291667,113.78571428571428L77.72196360677084,101.14285714285714L77.80090996093749,101.14285714285714L78.43825735677083,107.46428571428572L79.07560475260416,107.46428571428572L79.23421953125,107.46428571428572L80.50747018229166,113.78571428571428L81.37828697916667,69.53571428571429L81.53786451822916,69.53571428571429L81.69696067708333,69.53571428571429L81.77686979166667,69.53571428571429L81.9354845703125,69.53571428571429L82.01515299479166,69.53571428571429L82.17112018229167,69.53571428571429L82.25126998697917,69.53571428571429L82.33093841145833,69.53571428571429L82.72928053385418,120.10714285714286L83.20680970052082,120.10714285714286L84.798493359375,107.46428571428572L85.43415592447916,107.46428571428572L85.6743646484375,107.46428571428572L85.75499583333333,107.46428571428572L85.9126478515625,101.14285714285714L86.07198470052084,101.14285714285714L86.231080859375,101.14285714285714L86.70812864583334,101.14285714285714L87.97800963541667,82.17857142857143L88.05671529947917,82.17857142857143L88.21677421874999,82.17857142857143L88.455057421875,82.17857142857143L89.08951653645833,69.53571428571429L89.16942565104166,69.53571428571429L89.88451595052084,69.53571428571429L90.20343033854168,69.53571428571429L90.83548255208333,69.53571428571429L91.07496920572918,69.53571428571429L91.23550950520834,69.53571428571429L92.18840162760418,94.82142857142857L92.42668483072916,120.10714285714286L92.58554029947916,120.10714285714286L92.90276985677085,120.10714285714286L93.2994271484375,101.14285714285714L94.3334318359375,107.46428571428572L94.49132454427084,101.14285714285714L94.96909440104166,101.14285714285714L95.20761829427083,101.14285714285714L95.36767721354165,101.14285714285714L95.68707298177084,75.85714285714286L95.76650071614584,75.85714285714286L96.2440298828125,75.85714285714286L97.83595423177083,75.85714285714286L97.995050390625,75.85714285714286L98.1546279296875,63.21428571428571L98.952515625,63.21428571428571L99.50899114583333,50.57142857142857L99.982187890625,50.57142857142857L100.61857252604166,69.53571428571429L101.885565234375,63.21428571428571L102.1231263671875,63.21428571428571L102.4393931640625,63.21428571428571L102.91692233072916,69.53571428571429L103.07409296875001,69.53571428571429L103.47171302083333,56.89285714285714L103.71192174479167,56.89285714285714L103.79086809895834,56.89285714285714L103.86981445312499,56.89285714285714L104.74279746093751,56.89285714285714L105.29879160156251,69.53571428571429L105.61602115885417,69.53571428571429L105.7746359375,69.53571428571429L106.40933574218751,69.53571428571429L106.48900416666666,69.53571428571429L107.99837180989584,69.53571428571429L108.31656412760418,94.82142857142857L109.11060078125,94.82142857142857L109.1907505859375,94.82142857142857L109.35056881510417,75.85714285714286L109.66539147135416,75.85714285714286L110.38072246093749,75.85714285714286L111.32831940104167,94.82142857142857L111.64506757812501,94.82142857142857L111.80440442708333,50.57142857142857L112.04196555989583,50.57142857142857L112.20082102864583,50.57142857142857L112.35799166666666,50.57142857142857L113.1491400390625,37.92857142857143L113.22856777343749,37.92857142857143L113.46612890624999,37.92857142857143L113.54435319010416,37.92857142857143L113.78191432291666,37.92857142857143L114.02116028645834,37.92857142857143L114.18073782552082,37.92857142857143L114.57571028645833,50.57142857142857L115.13146373697917,50.57142857142857L115.5276396484375,50.57142857142857L115.607789453125,50.57142857142857L116.40062265625,50.57142857142857L116.5602001953125,50.57142857142857L117.35110787760416,50.57142857142857L117.50924127604166,50.57142857142857L117.58915039062501,50.57142857142857L118.14225625,75.85714285714286L118.53843216145833,75.85714285714286L118.85229205729168,50.57142857142857L118.9314791015625,50.57142857142857L119.88220501302084,50.57142857142857L120.51618274739583,75.85714285714286L120.83293092447916,75.85714285714286L121.23006959635417,56.89285714285714L121.38916575520834,56.89285714285714L121.704951171875,56.89285714285714L122.89588580729166,63.21428571428571L123.05305644531249,69.53571428571429L123.37100807291667,44.25L123.44899166666666,44.25L123.5281787109375,44.25L123.68727486979166,44.25L123.9245953125,44.25L124.24158417968751,44.25L124.71839127604167,50.57142857142857L125.03345462239584,63.21428571428571L125.43059329427084,63.21428571428571L125.904512109375,-6.321428571428588L127.24876634114584,-6.321428571428588L127.48608678385418,31.60714285714286L127.80283496093749,75.85714285714286L128.51407421875,37.92857142857143L129.06910559895834,37.92857142857143L129.30811087239582,37.92857142857143L129.3870572265625,37.92857142857143L130.0961302734375,63.21428571428571L130.88848209635418,37.92857142857143L131.12604322916667,37.92857142857143L131.6038130859375,37.92857142857143L132.07869466145834,25.285714285714295L132.39568352864583,25.285714285714295L133.26842584635418,50.57142857142857L133.34833496093748,50.57142857142857L133.66556451822916,50.57142857142857L134.14140885416666,56.89285714285714L134.45911979166667,56.89285714285714L134.6986064453125,56.89285714285714L136.602705859375,50.57142857142857L138.1038900390625,63.21428571428571L138.26130136718749,63.21428571428571L138.34121048177082,6.3214285714285685L138.42063821614585,6.3214285714285685L139.1321181640625,6.3214285714285685L139.76705865885418,6.3214285714285685L139.84672708333332,6.3214285714285685L140.00486048177083,44.25L140.08332545572918,44.25L141.11757083333333,63.21428571428571L141.27714837239583,63.21428571428571L142.14652102864585,63.21428571428571L142.38600768229168,63.21428571428571L142.70540345052083,31.60714285714286L143.0219109375,31.60714285714286L143.34082532552085,31.60714285714286L143.89441256510415,56.89285714285714L143.97408098958334,56.89285714285714L144.05423079427084,56.89285714285714L144.21308626302084,56.89285714285714L144.4508880859375,56.89285714285714L145.4011326171875,44.25L145.8760141927083,37.92857142857143L146.11429739583335,37.92857142857143L146.19348444010416,37.92857142857143L146.9896873046875,50.57142857142857L147.2279705078125,50.57142857142857L148.09758385416666,50.57142857142857L148.33514498697917,50.57142857142857L148.57366888020832,50.57142857142857L148.97056686197917,63.21428571428571L149.20981282552083,63.21428571428571L149.92394036458333,44.25L150.79908958333334,44.25L151.19743170572917,50.57142857142857L151.3572499348958,50.57142857142857L153.26038658854168,50.57142857142857L153.89460501302082,44.25L154.05105358072916,44.25L154.28933678385414,44.25L154.7656625,44.25L154.8458123046875,25.285714285714295L155.4003623046875,25.285714285714295L156.03626555989584,25.285714285714295L156.35493925781248,37.92857142857143L156.6721688151042,31.60714285714286L156.98626940104165,31.60714285714286L157.22383053385417,31.60714285714286L157.3829266927083,31.60714285714286L157.86165930989586,31.60714285714286L158.0200333984375,31.60714285714286L158.57530546875,31.60714285714286L159.20928320312498,44.25L159.36717591145833,56.89285714285714L159.60449635416668,56.89285714285714L159.76431458333334,56.89285714285714L159.84350162760418,56.89285714285714L159.92365143229165,56.89285714285714L160.47964557291667,37.92857142857143L160.7971158203125,37.92857142857143L160.87678424479168,37.92857142857143L161.43229700520834,12.642857142857137L162.06627473958335,12.642857142857137L162.14618385416665,12.642857142857137L162.46196927083335,12.642857142857137L162.61986197916667,44.25L163.33350813802085,37.92857142857143L164.20480631510418,37.92857142857143L164.997398828125,44.25L165.15721705729166,44.25L165.7129705078125,44.25L165.79287962239582,44.25L166.1101091796875,44.25L166.34526341145832,31.60714285714286L166.6617708984375,31.60714285714286L166.97611217447917,31.60714285714286L168.47681497395834,31.60714285714286L168.79260039062498,31.60714285714286L169.10982994791667,31.60714285714286L169.34690970052083,31.60714285714286L169.82251334635416,18.964285714285705L169.98064674479167,18.964285714285705L170.69501497395834,18.964285714285705L171.01128177083334,18.964285714285705L171.72613138020833,18.964285714285705L172.12327005208334,37.92857142857143L172.20269778645834,37.92857142857143L172.28212552083335,37.92857142857143L173.55128444010415,44.25L173.95010794270834,44.25L174.50586139322917,31.60714285714286L174.82549785156252,31.60714285714286L175.06329967447917,31.60714285714286L175.53938470052083,31.60714285714286L175.61809036458334,31.60714285714286L175.6977587890625,31.60714285714286L175.93291302083335,31.60714285714286L176.32764479166667,44.25L176.80613671875,0L176.88532376302084,0L177.67936041666667,0L177.75830677083334,0L178.07505494791667,0L178.1542419921875,37.92857142857143L178.4719529296875,37.92857142857143L178.63153046875,37.92857142857143L179.1056899739583,37.92857142857143L179.34445455729167,44.25L179.66216549479168,31.60714285714286L179.74159322916668,31.60714285714286L179.90044869791666,31.60714285714286L179.978913671875,31.60714285714286L180.13800983072917,6.3214285714285685L181.00641972656248,6.3214285714285685L181.1638310546875,6.3214285714285685L181.79516119791666,37.92857142857143L181.87410755208333,37.92857142857143L182.11166868489582,37.92857142857143L184.88562213541667,44.25L185.59493587239584,37.92857142857143L185.6738822265625,37.92857142857143L186.54542109375,18.964285714285705L187.1006931640625,18.964285714285705L187.1810836588542,18.964285714285705L188.13205026041666,12.642857142857137L188.3700927734375,12.642857142857137L189.08301686197916,12.642857142857137L189.8739245442708,12.642857142857137L190.50862434895834,12.642857142857137L190.58805208333334,12.642857142857137L190.74811100260416,31.60714285714286L190.98639420572917,31.60714285714286L191.46079440104165,31.60714285714286L191.8557668619792,18.964285714285705L191.9356759765625,18.964285714285705L192.25194277343752,18.964285714285705L192.33112981770833,18.964285714285705L192.88832740885417,18.964285714285705L193.60028873697917,25.285714285714295L193.84001608072916,25.285714285714295L194.63284928385417,25.285714285714295L195.41798040364583,25.285714285714295L196.20720325520836,50.57142857142857L197.63666178385418,44.25L198.18904557291668,44.25L198.746965234375,56.89285714285714L198.90533932291666,50.57142857142857L199.3802208984375,31.60714285714286L199.53859498697918,31.60714285714286L199.77784095052084,31.60714285714286L199.85654661458332,31.60714285714286L200.332631640625,31.60714285714286L200.650342578125,44.25L201.51803040364584,31.60714285714286L201.75511015625,31.60714285714286L202.15248951822917,25.285714285714295L203.18143971354166,25.285714285714295L205.0787998046875,37.92857142857143L206.58431640625003,44.25L206.98073300781252,44.25L207.06040143229166,44.25L207.84818014322914,44.25L208.08814817708333,44.25L208.48504615885415,44.25L209.12119010416666,31.60714285714286L209.35899192708334,31.60714285714286L209.9108943359375,31.60714285714286L209.99032207031252,31.60714285714286L210.0692684244792,31.60714285714286L210.2259576822917,18.964285714285705L210.69771028645832,18.964285714285705L211.25057545572915,18.964285714285705L212.35582441406248,25.285714285714295L213.2280853515625,12.642857142857137L213.6237798828125,12.642857142857137L213.9369177083333,12.642857142857137L214.01562337239582,12.642857142857137L214.25246243489585,12.642857142857137L214.33237154947918,12.642857142857137L216.7099083984375,25.285714285714295L216.94650677083334,25.285714285714295L217.2644583984375,25.285714285714295L217.34412682291665,25.285714285714295L217.7395806640625,25.285714285714295L217.8175642578125,25.285714285714295L218.76804947916665,25.285714285714295L219.40274928385418,25.285714285714295L219.56160475260415,31.60714285714286L219.64031041666667,31.60714285714286L220.588148046875,31.60714285714286L221.2228478515625,31.60714285714286L221.853215234375,31.60714285714286L222.25011321614582,31.60714285714286L222.409209375,31.60714285714286L222.64580774739582,12.642857142857137L222.8041818359375,12.642857142857137L222.8838502604167,12.642857142857137L223.43671542968752,12.642857142857137L223.7529822265625,12.642857142857137L223.83289134114585,12.642857142857137L223.91231907552083,12.642857142857137L224.07045247395834,12.642857142857137L224.22906725260418,44.25L224.62259557291665,44.25L224.7826544921875,44.25L225.41687291666668,44.25L227.55805208333334,37.92857142857143L227.63699843749998,37.92857142857143L227.79585390625,37.92857142857143L228.51190696614583,31.60714285714286L228.59133470052083,31.60714285714286L229.14540332031248,31.60714285714286L229.38103893229166,31.60714285714286L229.4602259765625,31.60714285714286L229.69778710937499,31.60714285714286L230.25209641927083,44.25L230.41119257812502,37.92857142857143L230.80833125,37.92857142857143L231.7614640625,37.92857142857143L231.83920696614584,37.92857142857143L232.4727033203125,18.964285714285705L232.55189036458333,18.964285714285705L233.10355208333334,18.964285714285705L233.34111321614583,18.964285714285705L233.42030026041667,18.964285714285705L233.49972799479167,18.964285714285705L233.73801119791668,25.285714285714295L235.24497194010416,18.964285714285705L235.87726484375,31.60714285714286L235.95765533854168,31.60714285714286L236.19593854166666,31.60714285714286L236.748081640625,25.285714285714295L236.98443932291667,25.285714285714295L237.143776171875,25.285714285714295L237.38133730468752,25.285714285714295L237.69640065104167,25.285714285714295L238.40763990885418,-12.642857142857137L239.27869739583332,-12.642857142857137L239.59496419270832,31.60714285714286L239.67415123697916,31.60714285714286L239.75357897135416,31.60714285714286L240.15143971354166,31.60714285714286L240.54737493489583,31.60714285714286L240.62535852864585,31.60714285714286L240.94379153645835,31.60714285714286L241.34213365885415,31.60714285714286L241.42276484375,31.60714285714286L241.50050774739583,31.60714285714286L241.7387909505208,31.60714285714286L242.44930813802083,25.285714285714295L242.52729173177082,25.285714285714295L242.60720084635417,25.285714285714295L243.00169192708333,25.285714285714295L243.39858990885415,25.285714285714295L243.63663242187502,25.285714285714295L243.87539700520833,25.285714285714295L244.0344931640625,37.92857142857143L244.1926265625,25.285714285714295L244.42826217447916,25.285714285714295L244.98666321614584,25.285714285714295L245.93690774739585,25.285714285714295L246.09624459635415,25.285714285714295L247.11388235677083,18.964285714285705L247.19234733072915,18.964285714285705L248.06533033854166,18.964285714285705L248.85575664062497,18.964285714285705L249.01364934895832,18.964285714285705L249.17106067708335,31.60714285714286L249.6457015625,31.60714285714286L250.1971225911458,25.285714285714295L250.276791015625,25.285714285714295L250.67224485677082,25.285714285714295L250.98803027343752,25.285714285714295L251.06793938802082,25.285714285714295L251.384446875,25.285714285714295L252.41243430989584,37.92857142857143L252.5708083984375,25.285714285714295L252.64975475260417,25.285714285714295L253.36123470052084,18.964285714285705L253.5210529296875,18.964285714285705L253.67966770833334,18.964285714285705L254.31220130208334,12.642857142857137L254.94377213541668,12.642857142857137L255.1818146484375,12.642857142857137L255.2612423828125,12.642857142857137L255.4980814453125,12.642857142857137L255.65597415364584,12.642857142857137L255.7341984375,12.642857142857137L255.9710375,37.92857142857143L256.44736321614585,37.92857142857143L256.76290794270835,18.964285714285705L256.8423356770833,18.964285714285705L257.94565911458335,18.964285714285705L258.1812947265625,18.964285714285705L258.41765240885417,18.964285714285705L258.9702768880208,25.285714285714295L259.207356640625,31.60714285714286L259.3664527994792,31.60714285714286L259.84109368489584,31.60714285714286L260.2360661458333,31.60714285714286L260.7119104817708,31.60714285714286L260.86956250000003,31.60714285714286L261.4185766276042,31.60714285714286L261.6556563802083,18.964285714285705L261.81306770833334,18.964285714285705L261.8920140625,18.964285714285705L262.1295751953125,18.964285714285705L262.7625901692708,18.964285714285705L263.47455149739585,31.60714285714286L263.871930859375,37.92857142857143L264.2640150390625,37.92857142857143L264.6597095703125,44.25L265.68938183593747,-6.321428571428588L266.63938567708334,-6.321428571428588L267.19128808593746,25.285714285714295L267.427405078125,31.60714285714286L267.82430305989584,18.964285714285705L268.53554231770835,18.964285714285705L268.6147293619792,18.964285714285705L269.0847971354167,18.964285714285705L269.5567904296875,31.60714285714286L269.7931481119792,31.60714285714286L270.10965559895834,31.60714285714286L270.1888426432292,31.60714285714286L270.2677889973958,31.60714285714286L270.42664446614583,37.92857142857143L270.7412264322917,37.92857142857143L270.97686204427083,37.92857142857143L271.0558083984375,37.92857142857143L271.37255657552083,37.92857142857143L271.45174361979167,37.92857142857143L271.52972721354166,37.92857142857143L271.9222927734375,18.964285714285705L272.0811482421875,18.964285714285705L272.87085247395834,18.964285714285705L273.4246804036458,18.964285714285705L273.97947109375,18.964285714285705L274.21582877604163,18.964285714285705L275.6375852213542,12.642857142857137L276.03255768229167,12.642857142857137L276.742112109375,31.60714285714286L276.9794325520833,31.60714285714286L277.1385287109375,31.60714285714286L277.69115319010416,12.642857142857137L278.00838274739584,12.642857142857137L278.0878104817708,12.642857142857137L278.71914062499997,12.642857142857137L279.03516673177086,12.642857142857137L279.11387239583337,12.642857142857137L279.350230078125,12.642857142857137L279.5095669270833,12.642857142857137L280.0571369140625,12.642857142857137L280.37244095052085,12.642857142857137L280.6899111979167,25.285714285714295L281.00690006510416,25.285714285714295L281.16334863281253,37.92857142857143L281.6379895182292,37.92857142857143L282.90113118489586,31.60714285714286L283.13797024739586,31.60714285714286L283.37505,0L283.61164837239585,0L283.6908354166667,0L284.08532649739584,0L284.7130462890625,0L285.18624303385417,25.285714285714295L285.42524830729167,25.285714285714295L285.5039539713542,25.285714285714295L286.13335859375,25.285714285714295L286.7656514973958,25.285714285714295L287.7917134114583,37.92857142857143L288.3440972005208,37.92857142857143L288.81657187499997,25.285714285714295L289.21274778645835,25.285714285714295" style="fill: none;" fill="none"></path></g></g></g></g></g></g><g transform="translate(41, 177)" clip-path="url(#clip_1)"><clipPath id="clip_1"><rect width="288" height="23"></rect></clipPath><g><g><line x1="0" y1="0" x2="0" y2="5" style="visibility: inherit;" fill="rgb(0, 0, 0)" stroke="rgb(204, 204, 204)" stroke-width="1px"></line><line x1="24.069010416666664" y1="0" x2="24.069010416666664" y2="5" style="visibility: inherit;" fill="rgb(0, 0, 0)" stroke="rgb(204, 204, 204)" stroke-width="1px"></line><line x1="48.13802083333333" y1="0" x2="48.13802083333333" y2="5" style="visibility: inherit;" fill="rgb(0, 0, 0)" stroke="rgb(204, 204, 204)" stroke-width="1px"></line><line x1="72.20703125" y1="0" x2="72.20703125" y2="5" style="visibility: inherit;" fill="rgb(0, 0, 0)" stroke="rgb(204, 204, 204)" stroke-width="1px"></line><line x1="96.27604166666666" y1="0" x2="96.27604166666666" y2="5" style="visibility: inherit;" fill="rgb(0, 0, 0)" stroke="rgb(204, 204, 204)" stroke-width="1px"></line><line x1="120.34505208333334" y1="0" x2="120.34505208333334" y2="5" style="visibility: inherit;" fill="rgb(0, 0, 0)" stroke="rgb(204, 204, 204)" stroke-width="1px"></line><line x1="144.4140625" y1="0" x2="144.4140625" y2="5" style="visibility: inherit;" fill="rgb(0, 0, 0)" stroke="rgb(204, 204, 204)" stroke-width="1px"></line><line x1="168.48307291666669" y1="0" x2="168.48307291666669" y2="5" style="visibility: inherit;" fill="rgb(0, 0, 0)" stroke="rgb(204, 204, 204)" stroke-width="1px"></line><line x1="192.55208333333331" y1="0" x2="192.55208333333331" y2="5" style="visibility: inherit;" fill="rgb(0, 0, 0)" stroke="rgb(204, 204, 204)" stroke-width="1px"></line><line x1="216.62109375" y1="0" x2="216.62109375" y2="5" style="visibility: inherit;" fill="rgb(0, 0, 0)" stroke="rgb(204, 204, 204)" stroke-width="1px"></line><line x1="240.69010416666669" y1="0" x2="240.69010416666669" y2="5" style="visibility: inherit;" fill="rgb(0, 0, 0)" stroke="rgb(204, 204, 204)" stroke-width="1px"></line><line x1="264.7591145833333" y1="0" x2="264.7591145833333" y2="5" style="visibility: inherit;" fill="rgb(0, 0, 0)" stroke="rgb(204, 204, 204)" stroke-width="1px"></line><line x1="288.828125" y1="0" x2="288.828125" y2="5" style="visibility: inherit;" fill="rgb(0, 0, 0)" stroke="rgb(204, 204, 204)" stroke-width="1px"></line></g><g transform="translate(0, 8)"><text x="0" y="0" dx="0em" dy="0.95em" style="text-anchor: middle; visibility: hidden; font-family: Roboto, sans-serif; font-size: 12px; font-weight: 200;" fill="rgb(33, 33, 33)" stroke="none" stroke-width="1px">-10M</text><text x="24.069010416666664" y="0" dx="0em" dy="0.95em" style="text-anchor: middle; visibility: inherit; font-family: Roboto, sans-serif; font-size: 12px; font-weight: 200;" fill="rgb(33, 33, 33)" stroke="none" stroke-width="1px">0</text><text x="48.13802083333333" y="0" dx="0em" dy="0.95em" style="text-anchor: middle; visibility: hidden; font-family: Roboto, sans-serif; font-size: 12px; font-weight: 200;" fill="rgb(33, 33, 33)" stroke="none" stroke-width="1px">10M</text><text x="72.20703125" y="0" dx="0em" dy="0.95em" style="text-anchor: middle; visibility: inherit; font-family: Roboto, sans-serif; font-size: 12px; font-weight: 200;" fill="rgb(33, 33, 33)" stroke="none" stroke-width="1px">20M</text><text x="96.27604166666666" y="0" dx="0em" dy="0.95em" style="text-anchor: middle; visibility: hidden; font-family: Roboto, sans-serif; font-size: 12px; font-weight: 200;" fill="rgb(33, 33, 33)" stroke="none" stroke-width="1px">30M</text><text x="120.34505208333334" y="0" dx="0em" dy="0.95em" style="text-anchor: middle; visibility: inherit; font-family: Roboto, sans-serif; font-size: 12px; font-weight: 200;" fill="rgb(33, 33, 33)" stroke="none" stroke-width="1px">40M</text><text x="144.4140625" y="0" dx="0em" dy="0.95em" style="text-anchor: middle; visibility: hidden; font-family: Roboto, sans-serif; font-size: 12px; font-weight: 200;" fill="rgb(33, 33, 33)" stroke="none" stroke-width="1px">50M</text><text x="168.48307291666669" y="0" dx="0em" dy="0.95em" style="text-anchor: middle; visibility: inherit; font-family: Roboto, sans-serif; font-size: 12px; font-weight: 200;" fill="rgb(33, 33, 33)" stroke="none" stroke-width="1px">60M</text><text x="192.55208333333331" y="0" dx="0em" dy="0.95em" style="text-anchor: middle; visibility: hidden; font-family: Roboto, sans-serif; font-size: 12px; font-weight: 200;" fill="rgb(33, 33, 33)" stroke="none" stroke-width="1px">70M</text><text x="216.62109375" y="0" dx="0em" dy="0.95em" style="text-anchor: middle; visibility: inherit; font-family: Roboto, sans-serif; font-size: 12px; font-weight: 200;" fill="rgb(33, 33, 33)" stroke="none" stroke-width="1px">80M</text><text x="240.69010416666669" y="0" dx="0em" dy="0.95em" style="text-anchor: middle; visibility: hidden; font-family: Roboto, sans-serif; font-size: 12px; font-weight: 200;" fill="rgb(33, 33, 33)" stroke="none" stroke-width="1px">90M</text><text x="264.7591145833333" y="0" dx="0em" dy="0.95em" style="text-anchor: middle; visibility: inherit; font-family: Roboto, sans-serif; font-size: 12px; font-weight: 200;" fill="rgb(33, 33, 33)" stroke="none" stroke-width="1px">100M</text><text x="288.828125" y="0" dx="0em" dy="0.95em" style="text-anchor: middle; visibility: hidden; font-family: Roboto, sans-serif; font-size: 12px; font-weight: 200;" fill="rgb(33, 33, 33)" stroke="none" stroke-width="1px">110M</text></g><line x1="0" y1="0" x2="288.828125" y2="0" fill="rgb(0, 0, 0)" stroke="rgb(204, 204, 204)" stroke-width="1px"></line></g></g></g></g></svg>